<svg width="27" height="23" viewBox="0 0 27 23" fill="none" xmlns="http://www.w3.org/2000/svg">
<path d="M26.6252 3.32175C25.6605 3.76125 24.6229 4.0545 23.5285 4.19325C24.6412 3.51375 25.4972 2.43 25.899 1.14975C24.8577 1.7775 23.7042 2.23875 22.477 2.48175C21.497 1.413 20.0992 0.75 18.5504 0.75C15.5754 0.75 13.1641 3.2085 13.1641 6.24C13.1641 6.669 13.2129 7.08675 13.3048 7.4925C8.82919 7.2615 4.85961 5.073 2.20398 1.752C1.73732 2.5635 1.47482 3.51375 1.47482 4.5165C1.47482 6.42225 2.42346 8.1 3.87013 9.0885C2.98711 9.06075 2.15586 8.808 1.42815 8.403C1.42815 8.4195 1.42815 8.44425 1.42815 8.4675C1.42815 11.1308 3.28534 13.3485 5.747 13.8533C5.29711 13.98 4.82169 14.0505 4.33169 14.0505C3.98388 14.0505 3.64482 14.01 3.31669 13.9493C4.00211 16.1258 5.99055 17.7165 8.34648 17.7638C6.50315 19.2337 4.18148 20.1143 1.65711 20.1143C1.22107 20.1143 0.794505 20.0888 0.373047 20.0363C2.75815 21.5895 5.59023 22.5 8.63013 22.5C18.5359 22.5 23.955 14.133 23.955 6.8745C23.955 6.63675 23.9477 6.39975 23.9368 6.16575C24.9941 5.39775 25.9055 4.42875 26.6252 3.32175Z" fill="#03A9F4"/>
</svg>
