<svg width="34" height="28" viewBox="0 0 34 28" fill="none" xmlns="http://www.w3.org/2000/svg">
<path d="M28.8012 2.98939C26.6004 1.95966 24.2471 1.21128 21.7868 0.785156C21.4846 1.33144 21.1316 2.0662 20.8882 2.6507C18.2729 2.25738 15.6816 2.25738 13.1143 2.6507C12.871 2.0662 12.51 1.33144 12.2051 0.785156C9.74214 1.21128 7.38615 1.9624 5.18527 2.99485C0.746077 9.70305 -0.457316 16.2446 0.144382 22.6933C3.08869 24.8921 5.94208 26.2277 8.74731 27.1018C9.43994 26.1485 10.0577 25.1352 10.5898 24.0672C9.57631 23.6821 8.60558 23.2069 7.68835 22.6551C7.93169 22.4748 8.16971 22.2864 8.39967 22.0924C13.9941 24.7091 20.0726 24.7091 25.6002 22.0924C25.8329 22.2864 26.0708 22.4748 26.3115 22.6551C25.3916 23.2096 24.4182 23.6848 23.4047 24.07C23.9368 25.1352 24.5519 26.1513 25.2472 27.1045C28.0551 26.2304 30.9112 24.8948 33.8555 22.6933C34.5615 15.2177 32.6494 8.73614 28.8012 2.98939ZM11.352 18.7274C9.67261 18.7274 8.29537 17.1596 8.29537 15.2504C8.29537 13.3412 9.6432 11.7707 11.352 11.7707C13.0608 11.7707 14.438 13.3385 14.4086 15.2504C14.4113 17.1596 13.0608 18.7274 11.352 18.7274ZM22.6479 18.7274C20.9685 18.7274 19.5912 17.1596 19.5912 15.2504C19.5912 13.3412 20.939 11.7707 22.6479 11.7707C24.3567 11.7707 25.7339 13.3385 25.7045 15.2504C25.7045 17.1596 24.3567 18.7274 22.6479 18.7274Z" fill="#5865F2"/>
</svg>
