<svg width="26" height="21" viewBox="0 0 26 21" fill="none" xmlns="http://www.w3.org/2000/svg">
<path d="M25.2568 16.8797C25.0008 18.233 23.9128 19.2643 22.5688 19.4577C20.4566 19.7797 16.9362 20.1663 12.9678 20.1663C9.0635 20.1663 5.54309 19.7797 3.36667 19.4577C2.02267 19.2643 0.93417 18.233 0.678671 16.8797C0.422587 15.3977 0.166504 13.2063 0.166504 10.4997C0.166504 7.79301 0.422587 5.60169 0.678671 4.11967C0.934754 2.76634 2.02267 1.73503 3.36667 1.5417C5.47892 1.21967 8.99934 0.833008 12.9678 0.833008C16.9362 0.833008 20.3924 1.21967 22.5688 1.5417C23.9128 1.73503 25.0013 2.76634 25.2568 4.11967C25.5129 5.60169 25.8332 7.79301 25.8332 10.4997C25.769 13.2063 25.5129 15.3977 25.2568 16.8797Z" fill="url(#paint0_linear_1513_21326)"/>
<defs>
<linearGradient id="paint0_linear_1513_21326" x1="4.72584" y1="1.9634" x2="23.7031" y2="20.2863" gradientUnits="userSpaceOnUse">
<stop stop-color="#F44F5A"/>
<stop offset="0.443" stop-color="#EE3D4A"/>
<stop offset="1" stop-color="#E52030"/>
</linearGradient>
</defs>
</svg>
