<svg width="54" height="54" viewBox="0 0 54 54" fill="none" xmlns="http://www.w3.org/2000/svg">
<path d="M49.6528 0.382812H4.39637C2.32212 0.382812 0.625 2.07993 0.625 4.15418V49.4106C0.625 51.4848 2.32212 53.1819 4.39637 53.1819H49.6528C51.727 53.1819 53.4241 51.4848 53.4241 49.4106V4.15418C53.4241 2.07993 51.727 0.382812 49.6528 0.382812ZM42.8907 23.7917L25.9196 40.7628C25.1841 41.5001 24.2187 41.8678 23.2532 41.8678C22.2877 41.8678 21.3223 41.5001 20.5868 40.7628L11.1584 31.3344C9.68571 29.8617 9.68571 27.4744 11.1584 26.0017C12.6293 24.529 15.0203 24.529 16.4911 26.0017L23.2532 32.7619L37.558 18.459C39.0288 16.9863 41.4199 16.9863 42.8907 18.459C44.3634 19.9317 44.3634 22.319 42.8907 23.7917Z" fill="white" fill-opacity="0.79"/>
</svg>
