<svg width="62" height="45" viewBox="0 0 62 45" fill="none" xmlns="http://www.w3.org/2000/svg">
<path d="M12.438 0.82862C13.3345 1.72511 13.3345 3.17862 12.438 4.07511C2.27773 14.2354 2.27773 30.7084 12.438 40.8687C13.3345 41.7652 13.3345 43.2187 12.438 44.1152C11.5415 45.0116 10.088 45.0116 9.1915 44.1152C-2.76175 32.1619 -2.76175 12.7819 9.1915 0.82862C10.088 -0.0678734 11.5415 -0.0678734 12.438 0.82862ZM52.478 0.82862C64.4313 12.7819 64.4313 32.1619 52.478 44.1152C51.5815 45.0116 50.128 45.0116 49.2315 44.1152C48.335 43.2187 48.335 41.7652 49.2315 40.8687C59.3918 30.7084 59.3918 14.2354 49.2315 4.07511C48.335 3.17862 48.335 1.72511 49.2315 0.82862C50.128 -0.0678734 51.5815 -0.0678734 52.478 0.82862ZM21.0953 9.48593C21.9918 10.3824 21.9918 11.8359 21.0953 12.7324C15.7163 18.1114 15.7163 26.8324 21.0953 32.2114C21.9918 33.1078 21.9918 34.5614 21.0953 35.4578C20.1988 36.3543 18.7453 36.3543 17.8488 35.4578C10.6769 28.2859 10.6769 16.6579 17.8488 9.48593C18.7453 8.58943 20.1988 8.58943 21.0953 9.48593ZM43.8207 9.48593C50.9927 16.6579 50.9927 28.2859 43.8207 35.4578C42.9242 36.3543 41.4707 36.3543 40.5742 35.4578C39.6777 34.5614 39.6777 33.1078 40.5742 32.2114C45.9532 26.8324 45.9532 18.1114 40.5742 12.7324C39.6777 11.8359 39.6777 10.3824 40.5742 9.48593C41.4707 8.58943 42.9242 8.58943 43.8207 9.48593ZM30.8348 17.8807C33.3704 17.8807 35.426 19.9362 35.426 22.4719C35.426 25.0076 33.3704 27.0631 30.8348 27.0631C28.2991 27.0631 26.2435 25.0076 26.2435 22.4719C26.2435 19.9362 28.2991 17.8807 30.8348 17.8807Z" fill="white"/>
</svg>
