<svg width="55" height="57" viewBox="0 0 55 57" fill="none" xmlns="http://www.w3.org/2000/svg">
<path d="M49.9656 43.8476V40.3409C49.9656 39.4248 49.2228 38.682 48.3066 38.682H29.1518V33.1361C37.4697 32.3014 43.9854 25.261 43.9854 16.7269C43.9854 7.63294 36.587 0.234375 27.4928 0.234375C18.3986 0.234375 11.0003 7.63294 11.0003 16.7269C11.0003 25.261 17.5159 32.3014 25.8339 33.1361V38.682H6.67899C5.76281 38.682 5.02003 39.4248 5.02003 40.3409V43.8476C2.1828 44.541 0.0703125 47.1035 0.0703125 50.1511C0.0703125 53.7294 2.98161 56.6407 6.55991 56.6407C10.1382 56.6407 13.0495 53.7294 13.0495 50.1511C13.0495 47.1893 11.0544 44.6863 8.33795 43.9111V41.9999H25.8337V43.8771C23.0565 44.6121 21.003 47.146 21.003 50.1509C21.003 53.7292 23.9143 56.6405 27.4926 56.6405C31.0709 56.6405 33.9822 53.7292 33.9822 50.1509C33.9822 47.1458 31.9288 44.6121 29.1516 43.8771V41.9999H46.6473V43.9111C43.931 44.6863 41.9357 47.1893 41.9357 50.1511C41.9357 53.7294 44.847 56.6407 48.4253 56.6407C52.0036 56.6407 54.9149 53.7294 54.9149 50.1511C54.9153 47.1035 52.8028 44.541 49.9656 43.8476ZM14.3182 16.7269C14.3182 9.46245 20.2281 3.55229 27.4928 3.55229C34.7575 3.55229 40.6674 9.46226 40.6674 16.7269C40.6674 23.9916 34.7575 29.9016 27.4928 29.9016C20.2281 29.9016 14.3182 23.9914 14.3182 16.7269ZM9.73159 50.1513C9.73159 51.9001 8.30871 53.323 6.55991 53.323C4.81112 53.323 3.38823 51.9001 3.38823 50.1513C3.38823 48.4025 4.81112 46.9796 6.55991 46.9796C8.30871 46.9796 9.73159 48.4025 9.73159 50.1513ZM30.6645 50.1513C30.6645 51.9001 29.2416 53.323 27.4928 53.323C25.744 53.323 24.3211 51.9001 24.3211 50.1513C24.3211 48.4025 25.744 46.9796 27.4928 46.9796C29.2416 46.9796 30.6645 48.4025 30.6645 50.1513ZM48.4257 53.3228C46.6769 53.3228 45.254 51.8999 45.254 50.1511C45.254 48.4023 46.6769 46.9794 48.4257 46.9794C50.1745 46.9794 51.5974 48.4023 51.5974 50.1511C51.5974 51.9001 50.1745 53.3228 48.4257 53.3228Z" fill="white"/>
</svg>
