<svg width="42" height="44" viewBox="0 0 42 44" fill="none" xmlns="http://www.w3.org/2000/svg">
<path d="M30.7529 3.80612C30.6412 3.6083 30.6343 3.50328 30.732 3.52282C30.8087 3.53992 31.018 3.67912 31.1831 3.99905C31.2832 4.2164 31.2878 4.36538 31.1948 4.33851C31.0366 4.26525 30.804 3.88915 30.7785 3.84763C30.7692 3.83542 30.7599 3.81833 30.7529 3.80612Z" fill="url(#paint0_linear_366_7039)"/>
<path d="M28.9104 1.80595C28.7987 1.72292 28.8011 1.70582 28.8034 1.69605C28.8592 1.65697 29.4802 1.91829 29.7802 2.14298C29.9128 2.25043 29.8988 2.28217 29.8639 2.2895C29.8244 2.29927 29.75 2.27241 29.7035 2.25776C29.3872 2.13321 29.0174 1.88166 28.9453 1.83281C28.9383 1.82548 28.922 1.81572 28.9104 1.80595Z" fill="url(#paint1_linear_366_7039)"/>
<path d="M31.9944 4.34598C31.9455 4.10908 32.0479 4.08954 32.1735 4.17502C32.213 4.20188 32.406 4.34598 32.4456 4.6366C32.4572 4.80267 32.4014 4.9492 32.2804 4.89059C32.1176 4.78069 32.0153 4.42413 32.0037 4.38505C31.999 4.37284 31.9967 4.35819 31.9944 4.34598Z" fill="url(#paint2_linear_366_7039)"/>
<path d="M31.0851 2.74637C31.0525 2.71462 31.0502 2.70729 31.0479 2.69997C31.1083 2.68287 31.8223 3.10537 31.9898 3.269C32.0061 3.28853 32.0433 3.33005 31.9944 3.33249C31.927 3.33494 31.7851 3.25435 31.7386 3.22748C31.42 3.04188 31.1409 2.79277 31.1083 2.7659C31.1013 2.76102 31.092 2.7537 31.0851 2.74637Z" fill="url(#paint3_linear_366_7039)"/>
<path d="M33.1948 5.10257C33.2831 4.85346 33.5715 5.03418 33.646 5.22468C33.6948 5.34923 33.6483 5.43714 33.6297 5.47378C33.5506 5.591 33.4041 5.6716 33.2831 5.591C33.1622 5.48355 33.1576 5.25642 33.1855 5.13187C33.1901 5.1221 33.1924 5.10989 33.1948 5.10257Z" fill="url(#paint4_linear_366_7039)"/>
<path d="M33.1968 4.07019C33.1968 4.06775 33.1968 4.06531 33.1968 4.06531C33.2084 4.06042 33.2479 4.0824 33.4317 4.2216L33.7782 4.4878L33.8085 4.51223C34.0154 4.67585 34.055 4.71737 34.0596 4.74179C34.0457 4.75889 33.8945 4.70028 33.6457 4.51223C33.3666 4.29243 33.2247 4.11659 33.2014 4.07996C33.1991 4.07752 33.1968 4.07263 33.1968 4.07019Z" fill="url(#paint5_linear_366_7039)"/>
<path d="M34.3053 6.02409C34.5844 5.88488 34.9426 6.19992 34.8705 6.36599C34.8426 6.43437 34.7519 6.46368 34.71 6.4759C34.5844 6.50764 34.3077 6.53451 34.1658 6.4124C34.0658 6.29761 34.1425 6.13154 34.2751 6.03874C34.2844 6.0363 34.296 6.02897 34.3053 6.02409Z" fill="url(#paint6_linear_366_7039)"/>
<path d="M35.1396 5.68213C35.1954 5.709 35.3303 5.83843 35.4675 5.97275L35.7862 6.29268C35.9536 6.46363 35.9722 6.49049 35.9792 6.51003C35.9699 6.51492 35.9699 6.51492 35.942 6.50027C35.9397 6.49783 35.6722 6.33908 35.3722 6.04113C35.1187 5.78226 35.0977 5.67969 35.114 5.6748C35.1164 5.6748 35.121 5.6748 35.1233 5.6748C35.1303 5.67969 35.1373 5.68213 35.1396 5.68213Z" fill="url(#paint7_linear_366_7039)"/>
<path d="M35.2806 7.07617C35.6876 7.10547 36.055 7.4596 35.9457 7.5695C35.8853 7.63055 35.6969 7.60124 35.6178 7.58659C35.541 7.57193 35.1457 7.4889 34.948 7.33993C34.9294 7.31306 34.9084 7.28864 34.8898 7.26178C34.8712 7.15432 35.0108 7.07861 35.2294 7.07373C35.2457 7.07373 35.2643 7.07373 35.2806 7.07617Z" fill="url(#paint8_linear_366_7039)"/>
<path d="M36.821 7.49612C37.0606 7.69393 37.7002 8.51695 37.6723 8.56335C37.6513 8.56091 37.6257 8.54382 37.542 8.47055C37.4327 8.3753 37.0629 8.04317 36.8164 7.72813C36.6071 7.43995 36.6908 7.43018 36.7001 7.42773C36.7257 7.42773 36.7559 7.44728 36.7885 7.46926C36.8001 7.47902 36.8117 7.48879 36.821 7.49612Z" fill="url(#paint9_linear_366_7039)"/>
<path d="M36.0625 8.19717C36.602 8.40476 37.0091 8.87366 36.8416 8.93716C36.7369 8.97623 36.4485 8.84192 36.3113 8.77842C36.0346 8.6441 35.7694 8.49269 35.5834 8.36325C35.5415 8.28021 35.4973 8.19718 35.4531 8.11658C35.5206 8.0946 35.6787 8.07019 35.9927 8.17276C36.0136 8.18008 36.0415 8.18985 36.0625 8.19717Z" fill="url(#paint10_linear_366_7039)"/>
<path d="M38.186 9.43981C38.5395 9.80614 39.0791 10.6902 39.0512 10.8148C39.0209 10.8343 38.9488 10.7733 38.7581 10.5706C38.5232 10.3141 38.1 9.83057 37.9023 9.47401C37.7627 9.19071 37.8906 9.2249 37.9348 9.24199C38.0046 9.2713 38.086 9.34457 38.1372 9.39097C38.1511 9.40318 38.1721 9.42272 38.186 9.43981Z" fill="url(#paint11_linear_366_7039)"/>
<path d="M36.6272 9.36974C37.2435 9.76049 37.6273 10.2978 37.4831 10.3662C37.3622 10.4223 36.9179 10.1048 36.7296 9.97052C36.4202 9.74339 36.197 9.56755 35.9597 9.35997C35.9434 9.29647 35.9248 9.23053 35.9062 9.16703C35.8923 9.12551 35.8807 9.08156 35.8667 9.04004C36.0737 9.08156 36.2574 9.15727 36.5388 9.31601C36.5644 9.3331 36.5993 9.35264 36.6272 9.36974Z" fill="url(#paint12_linear_366_7039)"/>
<path d="M39.1674 11.4772C39.6581 12.0926 40.1163 13.1721 39.9163 13.1306C39.8186 13.111 39.5744 12.7935 39.4721 12.6592C39.2535 12.3686 38.7348 11.6482 38.5929 11.2305C38.5348 10.9936 38.6534 11.0229 38.7627 11.0864C38.8953 11.1646 39.0232 11.3087 39.1 11.3966C39.1209 11.421 39.1488 11.4528 39.1674 11.4772Z" fill="url(#paint13_linear_366_7039)"/>
<path d="M41.0218 15.199L41.3358 16.3419C41.3358 16.3468 41.3381 16.3542 41.3405 16.359C41.2753 16.1905 41.2219 16.0196 41.166 15.8486C40.5846 14.1464 40.5846 14.1464 40.5241 13.9461C40.4404 13.6506 40.4497 13.636 40.459 13.6213C40.4823 13.6458 40.5102 13.7019 40.5893 13.9095C40.7195 14.2978 40.9079 14.8058 41.0218 15.199Z" fill="url(#paint14_linear_366_7039)"/>
<path d="M36.9087 10.5048C37.5716 11.0763 37.9181 11.6844 37.753 11.7284C37.5948 11.7699 37.0506 11.2521 36.818 11.0299C36.518 10.7393 36.2994 10.5146 36.0622 10.2582C36.0668 10.1507 36.0645 10.0384 36.0552 9.92114C36.3157 10.0579 36.511 10.1898 36.8041 10.4194C36.8366 10.4438 36.8785 10.478 36.9087 10.5048Z" fill="url(#paint15_linear_366_7039)"/>
<path d="M39.6682 13.4721C40.1775 14.2439 40.4612 15.2378 40.2356 15.2256C40.0775 15.2183 39.7449 14.6883 39.6193 14.4905C39.3984 14.1291 38.8844 13.2523 38.8472 12.8591C38.8658 12.5709 39.2239 12.8958 39.4449 13.1668C39.4914 13.223 39.5495 13.3036 39.5937 13.3622C39.617 13.3964 39.6449 13.4379 39.6682 13.4721Z" fill="url(#paint16_linear_366_7039)"/>
<path d="M41.3527 16.8426C41.6411 17.7877 41.8015 19.1383 41.6597 19.1089C41.5736 19.0919 41.4108 18.5546 41.348 18.3519C41.2248 17.9294 40.9317 16.8817 40.9038 16.2931C40.9061 16.2027 40.9061 15.9927 41.0224 16.1026C41.141 16.2149 41.2666 16.5788 41.3131 16.7156C41.3224 16.7547 41.3387 16.806 41.3527 16.8426Z" fill="url(#paint17_linear_366_7039)"/>
<path d="M41.9576 23.0631C41.9646 22.9214 41.9646 22.6479 41.9623 22.3719C41.9529 21.6027 41.9273 20.8334 41.9086 20.0641C41.904 19.8003 41.904 19.771 41.9063 19.7466C41.9063 19.749 41.9063 19.7515 41.9086 19.7539C42.0182 21.7883 42.0229 21.8664 41.9576 23.0631Z" fill="url(#paint18_linear_366_7039)"/>
<path d="M36.8819 11.4798C37.5819 12.2564 37.8587 12.9475 37.6214 12.9084C37.3935 12.8718 36.8121 12.1587 36.5935 11.89C36.319 11.5457 36.1376 11.3088 35.9004 10.9864C35.9446 10.8863 35.9795 10.7813 36.0074 10.6714C36.2958 10.8961 36.4911 11.0695 36.7725 11.3601C36.8051 11.3992 36.8493 11.4456 36.8819 11.4798Z" fill="url(#paint19_linear_366_7039)"/>
<path d="M39.6146 15.182C40.1054 16.0954 40.2356 17.0405 39.9542 16.9917C39.796 16.9648 39.5518 16.6254 39.2262 15.9831C39.0681 15.6558 38.5564 14.5642 38.6285 14.2052C38.7355 14.0024 39.1355 14.3712 39.5402 15.0477C39.5635 15.0892 39.5937 15.1405 39.6146 15.182Z" fill="url(#paint20_linear_366_7039)"/>
<path d="M41.2959 19.1605C41.5936 20.3597 41.4843 21.6369 41.1913 21.4269C41.0029 21.2926 40.8378 20.6259 40.7843 20.4061C40.7005 20.0324 40.4354 18.7625 40.5889 18.1959C40.7424 17.8344 41.0169 18.3131 41.1657 18.7234C41.1959 18.8064 41.2308 18.9212 41.2564 19.0067C41.268 19.0531 41.2843 19.1141 41.2959 19.1605Z" fill="url(#paint21_linear_366_7039)"/>
<path d="M41.8611 23.2852C41.8425 24.4892 41.5541 26.0156 41.3727 25.8763C41.2634 25.7933 41.268 25.1071 41.2704 24.8848C41.2866 24.0838 41.368 23.019 41.5471 22.4353C41.5843 22.3376 41.6704 22.108 41.7611 22.2863C41.8518 22.4695 41.8611 22.9237 41.8634 23.1215C41.8611 23.1704 41.8611 23.2363 41.8611 23.2852Z" fill="url(#paint22_linear_366_7039)"/>
<path d="M41.1512 27.8713C40.9256 28.5649 40.6256 29.4856 40.3651 30.1646C40.3605 30.1719 40.3582 30.1841 40.3535 30.1914C40.3605 30.1304 40.3628 30.1011 40.6047 29.2658C41.1559 27.3658 41.328 26.8432 41.4024 26.6209C41.4629 26.4451 41.4885 26.3767 41.5141 26.3254C41.521 26.3621 41.521 26.3621 41.5071 26.4256L41.1512 27.8713Z" fill="url(#paint23_linear_366_7039)"/>
<path d="M36.5647 12.2684C37.2252 13.1989 37.3764 13.8583 37.1554 13.8314C36.8903 13.7996 36.2902 12.8423 36.0925 12.5297C35.9088 12.2318 35.746 11.9607 35.5088 11.5284C35.5925 11.4551 35.6669 11.3721 35.7344 11.2817C36.0228 11.5748 36.2065 11.7873 36.4623 12.1243C36.4926 12.1707 36.5344 12.2269 36.5647 12.2684Z" fill="url(#paint24_linear_366_7039)"/>
<path d="M39.0715 16.5349C39.5459 17.6632 39.4971 18.6401 39.1064 18.4496C38.8831 18.3397 38.6203 17.8928 38.3226 17.1162C38.1854 16.7327 37.7481 15.4604 37.9435 15.1502C38.1435 15.0037 38.597 15.5287 38.9994 16.3713C39.0203 16.4201 39.0506 16.4861 39.0715 16.5349Z" fill="url(#paint25_linear_366_7039)"/>
<path d="M40.5654 21.0283C40.8026 22.3666 40.4561 23.5194 40.0514 23.2605C39.8421 23.1286 39.6723 22.6792 39.5444 21.927C39.4235 21.0698 39.3932 20.0197 39.6723 19.6436C39.9514 19.3994 40.3049 19.8951 40.5282 20.8452C40.5398 20.9013 40.5561 20.9721 40.5654 21.0283Z" fill="url(#paint26_linear_366_7039)"/>
<path d="M40.986 25.5442C40.907 26.9069 40.279 28.3429 39.9232 27.9839C39.6976 27.7568 39.7348 26.9826 39.7464 26.7262C39.8115 25.8543 40.0232 24.748 40.4162 24.2571C40.7651 23.9274 40.9977 24.3695 40.993 25.3561C40.9907 25.4123 40.9884 25.488 40.986 25.5442Z" fill="url(#paint27_linear_366_7039)"/>
<path d="M40.2832 29.9039C39.8297 31.3179 38.9087 32.7954 38.7436 32.3754C38.6575 32.1531 38.8483 31.5035 38.9134 31.291C39.1808 30.4607 39.6413 29.3666 40.1251 28.7951C40.3693 28.5484 40.4926 28.5875 40.4926 28.9074C40.4926 29.1736 40.3972 29.5204 40.3414 29.728C40.3228 29.7793 40.2995 29.8501 40.2832 29.9039Z" fill="url(#paint28_linear_366_7039)"/>
<path d="M37.4739 35.2327L37.0111 35.8188C36.7064 36.1852 36.5715 36.3244 36.4994 36.3464C36.4855 36.3024 36.4669 36.2414 36.9995 35.4037C37.4925 34.6442 38.2088 33.6209 38.7438 33.0176C38.888 32.8638 38.9368 32.8223 38.9903 32.8052C39.0112 32.8418 39.0461 32.9029 38.5786 33.6502C38.2461 34.1264 37.8274 34.776 37.4739 35.2327Z" fill="url(#paint29_linear_366_7039)"/>
<path d="M35.0426 37.9088L33.8472 38.9394C33.9448 38.8612 34.0402 38.7807 34.1356 38.7025C35.0659 37.9088 35.8171 37.159 36.1148 36.8416L35.0426 37.9088Z" fill="url(#paint30_linear_366_7039)"/>
<path d="M35.9855 12.8402C36.5716 13.927 36.5949 14.5913 36.3274 14.4911C36.1065 14.4105 35.7739 13.883 35.3343 12.9257C35.1901 12.6033 35.0785 12.3396 34.8994 11.8731C35.025 11.8316 35.1436 11.7779 35.2506 11.7144C35.5157 12.0636 35.6716 12.298 35.8925 12.6741C35.9204 12.7254 35.9576 12.7914 35.9855 12.8402Z" fill="url(#paint31_linear_366_7039)"/>
<path d="M38.0702 17.5272C38.433 18.741 38.226 19.6348 37.8027 19.4419C37.6353 19.3662 37.305 19.0511 36.9841 17.8032C36.9166 17.5052 36.5887 16.013 36.9236 15.7761C37.2004 15.7126 37.6678 16.3842 38.0097 17.3416C38.0306 17.3977 38.0539 17.4735 38.0702 17.5272Z" fill="url(#paint32_linear_366_7039)"/>
<path d="M39.1956 22.3913C39.3258 23.8542 38.7258 24.8384 38.2211 24.4013C38.0397 24.2425 37.8071 23.8469 37.728 22.848C37.6885 21.9518 37.8025 20.9016 38.2304 20.6427C38.6234 20.5231 39.0118 21.1629 39.1723 22.1984C39.1793 22.2546 39.1886 22.3327 39.1956 22.3913Z" fill="url(#paint33_linear_366_7039)"/>
<path d="M39.3589 27.1955C39.1752 28.7024 38.217 29.9455 37.7053 29.3422C37.3797 28.9588 37.4704 28.1162 37.5006 27.8378C37.6379 26.9147 38.003 25.8059 38.61 25.4689C39.1217 25.2931 39.431 25.9036 39.3799 26.9904C39.3729 27.0514 39.3682 27.1345 39.3589 27.1955Z" fill="url(#paint34_linear_366_7039)"/>
<path d="M38.4586 31.7598C37.9074 33.2618 36.6329 34.4585 36.291 33.7918C36.1096 33.4352 36.3306 32.7489 36.4027 32.5243C36.8027 31.4497 37.4469 30.5534 38.0493 30.2384C38.6331 30.021 38.8191 30.5436 38.5214 31.5694C38.5052 31.628 38.4796 31.7012 38.4586 31.7598Z" fill="url(#paint35_linear_366_7039)"/>
<path d="M36.4992 35.848C35.5503 37.2132 34.0153 38.3195 33.9735 37.665C33.9549 37.3744 34.2572 36.8909 34.3851 36.6857C35.0154 35.7552 35.848 34.9396 36.5062 34.6099C37.1504 34.3534 37.0063 34.8736 36.9155 35.1105C36.8318 35.323 36.7248 35.4988 36.6085 35.6844C36.576 35.7308 36.5341 35.7992 36.4992 35.848Z" fill="url(#paint36_linear_366_7039)"/>
<path d="M33.5443 39.1403C32.4768 40.0098 30.9767 40.8792 30.9558 40.6423C30.9442 40.5128 31.3954 40.1172 31.5442 39.9853C32.3419 39.3137 33.2792 38.6788 33.9281 38.3686C34.07 38.31 34.3677 38.183 34.3049 38.3613C34.2421 38.5371 33.8374 38.8888 33.6839 39.0207C33.642 39.0597 33.5885 39.1061 33.5443 39.1403Z" fill="url(#paint37_linear_366_7039)"/>
<path d="M30.6442 41.0328C28.772 41.9242 28.7371 41.9413 27.6138 42.3198C27.7882 42.2587 28.0045 42.1684 28.2487 42.0682C28.4766 41.973 29.1674 41.6824 30.5861 41.045C30.6814 41.001 30.7768 40.9619 30.8698 40.9155L30.6442 41.0328Z" fill="url(#paint38_linear_366_7039)"/>
<path d="M35.1583 13.1669C35.6002 14.3489 35.4769 14.9717 35.1792 14.8007C35.0025 14.6982 34.7164 14.3123 34.3559 13.0521C34.2652 12.7175 34.2001 12.4489 34.1094 11.9971C34.2745 11.9971 34.4303 11.9824 34.5792 11.9556C34.7955 12.3341 34.9257 12.5954 35.0908 12.9886C35.1094 13.0423 35.1374 13.1132 35.1583 13.1669Z" fill="url(#paint39_linear_366_7039)"/>
<path d="M36.6513 18.0954C36.8746 19.4117 36.4583 20.225 35.9699 19.8953C35.8094 19.7878 35.421 19.3873 35.2582 18.0148C35.2326 17.7071 35.121 16.1636 35.5861 16.0415C35.9373 16.0684 36.3699 16.8499 36.6141 17.9C36.6234 17.9562 36.6397 18.0368 36.6513 18.0954Z" fill="url(#paint40_linear_366_7039)"/>
<path d="M37.2635 23.1733C37.2403 24.7192 36.3658 25.5251 35.789 24.9024C35.5774 24.6728 35.3332 24.1819 35.3634 23.1318C35.4285 22.255 35.7123 21.1878 36.2937 21.0706C36.8007 21.0852 37.1891 21.8472 37.2589 22.9681C37.2612 23.0268 37.2635 23.1098 37.2635 23.1733Z" fill="url(#paint41_linear_366_7039)"/>
<path d="M37.0376 28.1572C36.7027 29.8057 35.3096 30.7703 34.7421 29.7446C34.4351 29.1927 34.5816 28.4112 34.6281 28.1572C34.9142 26.98 35.5282 26.1473 36.191 26.0325C36.8562 26.0325 37.2004 26.7847 37.0725 27.9472C37.0632 28.0082 37.0515 28.0937 37.0376 28.1572Z" fill="url(#paint42_linear_366_7039)"/>
<path d="M35.8581 32.837C35.172 34.4415 33.4463 35.2816 33.0626 34.1973C32.8905 33.7113 33.1044 33.1276 33.1951 32.8785C33.6696 31.799 34.4813 31.0224 35.2627 30.9027C36.0116 30.8905 36.2767 31.5719 35.9349 32.6416C35.9116 32.7002 35.8814 32.7784 35.8581 32.837Z" fill="url(#paint43_linear_366_7039)"/>
<path d="M33.7604 36.9765C32.7115 38.3979 30.7463 39.0817 30.6695 38.0535C30.6416 37.6701 30.9091 37.2403 31.023 37.0571C31.6766 36.134 32.6464 35.4624 33.4953 35.3476C34.286 35.3207 34.4349 35.8971 33.8767 36.8129C33.8395 36.8617 33.7953 36.9277 33.7604 36.9765Z" fill="url(#paint44_linear_366_7039)"/>
<path d="M30.8511 40.2419C29.6231 41.209 27.7206 41.695 27.7695 41.0307C27.7858 40.784 28.0974 40.491 28.2276 40.3664C28.9975 39.7095 30.0441 39.2186 30.893 39.116C31.9651 39.0647 31.3 39.8218 31.2209 39.9073C31.1558 39.9781 31.0604 40.066 30.9883 40.1295C30.9488 40.1613 30.893 40.2077 30.8511 40.2419Z" fill="url(#paint45_linear_366_7039)"/>
<path d="M27.441 42.2904C26.241 42.7617 24.5036 43.0548 24.6664 42.7617C24.7292 42.6518 25.0455 42.5028 25.1827 42.4393C25.9735 42.0974 26.9666 41.8263 27.7155 41.7458C27.8574 41.736 28.2923 41.7091 28.1737 41.885C28.0876 42.012 27.7364 42.1683 27.5876 42.2342C27.541 42.2488 27.4852 42.2733 27.441 42.2904Z" fill="url(#paint46_linear_366_7039)"/>
<path d="M22.3949 43.2847L21.5391 43.3067C21.667 43.3018 21.7507 43.2994 21.9903 43.2847C22.7229 43.231 23.4555 43.1577 24.1881 43.0918C24.2997 43.082 24.409 43.0698 24.5207 43.0674C23.8857 43.1431 23.0368 43.2554 22.3949 43.2847Z" fill="url(#paint47_linear_366_7039)"/>
<path d="M34.1212 13.2233C34.3724 14.4713 34.0817 15.0061 33.7607 14.7546C33.6003 14.63 33.3119 14.2198 33.1816 12.8814C33.1584 12.5664 33.1467 12.3246 33.156 11.8752C33.3584 11.9241 33.5537 11.9583 33.7398 11.9754C33.9003 12.3857 33.984 12.6445 34.0817 13.0353C34.091 13.0939 34.1096 13.1672 34.1212 13.2233Z" fill="url(#paint48_linear_366_7039)"/>
<path d="M34.8529 18.1982C34.8855 19.5731 34.2483 20.213 33.7203 19.7514C33.5435 19.5951 33.1389 19.0847 33.1947 17.7097C33.2621 16.8696 33.5063 15.8952 33.9692 15.9098C34.3808 16.0368 34.739 16.894 34.8413 17.993C34.846 18.0541 34.8506 18.1371 34.8529 18.1982Z" fill="url(#paint49_linear_366_7039)"/>
<path d="M34.8235 23.3145C34.6002 24.9287 33.4629 25.4831 32.8303 24.6552C32.5977 24.3499 32.3559 23.7638 32.528 22.7015C32.7815 21.5561 33.3327 20.8454 33.9374 20.8918C34.5374 21.053 34.9026 21.9419 34.8467 23.102C34.8398 23.1679 34.8328 23.251 34.8235 23.3145Z" fill="url(#paint50_linear_366_7039)"/>
<path d="M34.0705 28.3406C33.5635 29.9988 31.8843 30.5923 31.2633 29.3297C30.9307 28.6532 31.1517 27.879 31.2238 27.625C31.6378 26.4821 32.4239 25.7958 33.2263 25.874C34.0031 26.0693 34.3566 26.9534 34.131 28.1281C34.11 28.194 34.0891 28.2795 34.0705 28.3406Z" fill="url(#paint51_linear_366_7039)"/>
<path d="M32.5625 33.0469C31.7508 34.6466 29.6832 35.0666 29.2111 33.7308C28.9971 33.1226 29.2483 32.5341 29.3576 32.2825C29.9181 31.2153 30.8949 30.595 31.8438 30.7C32.7509 30.9149 33.0625 31.7379 32.6532 32.8516C32.6253 32.9102 32.5927 32.9883 32.5625 33.0469Z" fill="url(#paint52_linear_366_7039)"/>
<path d="M30.3029 37.1912C29.1377 38.6688 26.7352 38.8031 26.684 37.3939C26.6677 36.9763 26.8793 36.6368 27.0049 36.4366C27.6864 35.5281 28.7841 35.0226 29.8051 35.1471C30.7633 35.362 31.0006 36.0849 30.4238 37.03C30.3866 37.0764 30.3424 37.1424 30.3029 37.1912Z" fill="url(#paint53_linear_366_7039)"/>
<path d="M27.447 40.4443C26.1237 41.4724 23.7212 41.3918 23.9259 40.3246C23.9724 40.0755 24.1608 39.8777 24.2747 39.7605C25.012 39.1084 26.1446 38.7762 27.161 38.9106C28.0936 39.1108 28.2587 39.6676 27.5819 40.3319C27.5401 40.3661 27.4866 40.4125 27.447 40.4443Z" fill="url(#paint54_linear_366_7039)"/>
<path d="M24.2883 42.4592C22.9719 42.9794 20.8927 42.8109 21.1555 42.2077C21.216 42.0685 21.3997 41.961 21.5067 41.8975C22.2161 41.5507 23.2673 41.4115 24.1836 41.5459C25.3465 41.7803 24.7186 42.2297 24.6418 42.2785C24.579 42.3225 24.486 42.3664 24.4185 42.4006C24.3836 42.4177 24.3302 42.4421 24.2883 42.4592Z" fill="url(#paint55_linear_366_7039)"/>
<path d="M20.9852 43.2459C20.0851 43.2898 18.3501 43.0993 18.5059 42.9333C18.5501 42.8869 18.7385 42.8624 18.8525 42.8478C19.5013 42.7843 20.3665 42.8136 21.0596 42.9235C21.4782 43.0016 21.641 43.0774 21.5434 43.1482C21.4666 43.2044 21.2317 43.2263 21.1038 43.2385C21.0689 43.241 21.0201 43.2434 20.9852 43.2459Z" fill="url(#paint56_linear_366_7039)"/>
<path d="M32.8983 12.9839C32.9006 14.2147 32.4471 14.6372 32.1424 14.3198C31.9866 14.1586 31.747 13.6946 31.9122 12.4222C31.9587 12.1291 32.0029 11.9069 32.1145 11.5137C32.3285 11.6114 32.5424 11.6944 32.7587 11.7628C32.8425 12.1731 32.875 12.4246 32.8936 12.7983C32.896 12.8544 32.8983 12.9301 32.8983 12.9839Z" fill="url(#paint57_linear_366_7039)"/>
<path d="M32.7344 17.7855C32.5205 19.1922 31.5995 19.6489 31.1157 18.9114C30.9111 18.5988 30.718 17.9955 30.9762 16.8966C31.1995 16.1053 31.646 15.2285 32.16 15.3604C32.5926 15.5851 32.8391 16.5009 32.76 17.5853C32.7507 17.6439 32.7438 17.7245 32.7344 17.7855Z" fill="url(#paint58_linear_366_7039)"/>
<path d="M31.948 22.763C31.4619 24.4237 29.9967 24.6386 29.4734 23.4859C29.1245 22.7141 29.399 21.8643 29.4897 21.5858C29.8339 20.7115 30.4851 19.8617 31.2805 20.0937C31.9247 20.4063 32.2155 21.3954 32.0015 22.5554C31.9852 22.6165 31.9666 22.6995 31.948 22.763Z" fill="url(#paint59_linear_366_7039)"/>
<path d="M30.5738 27.6737C29.8784 29.2661 27.9666 29.4907 27.427 28.045C27.1386 27.2732 27.448 26.5186 27.5503 26.2719C28.0992 25.1803 29.0039 24.6479 29.8551 24.9116C30.6877 25.2975 30.9994 26.3012 30.6528 27.4686C30.6296 27.5297 30.5994 27.6127 30.5738 27.6737Z" fill="url(#paint60_linear_366_7039)"/>
<path d="M28.6475 32.3017C27.6591 33.9282 25.2612 33.8012 24.9845 32.1063C24.8845 31.4884 25.1426 30.978 25.2543 30.7607C25.9055 29.7178 26.9404 29.2709 27.9521 29.5982C28.9127 30.0329 29.2267 31.0195 28.7522 32.1088C28.722 32.1674 28.6824 32.2455 28.6475 32.3017Z" fill="url(#paint61_linear_366_7039)"/>
<path d="M26.2132 36.4076C25.0038 37.8387 22.4083 37.4724 22.3524 35.863C22.3362 35.3843 22.5478 35.0571 22.6874 34.8373C23.4037 33.9263 24.5247 33.5844 25.6132 33.9459C26.6365 34.4001 26.9202 35.3037 26.3365 36.2464C26.3016 36.2953 26.2527 36.3612 26.2132 36.4076Z" fill="url(#paint62_linear_366_7039)"/>
<path d="M23.4126 39.6627C22.1544 40.6591 19.6054 40.0779 19.7263 38.8226C19.7542 38.5295 19.9287 38.3219 20.0333 38.1998C20.7357 37.5307 21.8381 37.3426 22.9103 37.7089C23.9173 38.1461 24.1639 38.869 23.5382 39.5528C23.501 39.587 23.4522 39.6334 23.4126 39.6627Z" fill="url(#paint63_linear_366_7039)"/>
<path d="M20.5639 41.7242C19.3475 42.2566 17.038 41.5728 17.3148 40.762C17.3613 40.6203 17.459 40.5446 17.5637 40.4616C18.1777 40.0855 19.1963 40.061 20.1592 40.403C21.0755 40.7888 21.2825 41.2846 20.6825 41.668C20.6476 41.6827 20.6011 41.7071 20.5639 41.7242Z" fill="url(#paint64_linear_366_7039)"/>
<path d="M17.7474 42.5737C16.8729 42.6397 15.017 42.0951 15.2565 41.7434C15.2937 41.6872 15.3728 41.6652 15.4542 41.6384C15.9519 41.5358 16.7543 41.6433 17.4962 41.9143C18.3823 42.2758 18.1242 42.4638 18.0637 42.5005C18.0055 42.5322 17.9125 42.5493 17.8474 42.564C17.8172 42.5664 17.7776 42.5737 17.7474 42.5737Z" fill="url(#paint65_linear_366_7039)"/>
<path d="M14.1008 41.8729L13.4775 41.6091C13.5264 41.6287 13.5775 41.6458 13.6287 41.6629C14.8125 42.0634 14.8125 42.0634 15.1032 42.1733C15.5288 42.3393 15.5335 42.3638 15.5381 42.376C15.5219 42.376 15.5033 42.3735 15.4079 42.3442C15.0149 42.2075 14.4869 42.0316 14.1008 41.8729Z" fill="url(#paint66_linear_366_7039)"/>
<path d="M31.6066 12.4563C31.3229 13.6408 30.7182 13.9021 30.4856 13.4381C30.3856 13.2354 30.2786 12.7469 30.6879 11.7334C30.8205 11.433 30.9205 11.2474 31.1043 10.9641C31.3112 11.096 31.5206 11.2181 31.7322 11.3304C31.7229 11.7188 31.702 11.9532 31.6415 12.2902C31.6322 12.3391 31.6182 12.4074 31.6066 12.4563Z" fill="url(#paint67_linear_366_7039)"/>
<path d="M30.5 16.8794C30.0209 18.1957 29.0068 18.4253 28.6278 17.6291C28.4649 17.2872 28.3673 16.6693 28.8254 15.6827C29.1976 14.9793 29.8185 14.2418 30.3418 14.4763C30.7442 14.7693 30.8349 15.6827 30.5604 16.6938C30.5442 16.7499 30.5209 16.8256 30.5 16.8794Z" fill="url(#paint68_linear_366_7039)"/>
<path d="M28.9156 21.5461C28.1807 23.0969 26.6318 23.0383 26.2503 21.8001C25.9922 20.9575 26.3969 20.1687 26.5294 19.9098C27.1365 18.9036 27.9551 18.4567 28.6156 18.7766C29.2343 19.204 29.3878 20.2371 28.9994 21.3507C28.9761 21.4069 28.9436 21.4875 28.9156 21.5461Z" fill="url(#paint69_linear_366_7039)"/>
<path d="M26.9061 26.2039C26.0107 27.7352 24.071 27.6302 23.6617 26.0305C23.4477 25.188 23.8454 24.4749 23.9756 24.2404C24.6547 23.222 25.6409 22.841 26.4874 23.2635C27.2875 23.8008 27.4922 24.8778 27.0107 26.0086C26.9805 26.0672 26.941 26.1478 26.9061 26.2039Z" fill="url(#paint70_linear_366_7039)"/>
<path d="M24.5579 30.6631C23.4485 32.2115 21.0437 31.6864 20.8856 29.8597C20.8274 29.1905 21.1158 28.7143 21.253 28.4847C21.9763 27.5054 23.0788 27.1952 24.0625 27.6983C24.9928 28.3113 25.2347 29.403 24.6789 30.48C24.6417 30.5337 24.5975 30.6094 24.5579 30.6631Z" fill="url(#paint71_linear_366_7039)"/>
<path d="M21.9147 34.6829C20.6891 36.0652 18.147 35.2861 18.1377 33.5277C18.1354 33.0026 18.3517 32.6729 18.4959 32.458C19.2308 31.5642 20.3472 31.3541 21.41 31.9085C22.3985 32.5508 22.6473 33.5766 22.0426 34.5241C22.0031 34.5705 21.9543 34.6365 21.9147 34.6829Z" fill="url(#paint72_linear_366_7039)"/>
<path d="M19.1781 37.9555C17.9734 38.9739 15.543 38.0092 15.6174 36.539C15.6337 36.2044 15.7965 35.987 15.8918 35.8576C16.5384 35.1811 17.6222 35.0956 18.6502 35.6427C19.627 36.2655 19.8805 37.13 19.2991 37.8431C19.2618 37.8773 19.2153 37.9262 19.1781 37.9555Z" fill="url(#paint73_linear_366_7039)"/>
<path d="M16.6459 40.1268C15.5203 40.7447 13.2503 39.5944 13.5713 38.5687C13.6085 38.4515 13.6783 38.3733 13.7364 38.3074C14.2504 37.8873 15.1807 37.9411 16.1087 38.4466C16.9948 39.001 17.2437 39.6359 16.7459 40.0633C16.718 40.0829 16.6785 40.1097 16.6459 40.1268Z" fill="url(#paint74_linear_366_7039)"/>
<path d="M14.3986 41.1868C13.5358 41.3455 11.717 40.3344 12.0287 39.8655C12.0473 39.8362 12.0845 39.8094 12.1124 39.7898C12.4799 39.6164 13.1915 39.7703 13.9288 40.1781C14.6382 40.6128 14.8591 41.0085 14.4754 41.1672C14.4521 41.1721 14.4219 41.1819 14.3986 41.1868Z" fill="url(#paint75_linear_366_7039)"/>
<path d="M12.5404 41.1451C12.4055 41.0962 12.1939 40.9912 11.9102 40.8374L11.2729 40.471C11.0427 40.3318 10.9961 40.2952 10.9775 40.2634C10.9799 40.2586 10.9845 40.2537 10.9868 40.2512C11.0008 40.2512 11.0171 40.2512 11.0287 40.2537C11.1683 40.2854 11.5939 40.4319 12.1939 40.7763C12.8195 41.1475 12.6846 41.1793 12.6823 41.1793C12.6614 41.1817 12.6172 41.1695 12.587 41.1622C12.5753 41.1573 12.5567 41.15 12.5404 41.1451Z" fill="url(#paint76_linear_366_7039)"/>
<path d="M30.3588 11.7065C29.7727 12.7762 29.1029 12.8544 28.9517 12.383C28.8843 12.1705 28.8703 11.687 29.5332 10.8542C29.7378 10.6149 29.882 10.4757 30.1495 10.251C30.3425 10.4146 30.5402 10.5733 30.7449 10.7199C30.6425 11.0716 30.5704 11.2694 30.4309 11.56C30.4123 11.6064 30.3821 11.665 30.3588 11.7065Z" fill="url(#paint77_linear_366_7039)"/>
<path d="M28.3465 15.5922C27.5651 16.8377 26.3906 16.8011 26.2138 15.8388C26.1487 15.4896 26.1975 14.9083 26.7976 14.1293C27.3604 13.4797 28.1465 12.9619 28.6303 13.2672C29.0559 13.6775 28.8442 14.6446 28.4442 15.4212C28.414 15.4749 28.3768 15.5433 28.3465 15.5922Z" fill="url(#paint78_linear_366_7039)"/>
<path d="M25.9725 19.7831C25.0073 21.1653 23.4421 20.8576 23.2328 19.595C23.0886 18.728 23.6142 18.0296 23.7863 17.7975C24.5491 16.9184 25.4492 16.6229 26.0795 17.0429C26.6493 17.5631 26.6539 18.5693 26.0888 19.6048C26.0539 19.6585 26.0097 19.7318 25.9725 19.7831Z" fill="url(#paint79_linear_366_7039)"/>
<path d="M23.3554 24.0864C22.2809 25.4907 20.3435 25.0999 20.1179 23.4319C19.997 22.5454 20.4784 21.886 20.6366 21.6686C21.4413 20.7431 22.4809 20.5037 23.2879 21.0581C24.0275 21.715 24.1042 22.8336 23.4856 23.9033C23.4437 23.9594 23.3949 24.0327 23.3554 24.0864Z" fill="url(#paint80_linear_366_7039)"/>
<path d="M20.5734 28.2893C19.4036 29.6838 17.2314 29.0049 17.0523 27.1904C16.9709 26.3771 17.3523 25.8398 17.5151 25.6103C18.3105 24.692 19.4199 24.521 20.3455 25.1707C21.2037 25.9204 21.3433 27.078 20.706 28.1159C20.6665 28.1672 20.6153 28.2381 20.5734 28.2893Z" fill="url(#paint81_linear_366_7039)"/>
<path d="M17.7596 32.2041C16.5595 33.496 14.2756 32.568 14.1686 30.7412C14.1267 30.0647 14.4198 29.6373 14.5616 29.4322C15.3036 28.5677 16.4222 28.4651 17.4107 29.1684C18.334 29.9646 18.5224 31.0953 17.8921 32.0478C17.8526 32.0942 17.8014 32.1577 17.7596 32.2041Z" fill="url(#paint82_linear_366_7039)"/>
<path d="M15.083 35.4987C13.9689 36.5317 11.7083 35.2569 11.7688 33.6304C11.7827 33.2567 11.9316 33.0296 12.0199 32.8928C12.6223 32.1919 13.6317 32.187 14.5945 32.8806C15.5016 33.6524 15.7365 34.6341 15.1923 35.3839C15.1597 35.4181 15.1178 35.4669 15.083 35.4987Z" fill="url(#paint83_linear_366_7039)"/>
<path d="M12.8485 37.831C11.9228 38.5173 9.85525 37.0837 10.0483 35.8895C10.0692 35.7552 10.1227 35.6672 10.1692 35.5915C10.5832 35.1153 11.3995 35.213 12.2508 35.8382C13.0625 36.5196 13.3299 37.2718 12.9299 37.7602C12.9066 37.7797 12.8741 37.809 12.8485 37.831Z" fill="url(#paint84_linear_366_7039)"/>
<path d="M11.1198 39.1765C10.4826 39.4696 8.7592 38.1166 8.99875 37.5134C9.00572 37.4963 9.01735 37.4768 9.02666 37.4621C9.25458 37.2106 9.8523 37.3742 10.5128 37.8724C11.1547 38.3975 11.4175 38.9103 11.171 39.1472C11.157 39.1546 11.1361 39.1692 11.1198 39.1765Z" fill="url(#paint85_linear_366_7039)"/>
<path d="M9.96756 39.5408C9.80709 39.5115 8.54654 38.6128 8.59305 38.4443C8.65352 38.4003 8.97214 38.5493 9.44427 38.9107C9.90244 39.277 10.0815 39.5188 9.99082 39.5432C9.98384 39.5432 9.97454 39.5408 9.96756 39.5408Z" fill="url(#paint86_linear_366_7039)"/>
<path d="M29.2066 10.7788C28.2903 11.6897 27.5297 11.5871 27.5553 11.0401C27.5669 10.7861 27.7437 10.3709 28.5112 9.83363C28.781 9.66023 28.9647 9.56499 29.302 9.4209C29.4717 9.61139 29.6531 9.79456 29.8415 9.97284C29.6299 10.3001 29.5043 10.4564 29.3206 10.6615C29.2857 10.6957 29.2415 10.7446 29.2066 10.7788Z" fill="url(#paint87_linear_366_7039)"/>
<path d="M26.3403 13.9828C25.296 15.0354 24.1122 14.8083 24.0982 13.8583C24.0936 13.5115 24.2471 12.9669 25.0053 12.3392C25.7077 11.8263 26.617 11.4771 27.0729 11.8581C27.4287 12.305 27.0287 13.1769 26.4728 13.8412C26.4333 13.8827 26.3821 13.9413 26.3403 13.9828Z" fill="url(#paint88_linear_366_7039)"/>
<path d="M23.238 17.5872C22.0356 18.8034 20.5494 18.2662 20.5238 17.0084C20.5052 16.1414 21.1378 15.5455 21.3448 15.3502C22.2449 14.6175 23.1984 14.4685 23.7729 14.9741C24.2613 15.5553 24.1055 16.52 23.3799 17.4334C23.3357 17.4798 23.2822 17.5433 23.238 17.5872Z" fill="url(#paint89_linear_366_7039)"/>
<path d="M20.0483 21.4365C18.8227 22.6845 16.9714 22.0519 16.9528 20.379C16.9434 19.4852 17.4993 18.8942 17.683 18.6988C18.5901 17.8855 19.646 17.783 20.3693 18.4375C21.0089 19.1775 20.9414 20.2911 20.1972 21.2729C20.153 21.3217 20.0948 21.3901 20.0483 21.4365Z" fill="url(#paint90_linear_366_7039)"/>
<path d="M16.8827 25.3297C15.6245 26.6192 13.6057 25.6985 13.6104 23.84C13.6127 23.0047 14.0313 22.5017 14.2104 22.2843C15.0639 21.4369 16.1501 21.3807 16.978 22.1426C17.7269 22.9925 17.7455 24.1819 17.0269 25.1685C16.9827 25.2149 16.9269 25.2833 16.8827 25.3297Z" fill="url(#paint91_linear_366_7039)"/>
<path d="M13.8849 29.0926C12.6894 30.3333 10.6311 29.183 10.6451 27.283C10.6497 26.5723 10.9498 26.1522 11.094 25.952C11.8405 25.1143 12.8894 25.0972 13.7639 25.9129C14.5663 26.8165 14.6663 28.0059 14.0174 28.9437C13.9779 28.9876 13.9267 29.0511 13.8849 29.0926Z" fill="url(#paint92_linear_366_7039)"/>
<path d="M11.2828 32.4431C10.2618 33.5055 8.25231 32.006 8.33603 30.2427C8.35696 29.8348 8.49651 29.5931 8.57791 29.449C9.13609 28.7163 10.0501 28.7627 10.9037 29.5711C11.7014 30.4527 11.8875 31.5322 11.3828 32.321C11.3549 32.3576 11.3153 32.4089 11.2828 32.4431Z" fill="url(#paint93_linear_366_7039)"/>
<path d="M9.31876 34.9691C8.62569 35.7042 6.93254 34.2584 6.90463 32.9079C6.89998 32.6759 6.94417 32.566 6.99533 32.4414C7.31861 31.9017 8.00238 32.0116 8.73965 32.7198C9.44202 33.4818 9.69553 34.3341 9.3862 34.8885C9.36527 34.9105 9.33969 34.9447 9.31876 34.9691Z" fill="url(#paint94_linear_366_7039)"/>
<path d="M8.09898 36.7052C7.72453 37.1326 6.30582 35.7381 6.24768 34.8858C6.24535 34.8418 6.25 34.7832 6.25698 34.7417C6.37094 34.3949 6.83609 34.5414 7.4152 35.1056C7.98036 35.7112 8.26177 36.3193 8.13153 36.6588C8.1199 36.6735 8.1106 36.693 8.09898 36.7052Z" fill="url(#paint95_linear_366_7039)"/>
<path d="M7.61986 37.5869C7.57102 37.6944 6.53141 36.615 6.38489 36.3072C6.37558 36.2755 6.35232 36.2047 6.46628 36.2657C6.57327 36.3243 6.7384 36.4611 6.95702 36.6809C7.3617 37.1034 7.59892 37.4502 7.62218 37.5723C7.62218 37.5772 7.62218 37.5845 7.61986 37.5869Z" fill="url(#paint96_linear_366_7039)"/>
<path d="M28.1826 9.70424C27.0012 10.3514 26.2592 10.1219 26.4011 9.62854C26.4686 9.39409 26.743 9.04729 27.664 8.72004C27.9873 8.61747 28.2129 8.56862 28.5943 8.51245C28.7292 8.71515 28.878 8.91542 29.0362 9.11079C28.7338 9.3599 28.5664 9.47468 28.3268 9.61877C28.285 9.64563 28.2268 9.67982 28.1826 9.70424Z" fill="url(#paint97_linear_366_7039)"/>
<path d="M24.572 12.1319C23.3021 12.9476 22.1672 12.5519 22.3253 11.6605C22.3835 11.3308 22.6393 10.8424 23.5277 10.3857C24.4883 9.95831 25.3953 9.91923 25.7372 10.2929C26.0279 10.7887 25.379 11.536 24.7348 12.022C24.686 12.0537 24.6232 12.0977 24.572 12.1319Z" fill="url(#paint98_linear_366_7039)"/>
<path d="M20.8295 15.07C19.4247 16.081 18.0688 15.3752 18.2456 14.1517C18.3665 13.314 19.0875 12.8305 19.3247 12.6717C20.3225 12.1051 21.3156 12.1003 21.8016 12.6595C22.1831 13.2725 21.8668 14.1664 20.9969 14.9405C20.9458 14.9796 20.8806 15.0333 20.8295 15.07Z" fill="url(#paint99_linear_366_7039)"/>
<path d="M17.1358 18.396C15.7869 19.4755 14.0891 18.6475 14.3007 17.0137C14.4147 16.1321 15.0333 15.6168 15.2357 15.4483C16.2264 14.7571 17.2614 14.7816 17.8731 15.5142C18.3824 16.303 18.1568 17.3776 17.3009 18.2519C17.2521 18.2959 17.187 18.3569 17.1358 18.396Z" fill="url(#paint100_linear_366_7039)"/>
<path d="M13.6288 21.9346C12.3055 23.1093 10.517 22.0128 10.7286 20.1518C10.824 19.3117 11.2775 18.8428 11.4682 18.6425C12.3683 17.8708 13.3986 17.9172 14.0916 18.7598C14.701 19.6854 14.5824 20.8454 13.7823 21.7832C13.7358 21.8296 13.6753 21.8907 13.6288 21.9346Z" fill="url(#paint101_linear_366_7039)"/>
<path d="M10.4801 25.5372C9.33121 26.6997 7.65667 25.5983 7.67993 23.6934C7.69156 22.8288 8.0567 22.3404 8.21253 22.1304C8.96374 21.3147 9.92195 21.366 10.6499 22.2623C11.3081 23.2489 11.2941 24.4456 10.6104 25.3883C10.5732 25.4322 10.522 25.4933 10.4801 25.5372Z" fill="url(#paint102_linear_366_7039)"/>
<path d="M7.93267 28.9247C7.09773 29.9138 5.59994 28.6756 5.50226 26.9197C5.46505 26.2579 5.65809 25.8866 5.75112 25.7108C6.26511 24.9513 7.04888 25.0246 7.74661 25.8989C8.38851 26.8415 8.49783 27.9796 8.02803 28.8002C7.99779 28.8368 7.9629 28.8881 7.93267 28.9247Z" fill="url(#paint103_linear_366_7039)"/>
<path d="M6.24633 31.7182C5.77653 32.4582 4.62994 31.4032 4.32992 29.955C4.21595 29.403 4.29735 29.1051 4.33456 28.9586C4.58574 28.3382 5.1416 28.4384 5.75095 29.2125C6.32308 30.038 6.53705 30.9856 6.2975 31.623C6.28122 31.6523 6.26493 31.6914 6.24633 31.7182Z" fill="url(#paint104_linear_366_7039)"/>
<path d="M5.44367 33.8649C5.32738 34.2654 4.74595 33.7477 4.29243 32.8392C3.98078 32.2189 3.9645 31.8818 3.95752 31.7719C3.98078 31.2639 4.37848 31.5692 4.60873 31.8305C4.65989 31.8892 4.72269 31.9697 4.77153 32.0332C5.2204 32.6658 5.48786 33.3618 5.45762 33.8063C5.45297 33.8209 5.45065 33.8453 5.44367 33.8649Z" fill="url(#paint105_linear_366_7039)"/>
<path d="M5.55876 35.3521C5.56806 35.3692 5.57504 35.3863 5.57969 35.4058C5.57736 35.4082 5.57504 35.4082 5.57271 35.4082C5.55178 35.3887 5.5355 35.3667 5.51689 35.3447L5.2913 35.0468L4.73544 34.2677C4.64241 34.1285 4.6052 34.0699 4.54473 33.9673C4.49589 33.8745 4.48193 33.8452 4.48193 33.8159C4.48426 33.8135 4.48659 33.8135 4.48659 33.811C4.55404 33.8257 4.74707 34.0846 4.8308 34.1969C5.2471 34.7684 5.49364 35.2324 5.54015 35.3203C5.54713 35.3276 5.5541 35.3423 5.55876 35.3521Z" fill="url(#paint106_linear_366_7039)"/>
<path d="M27.3499 8.5292C25.9615 8.87599 25.3172 8.53408 25.5638 8.13356C25.6615 7.97238 25.9847 7.6842 27.0499 7.56697C27.4151 7.54011 27.6663 7.54011 28.0779 7.56942C28.1663 7.77212 28.2709 7.97482 28.3872 8.17508C28.0081 8.33382 27.8058 8.4022 27.5197 8.48524C27.4662 8.49989 27.3988 8.51699 27.3499 8.5292Z" fill="url(#paint107_linear_366_7039)"/>
<path d="M23.1336 10.1193C21.6684 10.681 20.6474 10.1388 20.9823 9.33779C21.1079 9.0374 21.4638 8.62223 22.4452 8.34137C23.4825 8.10448 24.4291 8.22171 24.6942 8.62223C24.878 9.11556 24.0663 9.6968 23.3174 10.046C23.2616 10.068 23.1895 10.0998 23.1336 10.1193Z" fill="url(#paint108_linear_366_7039)"/>
<path d="M18.8664 12.3372C17.3245 13.109 16.136 12.2713 16.5244 11.1405C16.7942 10.3566 17.5826 9.99515 17.8431 9.87548C18.9176 9.46763 19.8898 9.59707 20.2619 10.1954C20.5735 10.9501 19.806 11.7657 19.0525 12.2371C18.9944 12.2688 18.9223 12.3104 18.8664 12.3372Z" fill="url(#paint109_linear_366_7039)"/>
<path d="M14.7615 15.1015C13.3707 15.9685 11.9683 15.165 12.2613 13.6655C12.4497 12.6984 13.1963 12.2124 13.4405 12.0536C14.4871 11.4895 15.4616 11.6238 15.9267 12.3955C16.2779 13.2064 15.8918 14.2223 14.9406 14.9769C14.8894 15.016 14.8173 15.0673 14.7615 15.1015Z" fill="url(#paint110_linear_366_7039)"/>
<path d="M10.9749 18.2543C9.65152 19.2801 8.23282 18.2592 8.52819 16.4911C8.68866 15.5337 9.26778 15.0111 9.45849 14.8401C10.3865 14.1466 11.3214 14.2711 11.8424 15.1576C12.2703 16.115 12.0005 17.2506 11.14 18.1151C11.0888 18.1567 11.0237 18.2153 10.9749 18.2543Z" fill="url(#paint111_linear_366_7039)"/>
<path d="M7.69813 21.6641C6.62364 22.7313 5.33982 21.7373 5.44448 19.9228C5.50263 18.9215 5.95382 18.3427 6.10267 18.1522C6.8469 17.3609 7.67487 17.4513 8.21212 18.3842C8.67494 19.4001 8.52842 20.6017 7.82837 21.52C7.79116 21.5639 7.74 21.6225 7.69813 21.6641Z" fill="url(#paint112_linear_366_7039)"/>
<path d="M5.19786 25.0975C4.54898 25.9864 3.58844 25.2196 3.39541 23.6541C3.26517 22.6089 3.56054 21.9959 3.65822 21.7932C4.13267 21.0068 4.76527 21.0776 5.27229 21.9764C5.72348 22.941 5.7258 24.1133 5.28159 24.9632C5.256 25.0047 5.22344 25.0584 5.19786 25.0975Z" fill="url(#paint113_linear_366_7039)"/>
<path d="M3.74354 28.1818C3.49236 28.7875 2.95976 28.4382 2.60392 27.432C2.50857 27.1658 2.2132 26.2232 2.37833 25.3342C2.56671 24.6479 2.98302 24.7139 3.41329 25.4978C3.82029 26.3453 3.96449 27.3539 3.78075 28.0695C3.77145 28.1036 3.75749 28.1476 3.74354 28.1818Z" fill="url(#paint114_linear_366_7039)"/>
<path d="M3.30375 30.7977C3.30142 31.0101 3.24095 31.0712 3.13164 30.9662C2.88278 30.7293 2.35949 29.5204 2.24088 28.651C2.21064 28.3091 2.26646 28.1967 2.40833 28.3139C2.52462 28.4092 2.64091 28.629 2.713 28.7609C3.02698 29.3983 3.25723 30.1651 3.30142 30.7195C3.30142 30.7415 3.30375 30.7732 3.30375 30.7977Z" fill="url(#paint115_linear_366_7039)"/>
<path d="M3.00488 31.2131C3.06535 31.3206 3.12117 31.4329 3.17931 31.5453C3.80261 32.7615 3.80261 32.7615 3.88402 32.9056C3.60958 32.4025 3.2142 31.748 3.00488 31.2131Z" fill="url(#paint116_linear_366_7039)"/>
<path d="M26.7616 7.32363C25.2754 7.3627 24.7591 6.97194 24.9707 6.68621C25.0405 6.59096 25.3708 6.29302 26.6988 6.41268C27.0895 6.45908 27.35 6.51037 27.7709 6.61783C27.7965 6.74482 27.8291 6.8767 27.8686 7.01102C27.8895 7.07941 27.9128 7.14779 27.9361 7.21617C27.4802 7.27966 27.2639 7.29676 26.9499 7.3163C26.8918 7.31874 26.8174 7.32363 26.7616 7.32363Z" fill="url(#paint117_linear_366_7039)"/>
<path d="M22.1021 8.02908C20.4183 8.33435 19.7066 7.60169 20.1717 6.99847C20.3648 6.74937 20.809 6.42944 21.8416 6.32443C22.9254 6.26582 23.8371 6.51492 24.0046 6.91788C24.086 7.5211 22.6021 7.9143 22.3021 7.98757C22.2416 7.99978 22.1626 8.01687 22.1021 8.02908Z" fill="url(#paint118_linear_366_7039)"/>
<path d="M17.4667 9.50371C15.9108 10.0092 14.9619 9.20332 15.4154 8.25331C15.5852 7.89431 16.0038 7.40587 17.0201 7.11036C18.1365 6.85882 19.0366 7.08838 19.2622 7.68184C19.3971 8.41938 18.5249 9.07144 17.6667 9.43289C17.6062 9.45487 17.5272 9.48418 17.4667 9.50371Z" fill="url(#paint119_linear_366_7039)"/>
<path d="M13.0594 11.6652C11.6011 12.371 10.6289 11.4503 10.9964 10.2756C11.136 9.82627 11.5034 9.18886 12.4547 8.70774C13.5175 8.26571 14.3781 8.46841 14.6455 9.22305C14.8106 10.0314 14.2757 10.9277 13.2477 11.5627C13.1896 11.5944 13.1152 11.6359 13.0594 11.6652Z" fill="url(#paint120_linear_366_7039)"/>
<path d="M9.07507 14.4133C7.88196 15.229 6.84932 14.4743 7.13772 12.9993C7.23772 12.484 7.53077 11.7342 8.35176 11.0895C9.29834 10.4618 10.0728 10.6132 10.3705 11.4851C10.5775 12.4302 10.1449 13.5072 9.24019 14.2887C9.19135 14.3278 9.12623 14.3815 9.07507 14.4133Z" fill="url(#paint121_linear_366_7039)"/>
<path d="M5.71904 17.6437C4.8399 18.5156 3.99566 17.9661 4.0445 16.552C4.05846 16.1613 4.17242 15.1502 4.93759 14.2149C5.68183 13.4309 6.33304 13.5115 6.63306 14.4249C6.86563 15.4311 6.56561 16.6107 5.85161 17.5045C5.80974 17.546 5.75857 17.6022 5.71904 17.6437Z" fill="url(#paint122_linear_366_7039)"/>
<path d="M3.26662 21.1459C2.83403 21.8346 2.33864 21.6416 2.14328 20.7112C2.03397 20.1885 1.98048 19.009 2.48516 17.91C2.93171 17.0821 3.39686 17.1065 3.6713 17.971C3.90387 18.9332 3.77596 20.125 3.34569 21.0091C3.32244 21.0482 3.2922 21.1044 3.26662 21.1459Z" fill="url(#paint123_linear_366_7039)"/>
<path d="M1.96467 24.4793C1.86001 24.87 1.70418 24.9555 1.55533 24.7089C1.32508 24.3254 1.09484 22.9554 1.27392 21.766C1.42277 21.004 1.61813 21.1628 1.72046 21.3264C1.79488 21.4461 1.8414 21.5975 1.88559 21.744C2.09491 22.5622 2.13677 23.5879 1.99257 24.3621C1.9856 24.3963 1.97397 24.4451 1.96467 24.4793Z" fill="url(#paint124_linear_366_7039)"/>
<path d="M1.81038 27.6302C1.84061 27.8769 1.83363 27.9184 1.82898 27.9477C1.82433 27.9502 1.81968 27.9526 1.81503 27.9526C1.78479 27.9062 1.74293 27.7939 1.63362 27.3763L1.3429 26.0965C1.29173 25.8303 1.27081 25.7058 1.24522 25.5324C1.19871 25.2027 1.19173 25.0684 1.21731 25.0195C1.24987 25.0366 1.27546 25.0488 1.38244 25.4249C1.62664 26.3285 1.76386 27.2688 1.80107 27.535C1.80107 27.5619 1.80573 27.6009 1.81038 27.6302Z" fill="url(#paint125_linear_366_7039)"/>
<path d="M26.4682 6.15812C24.8541 5.90169 24.5192 5.50606 24.8006 5.31801C24.9006 5.25207 25.3309 5.05913 26.6635 5.40592C27.0496 5.51582 27.2961 5.60374 27.7217 5.77958C27.7055 5.9432 27.7055 6.11416 27.7217 6.29732C27.2031 6.2558 26.9938 6.23139 26.6635 6.18743C26.6054 6.1801 26.5286 6.16789 26.4682 6.15812Z" fill="url(#paint126_linear_366_7039)"/>
<path d="M21.5875 5.99709C20.1456 6.02152 19.4734 5.5233 19.8316 5.06173C19.9339 4.92985 20.3805 4.50246 21.7899 4.56596C22.8551 4.65877 23.7017 4.99579 23.7598 5.35235C23.6784 5.84323 22.1062 5.96779 21.7922 5.98977C21.7317 5.99221 21.6503 5.99465 21.5875 5.99709Z" fill="url(#paint127_linear_366_7039)"/>
<path d="M16.7571 6.73213C15.2919 7.00566 14.6105 6.35603 15.1012 5.65024C15.2873 5.3816 15.7757 4.90537 16.9548 4.71488C18.0572 4.59521 18.8387 4.86141 18.8968 5.37916C18.8317 5.99215 17.8526 6.45617 16.9595 6.69062C16.899 6.70283 16.8176 6.71992 16.7571 6.73213Z" fill="url(#paint128_linear_366_7039)"/>
<path d="M12.1954 8.32222C10.993 8.77402 10.2022 8.31489 10.5697 7.37709C10.6627 7.13775 11.0697 6.31961 12.3814 5.80431C13.4187 5.46729 14.149 5.67243 14.2025 6.31228C14.1513 6.98633 13.4373 7.74586 12.3861 8.24406C12.3303 8.26849 12.2535 8.30024 12.1954 8.32222Z" fill="url(#paint129_linear_366_7039)"/>
<path d="M8.11123 10.6812C7.14605 11.282 6.47158 10.9694 6.66927 10.012C6.69485 9.88505 6.95999 8.74943 8.27171 7.83605C9.1927 7.27679 9.816 7.38912 9.86252 8.12423C9.81833 8.91794 9.19503 9.88016 8.27636 10.5713C8.22519 10.6031 8.16007 10.6495 8.11123 10.6812Z" fill="url(#paint130_linear_366_7039)"/>
<path d="M4.71672 13.7164C4.07947 14.3636 3.59804 14.3074 3.59572 13.5919C3.59339 13.0595 3.92364 11.8774 4.83766 10.8053C5.54469 10.0556 6.02612 10.0604 6.06333 10.8175C6.02844 11.6552 5.54934 12.742 4.84231 13.5821C4.8051 13.6212 4.75626 13.6773 4.71672 13.7164Z" fill="url(#paint131_linear_366_7039)"/>
<path d="M2.30308 17.2995C2.02167 17.8197 1.78445 17.9467 1.69839 17.6219C1.58443 17.1921 1.78677 15.8073 2.37053 14.5252C2.87987 13.5043 3.04267 13.8536 3.08221 13.983C3.11012 14.0783 3.11477 14.2101 3.11709 14.3078C3.09616 15.126 2.80545 16.2445 2.37751 17.1554C2.35425 17.1994 2.32634 17.258 2.30308 17.2995Z" fill="url(#paint132_linear_366_7039)"/>
<path d="M1.11044 20.9502C1.03834 21.3507 1.00113 21.4191 0.982525 21.4484C0.975548 21.4484 0.966244 21.4509 0.959266 21.4533C0.942986 21.4167 0.894143 21.3092 0.956938 20.2762L1.01974 19.4947C1.06625 19.038 1.10114 18.7986 1.12905 18.6033C1.20347 18.1441 1.25464 17.9341 1.31046 17.8804C1.34534 17.9072 1.36395 17.9219 1.3686 18.2662C1.36162 18.9501 1.27092 19.9489 1.1337 20.8134C1.12672 20.855 1.11742 20.9087 1.11044 20.9502Z" fill="url(#paint133_linear_366_7039)"/>
<path d="M26.5016 5.15669C24.8898 4.64383 24.7922 4.32634 24.9875 4.21889C25.034 4.19447 25.4713 3.99176 26.9249 4.59254C27.297 4.75617 27.5296 4.87584 27.918 5.10052C27.8528 5.22751 27.8017 5.36428 27.7668 5.51325C27.2249 5.3716 27.0458 5.32032 26.6946 5.21775C26.6342 5.20065 26.5574 5.17623 26.5016 5.15669Z" fill="url(#paint134_linear_366_7039)"/>
<path d="M21.6407 4.2511C20.3034 4.0948 19.8429 3.67719 20.1709 3.36459C20.222 3.31574 20.7221 2.88836 22.2501 3.14967C23.2432 3.35726 23.9851 3.75045 23.9386 4.04107C23.7292 4.39275 22.278 4.30483 21.8407 4.27064C21.7803 4.26575 21.6989 4.25842 21.6407 4.2511Z" fill="url(#paint135_linear_366_7039)"/>
<path d="M16.8199 4.36801C15.6385 4.46325 15.0221 4.10425 15.4478 3.56941C15.5036 3.49859 16.0524 2.86361 17.5944 2.77081C18.6387 2.75615 19.3015 3.03945 19.2015 3.46195C18.9666 3.9333 17.92 4.2288 17.0176 4.34847C16.9572 4.35336 16.8781 4.36312 16.8199 4.36801Z" fill="url(#paint136_linear_366_7039)"/>
<path d="M12.2594 5.46706C11.2314 5.77478 10.6732 5.54032 10.9872 4.92977C11.1593 4.59764 11.8338 3.85765 13.1664 3.44248C14.1711 3.18116 14.7502 3.35944 14.6037 3.88696C14.313 4.52926 13.2618 5.10806 12.4478 5.40601C12.3896 5.42554 12.3152 5.44997 12.2594 5.46706Z" fill="url(#paint137_linear_366_7039)"/>
<path d="M8.18232 7.48425C7.43343 7.92629 6.98922 7.90187 7.10318 7.42075C7.20784 6.9836 7.92882 5.97253 9.14519 5.19835C10.2476 4.5585 10.4104 4.93704 10.3429 5.22522C10.336 5.25697 10.322 5.29604 10.3127 5.32779C10.0476 5.95299 9.27543 6.76136 8.34513 7.38412C8.29629 7.41343 8.23116 7.45495 8.18232 7.48425Z" fill="url(#paint138_linear_366_7039)"/>
<path d="M4.8098 10.3685C4.33534 10.8716 4.04462 11.0231 4.05393 10.7666C4.06323 10.4198 4.72607 9.18408 5.74009 8.03381C6.56108 7.14973 6.61225 7.43547 6.60993 7.54292C6.6076 7.61863 6.57038 7.72853 6.5448 7.80912C6.27967 8.47829 5.66102 9.40876 4.93306 10.2367C4.89352 10.2757 4.84701 10.3295 4.8098 10.3685Z" fill="url(#paint139_linear_366_7039)"/>
<path d="M2.41243 14.0073C2.16125 14.5275 2.10776 14.5983 2.0845 14.6252C2.07287 14.5861 2.07287 14.5861 2.12171 14.442C2.4822 13.5091 3.00782 12.2856 3.43576 11.3869L3.52879 11.211C3.61717 11.0474 3.64275 11.0108 3.67531 10.9717C3.68229 10.9717 3.68927 10.9717 3.69624 10.9692C3.69392 11.023 3.67531 11.084 3.60322 11.2818C3.32878 12.0145 2.84502 13.094 2.4822 13.8632C2.4636 13.9048 2.43336 13.9634 2.41243 14.0073Z" fill="url(#paint140_linear_366_7039)"/>
<path d="M26.8356 4.35837C25.2983 3.63548 25.4076 3.423 25.5262 3.36683C25.5309 3.36439 25.9867 3.15925 27.4519 3.99204C27.7962 4.19962 28.0101 4.34371 28.3334 4.59526C28.2241 4.68074 28.1287 4.78087 28.0473 4.89077C27.4799 4.65143 27.3054 4.57328 27.017 4.44384C26.9612 4.41942 26.8891 4.38523 26.8356 4.35837Z" fill="url(#paint141_linear_366_7039)"/>
<path d="M22.2087 2.87154C20.9714 2.58092 20.7133 2.24878 21.0063 2.04852C21.0133 2.04608 21.6133 1.65044 23.1856 2.0998C24.1996 2.42706 24.6903 2.84224 24.5647 3.03517C24.2507 3.26962 22.8274 3.00342 22.3994 2.9155C22.3413 2.90329 22.2646 2.88619 22.2087 2.87154Z" fill="url(#paint142_linear_366_7039)"/>
<path d="M17.5868 2.47994C16.4658 2.47261 16.2216 2.20153 16.4751 1.93533C16.6333 1.77171 17.4101 1.30769 18.873 1.34188C19.8265 1.40049 20.3429 1.66913 20.101 1.97929C19.6196 2.39691 18.0799 2.47017 17.7752 2.47994C17.7194 2.4775 17.6427 2.47994 17.5868 2.47994Z" fill="url(#paint143_linear_366_7039)"/>
<path d="M13.1854 3.17389C12.4248 3.36194 12.0271 3.31309 12.169 3.04689C12.3179 2.76848 13.2993 2.08466 14.725 1.71833C16.053 1.42527 15.846 1.87463 15.8367 1.89417C15.8158 1.93569 15.7739 1.98454 15.7437 2.01873C15.2692 2.46565 14.204 2.88327 13.3668 3.12749C13.3086 3.14214 13.2389 3.16168 13.1854 3.17389Z" fill="url(#paint144_linear_366_7039)"/>
<path d="M9.21897 4.9226C8.67939 5.23765 8.37705 5.34755 8.40961 5.22055C8.46078 5.00808 9.61667 4.02876 10.8842 3.26436C11.7564 2.76126 11.8122 2.8736 11.7936 2.94687C11.7796 3.00792 11.7005 3.0934 11.6261 3.174C11.0935 3.70151 10.1121 4.37556 9.37247 4.82981C9.32595 4.85911 9.26548 4.89574 9.21897 4.9226Z" fill="url(#paint145_linear_366_7039)"/>
<path d="M5.91728 7.69414C5.6661 7.97255 5.48237 8.18503 5.4126 8.27783L5.43585 8.24608C6.88479 6.49747 6.9127 6.46572 7.86626 5.56699L8.17326 5.28857C8.09883 5.35696 8.03139 5.43022 7.96161 5.50349C7.79649 5.67444 6.92898 6.57806 6.03357 7.5647C5.99868 7.60134 5.95217 7.65262 5.91728 7.69414Z" fill="url(#paint146_linear_366_7039)"/>
<path d="M27.4411 3.7892C26.5411 3.22016 26.1875 2.88803 26.3852 2.80011C26.4806 2.75859 27.0713 2.77569 28.2202 3.63046C28.5086 3.85758 28.6877 4.01632 28.9482 4.28252C28.8017 4.32648 28.6668 4.38265 28.5435 4.45347C28.0458 4.16285 27.8877 4.0676 27.6016 3.89176C27.5551 3.86002 27.49 3.82095 27.4411 3.7892Z" fill="url(#paint147_linear_366_7039)"/>
<path d="M23.2572 1.87947C22.0873 1.47406 22.1943 1.26891 22.2943 1.19809C22.4827 1.06621 23.3618 1.00761 24.534 1.47162C25.3922 1.84528 25.7457 2.2287 25.5387 2.35325C25.1736 2.46071 24.0595 2.13834 23.4269 1.93564C23.3758 1.91854 23.3083 1.89656 23.2572 1.87947Z" fill="url(#paint148_linear_366_7039)"/>
<path d="M18.9985 1.12993C18.3078 1.08109 17.9868 0.97607 18.0961 0.839307C18.2473 0.648816 19.4358 0.375297 20.7289 0.487638C21.7546 0.609748 21.7499 0.84664 21.6592 0.929675C21.6313 0.956539 21.5848 0.976072 21.5499 0.993167C20.9568 1.20808 19.5777 1.16168 19.1683 1.14214C19.1195 1.13726 19.0497 1.13237 18.9985 1.12993Z" fill="url(#paint149_linear_366_7039)"/>
<path d="M14.8942 1.53229C14.2035 1.68859 14.1407 1.66417 14.1128 1.65196C14.1314 1.61533 14.1663 1.54939 15.0315 1.249L16.4176 0.826494C16.6758 0.758113 16.8409 0.72148 16.9758 0.689732C17.3456 0.611581 17.7363 0.540761 17.8177 0.609142C17.7968 0.660428 17.7921 0.677522 17.5712 0.77521C16.9107 1.03897 15.7152 1.33935 15.0594 1.49565C15.0082 1.50542 14.9431 1.52252 14.8942 1.53229Z" fill="url(#paint150_linear_366_7039)"/>
<path d="M11.1237 3.09565C11.0818 3.12007 11.0283 3.15426 10.9888 3.17869L12.2679 2.44603C12.7121 2.236 13.2959 1.93805 13.7471 1.74512C13.2122 1.97468 12.2424 2.44359 11.2679 3.01262C11.2237 3.0346 11.1655 3.06879 11.1237 3.09565Z" fill="url(#paint151_linear_366_7039)"/>
<path d="M28.2925 3.47684C28.0228 3.25215 27.1971 2.57078 27.5739 2.54147C27.6948 2.5317 28.3228 2.67336 29.2019 3.53301C29.4252 3.76502 29.5554 3.92376 29.7415 4.18507C29.5624 4.18019 29.3926 4.1924 29.2345 4.21927C28.8112 3.89445 28.674 3.78699 28.4251 3.58673C28.3856 3.55254 28.3321 3.51103 28.2925 3.47684Z" fill="url(#paint152_linear_366_7039)"/>
<path d="M24.7267 1.33238C24.0848 1.03932 23.8638 0.856155 24.0685 0.785332C24.2592 0.719392 25.2244 0.780446 26.2547 1.30308C27.0199 1.72802 27.0501 1.99177 26.8943 2.03329C26.878 2.03818 26.8571 2.03817 26.8408 2.04062C26.4477 2.04062 25.55 1.68894 24.8686 1.39588C24.8244 1.37634 24.7686 1.35192 24.7267 1.33238Z" fill="url(#paint153_linear_366_7039)"/>
<path d="M20.9908 0.375036C20.435 0.309097 20.3745 0.282235 20.335 0.262697C20.3373 0.25537 20.3373 0.245603 20.3373 0.240718C20.5396 0.16501 22.0095 0.128376 23.1003 0.262697C23.7817 0.362827 23.7864 0.453192 23.7585 0.487383C23.7236 0.526458 23.5747 0.541111 23.4957 0.548437C23.3096 0.555764 22.87 0.57774 21.142 0.392133C21.0955 0.387249 21.035 0.382363 20.9908 0.375036Z" fill="url(#paint154_linear_366_7039)"/>
<path d="M19.9019 0.230713C19.3972 0.269788 18.5204 0.372361 17.7134 0.528661C18.3692 0.426089 19.2437 0.296652 19.9019 0.230713Z" fill="url(#paint155_linear_366_7039)"/>
<path d="M29.3688 3.44487C29.1735 3.22507 28.6502 2.64627 28.9781 2.65115C29.213 2.65604 29.7502 2.98085 30.1456 3.43754C30.2759 3.61338 30.4061 3.7941 30.5294 3.98459C30.5991 4.11647 30.6364 4.19706 30.6829 4.31917C30.4805 4.26789 30.2875 4.23126 30.1014 4.20928C29.7502 3.85516 29.634 3.73061 29.4665 3.55233C29.4363 3.52058 29.3967 3.47662 29.3688 3.44487Z" fill="url(#paint156_linear_366_7039)"/>
<path d="M26.6058 1.27396C26.2407 1.06393 26.1104 0.954032 26.1872 0.919841C26.3174 0.858786 27.3198 1.10789 28.0338 1.48399C28.1827 1.57435 28.3292 1.6696 28.4757 1.77461C28.699 1.96754 28.7316 2.12628 28.5478 2.13117C28.5129 2.13361 28.4664 2.12628 28.4315 2.1214C28.3106 2.09453 27.9385 2.00906 26.7151 1.33502C26.6802 1.31792 26.6361 1.2935 26.6058 1.27396Z" fill="url(#paint157_linear_366_7039)"/>
<path d="M23.5188 0.284671C23.463 0.277344 23.3909 0.270021 23.3374 0.265137L23.7956 0.316421C25.4469 0.570409 25.4469 0.570408 26.2818 0.780437C26.1771 0.768226 25.9771 0.731596 25.8446 0.707174C23.9561 0.348171 23.9561 0.34817 23.6374 0.301768C23.6002 0.294442 23.5537 0.289555 23.5188 0.284671Z" fill="url(#paint158_linear_366_7039)"/>
<defs>
<linearGradient id="paint0_linear_366_7039" x1="-0.927634" y1="3.93096" x2="41.0211" y2="3.93096" gradientUnits="userSpaceOnUse">
<stop stop-color="#EA00D5"/>
<stop offset="0.5168" stop-color="#3D5EFF"/>
<stop offset="1" stop-color="#00EAF2"/>
</linearGradient>
<linearGradient id="paint1_linear_366_7039" x1="-0.928186" y1="1.99368" x2="41.0206" y2="1.99368" gradientUnits="userSpaceOnUse">
<stop stop-color="#EA00D5"/>
<stop offset="0.5168" stop-color="#3D5EFF"/>
<stop offset="1" stop-color="#00EAF2"/>
</linearGradient>
<linearGradient id="paint2_linear_366_7039" x1="-0.928174" y1="4.51515" x2="41.0207" y2="4.51515" gradientUnits="userSpaceOnUse">
<stop stop-color="#EA00D5"/>
<stop offset="0.5168" stop-color="#3D5EFF"/>
<stop offset="1" stop-color="#00EAF2"/>
</linearGradient>
<linearGradient id="paint3_linear_366_7039" x1="-0.928147" y1="3.0167" x2="41.0207" y2="3.0167" gradientUnits="userSpaceOnUse">
<stop stop-color="#EA00D5"/>
<stop offset="0.5168" stop-color="#3D5EFF"/>
<stop offset="1" stop-color="#00EAF2"/>
</linearGradient>
<linearGradient id="paint4_linear_366_7039" x1="-0.93035" y1="5.302" x2="41.0187" y2="5.302" gradientUnits="userSpaceOnUse">
<stop stop-color="#EA00D5"/>
<stop offset="0.5168" stop-color="#3D5EFF"/>
<stop offset="1" stop-color="#00EAF2"/>
</linearGradient>
<linearGradient id="paint5_linear_366_7039" x1="-0.930652" y1="4.40506" x2="41.0184" y2="4.40506" gradientUnits="userSpaceOnUse">
<stop stop-color="#EA00D5"/>
<stop offset="0.5168" stop-color="#3D5EFF"/>
<stop offset="1" stop-color="#00EAF2"/>
</linearGradient>
<linearGradient id="paint6_linear_366_7039" x1="-0.928939" y1="6.24716" x2="41.0198" y2="6.24716" gradientUnits="userSpaceOnUse">
<stop stop-color="#EA00D5"/>
<stop offset="0.5168" stop-color="#3D5EFF"/>
<stop offset="1" stop-color="#00EAF2"/>
</linearGradient>
<linearGradient id="paint7_linear_366_7039" x1="-0.927312" y1="6.09474" x2="41.0215" y2="6.09474" gradientUnits="userSpaceOnUse">
<stop stop-color="#EA00D5"/>
<stop offset="0.5168" stop-color="#3D5EFF"/>
<stop offset="1" stop-color="#00EAF2"/>
</linearGradient>
<linearGradient id="paint8_linear_366_7039" x1="-0.928042" y1="7.3403" x2="41.0205" y2="7.3403" gradientUnits="userSpaceOnUse">
<stop stop-color="#EA00D5"/>
<stop offset="0.5168" stop-color="#3D5EFF"/>
<stop offset="1" stop-color="#00EAF2"/>
</linearGradient>
<linearGradient id="paint9_linear_366_7039" x1="-0.929903" y1="7.99564" x2="41.0191" y2="7.99564" gradientUnits="userSpaceOnUse">
<stop stop-color="#EA00D5"/>
<stop offset="0.5168" stop-color="#3D5EFF"/>
<stop offset="1" stop-color="#00EAF2"/>
</linearGradient>
<linearGradient id="paint10_linear_366_7039" x1="-0.930081" y1="8.52062" x2="41.0187" y2="8.52062" gradientUnits="userSpaceOnUse">
<stop stop-color="#EA00D5"/>
<stop offset="0.5168" stop-color="#3D5EFF"/>
<stop offset="1" stop-color="#00EAF2"/>
</linearGradient>
<linearGradient id="paint11_linear_366_7039" x1="-0.927616" y1="10.0225" x2="41.0211" y2="10.0225" gradientUnits="userSpaceOnUse">
<stop stop-color="#EA00D5"/>
<stop offset="0.5168" stop-color="#3D5EFF"/>
<stop offset="1" stop-color="#00EAF2"/>
</linearGradient>
<linearGradient id="paint12_linear_366_7039" x1="-0.928226" y1="9.70668" x2="41.0206" y2="9.70668" gradientUnits="userSpaceOnUse">
<stop stop-color="#EA00D5"/>
<stop offset="0.5168" stop-color="#3D5EFF"/>
<stop offset="1" stop-color="#00EAF2"/>
</linearGradient>
<linearGradient id="paint13_linear_366_7039" x1="-0.930031" y1="12.0872" x2="41.0187" y2="12.0872" gradientUnits="userSpaceOnUse">
<stop stop-color="#EA00D5"/>
<stop offset="0.5168" stop-color="#3D5EFF"/>
<stop offset="1" stop-color="#00EAF2"/>
</linearGradient>
<linearGradient id="paint14_linear_366_7039" x1="-0.929308" y1="14.9908" x2="41.0196" y2="14.9908" gradientUnits="userSpaceOnUse">
<stop stop-color="#EA00D5"/>
<stop offset="0.5168" stop-color="#3D5EFF"/>
<stop offset="1" stop-color="#00EAF2"/>
</linearGradient>
<linearGradient id="paint15_linear_366_7039" x1="-0.92816" y1="10.8244" x2="41.0207" y2="10.8244" gradientUnits="userSpaceOnUse">
<stop stop-color="#EA00D5"/>
<stop offset="0.5168" stop-color="#3D5EFF"/>
<stop offset="1" stop-color="#00EAF2"/>
</linearGradient>
<linearGradient id="paint16_linear_366_7039" x1="-0.926982" y1="13.9863" x2="41.0218" y2="13.9863" gradientUnits="userSpaceOnUse">
<stop stop-color="#EA00D5"/>
<stop offset="0.5168" stop-color="#3D5EFF"/>
<stop offset="1" stop-color="#00EAF2"/>
</linearGradient>
<linearGradient id="paint17_linear_366_7039" x1="-0.928603" y1="17.5914" x2="41.0201" y2="17.5914" gradientUnits="userSpaceOnUse">
<stop stop-color="#EA00D5"/>
<stop offset="0.5168" stop-color="#3D5EFF"/>
<stop offset="1" stop-color="#00EAF2"/>
</linearGradient>
<linearGradient id="paint18_linear_366_7039" x1="-1.02576" y1="21.4055" x2="41.0182" y2="21.4055" gradientUnits="userSpaceOnUse">
<stop stop-color="#EA00D5"/>
<stop offset="0.5168" stop-color="#3D5EFF"/>
<stop offset="1" stop-color="#00EAF2"/>
</linearGradient>
<linearGradient id="paint19_linear_366_7039" x1="-0.929459" y1="11.7927" x2="41.0194" y2="11.7927" gradientUnits="userSpaceOnUse">
<stop stop-color="#EA00D5"/>
<stop offset="0.5168" stop-color="#3D5EFF"/>
<stop offset="1" stop-color="#00EAF2"/>
</linearGradient>
<linearGradient id="paint20_linear_366_7039" x1="-0.927125" y1="15.5715" x2="41.0217" y2="15.5715" gradientUnits="userSpaceOnUse">
<stop stop-color="#EA00D5"/>
<stop offset="0.5168" stop-color="#3D5EFF"/>
<stop offset="1" stop-color="#00EAF2"/>
</linearGradient>
<linearGradient id="paint21_linear_366_7039" x1="-0.929582" y1="19.7597" x2="41.0192" y2="19.7597" gradientUnits="userSpaceOnUse">
<stop stop-color="#EA00D5"/>
<stop offset="0.5168" stop-color="#3D5EFF"/>
<stop offset="1" stop-color="#00EAF2"/>
</linearGradient>
<linearGradient id="paint22_linear_366_7039" x1="-0.927017" y1="24.0531" x2="41.0215" y2="24.0531" gradientUnits="userSpaceOnUse">
<stop stop-color="#EA00D5"/>
<stop offset="0.5168" stop-color="#3D5EFF"/>
<stop offset="1" stop-color="#00EAF2"/>
</linearGradient>
<linearGradient id="paint23_linear_366_7039" x1="-0.927635" y1="28.26" x2="41.0211" y2="28.26" gradientUnits="userSpaceOnUse">
<stop stop-color="#EA00D5"/>
<stop offset="0.5168" stop-color="#3D5EFF"/>
<stop offset="1" stop-color="#00EAF2"/>
</linearGradient>
<linearGradient id="paint24_linear_366_7039" x1="-0.927834" y1="12.5586" x2="41.0208" y2="12.5586" gradientUnits="userSpaceOnUse">
<stop stop-color="#EA00D5"/>
<stop offset="0.5168" stop-color="#3D5EFF"/>
<stop offset="1" stop-color="#00EAF2"/>
</linearGradient>
<linearGradient id="paint25_linear_366_7039" x1="-0.930596" y1="16.799" x2="41.0182" y2="16.799" gradientUnits="userSpaceOnUse">
<stop stop-color="#EA00D5"/>
<stop offset="0.5168" stop-color="#3D5EFF"/>
<stop offset="1" stop-color="#00EAF2"/>
</linearGradient>
<linearGradient id="paint26_linear_366_7039" x1="-0.929928" y1="21.4403" x2="41.019" y2="21.4403" gradientUnits="userSpaceOnUse">
<stop stop-color="#EA00D5"/>
<stop offset="0.5168" stop-color="#3D5EFF"/>
<stop offset="1" stop-color="#00EAF2"/>
</linearGradient>
<linearGradient id="paint27_linear_366_7039" x1="-0.93022" y1="26.0945" x2="41.0186" y2="26.0945" gradientUnits="userSpaceOnUse">
<stop stop-color="#EA00D5"/>
<stop offset="0.5168" stop-color="#3D5EFF"/>
<stop offset="1" stop-color="#00EAF2"/>
</linearGradient>
<linearGradient id="paint28_linear_366_7039" x1="-0.928314" y1="30.5417" x2="41.0206" y2="30.5417" gradientUnits="userSpaceOnUse">
<stop stop-color="#EA00D5"/>
<stop offset="0.5168" stop-color="#3D5EFF"/>
<stop offset="1" stop-color="#00EAF2"/>
</linearGradient>
<linearGradient id="paint29_linear_366_7039" x1="-0.928019" y1="34.5771" x2="41.0207" y2="34.5771" gradientUnits="userSpaceOnUse">
<stop stop-color="#EA00D5"/>
<stop offset="0.5168" stop-color="#3D5EFF"/>
<stop offset="1" stop-color="#00EAF2"/>
</linearGradient>
<linearGradient id="paint30_linear_366_7039" x1="-0.928946" y1="37.8899" x2="41.0198" y2="37.8899" gradientUnits="userSpaceOnUse">
<stop stop-color="#EA00D5"/>
<stop offset="0.5168" stop-color="#3D5EFF"/>
<stop offset="1" stop-color="#00EAF2"/>
</linearGradient>
<linearGradient id="paint31_linear_366_7039" x1="-0.928016" y1="13.1087" x2="41.0208" y2="13.1087" gradientUnits="userSpaceOnUse">
<stop stop-color="#EA00D5"/>
<stop offset="0.5168" stop-color="#3D5EFF"/>
<stop offset="1" stop-color="#00EAF2"/>
</linearGradient>
<linearGradient id="paint32_linear_366_7039" x1="-0.927115" y1="17.621" x2="41.0216" y2="17.621" gradientUnits="userSpaceOnUse">
<stop stop-color="#EA00D5"/>
<stop offset="0.5168" stop-color="#3D5EFF"/>
<stop offset="1" stop-color="#00EAF2"/>
</linearGradient>
<linearGradient id="paint33_linear_366_7039" x1="-0.92742" y1="22.5668" x2="41.0213" y2="22.5668" gradientUnits="userSpaceOnUse">
<stop stop-color="#EA00D5"/>
<stop offset="0.5168" stop-color="#3D5EFF"/>
<stop offset="1" stop-color="#00EAF2"/>
</linearGradient>
<linearGradient id="paint34_linear_366_7039" x1="-0.929289" y1="27.4681" x2="41.0196" y2="27.4681" gradientUnits="userSpaceOnUse">
<stop stop-color="#EA00D5"/>
<stop offset="0.5168" stop-color="#3D5EFF"/>
<stop offset="1" stop-color="#00EAF2"/>
</linearGradient>
<linearGradient id="paint35_linear_366_7039" x1="-0.929432" y1="32.0848" x2="41.0193" y2="32.0848" gradientUnits="userSpaceOnUse">
<stop stop-color="#EA00D5"/>
<stop offset="0.5168" stop-color="#3D5EFF"/>
<stop offset="1" stop-color="#00EAF2"/>
</linearGradient>
<linearGradient id="paint36_linear_366_7039" x1="-0.928201" y1="36.1982" x2="41.0205" y2="36.1982" gradientUnits="userSpaceOnUse">
<stop stop-color="#EA00D5"/>
<stop offset="0.5168" stop-color="#3D5EFF"/>
<stop offset="1" stop-color="#00EAF2"/>
</linearGradient>
<linearGradient id="paint37_linear_366_7039" x1="-0.929409" y1="39.4782" x2="41.0193" y2="39.4782" gradientUnits="userSpaceOnUse">
<stop stop-color="#EA00D5"/>
<stop offset="0.5168" stop-color="#3D5EFF"/>
<stop offset="1" stop-color="#00EAF2"/>
</linearGradient>
<linearGradient id="paint38_linear_366_7039" x1="-0.927013" y1="41.6157" x2="41.0218" y2="41.6157" gradientUnits="userSpaceOnUse">
<stop stop-color="#EA00D5"/>
<stop offset="0.5168" stop-color="#3D5EFF"/>
<stop offset="1" stop-color="#00EAF2"/>
</linearGradient>
<linearGradient id="paint39_linear_366_7039" x1="-0.929597" y1="13.3915" x2="41.0192" y2="13.3915" gradientUnits="userSpaceOnUse">
<stop stop-color="#EA00D5"/>
<stop offset="0.5168" stop-color="#3D5EFF"/>
<stop offset="1" stop-color="#00EAF2"/>
</linearGradient>
<linearGradient id="paint40_linear_366_7039" x1="-0.929584" y1="18.0041" x2="41.0191" y2="18.0041" gradientUnits="userSpaceOnUse">
<stop stop-color="#EA00D5"/>
<stop offset="0.5168" stop-color="#3D5EFF"/>
<stop offset="1" stop-color="#00EAF2"/>
</linearGradient>
<linearGradient id="paint41_linear_366_7039" x1="-0.929167" y1="23.0906" x2="41.0197" y2="23.0906" gradientUnits="userSpaceOnUse">
<stop stop-color="#EA00D5"/>
<stop offset="0.5168" stop-color="#3D5EFF"/>
<stop offset="1" stop-color="#00EAF2"/>
</linearGradient>
<linearGradient id="paint42_linear_366_7039" x1="-0.927085" y1="28.0986" x2="41.0216" y2="28.0986" gradientUnits="userSpaceOnUse">
<stop stop-color="#EA00D5"/>
<stop offset="0.5168" stop-color="#3D5EFF"/>
<stop offset="1" stop-color="#00EAF2"/>
</linearGradient>
<linearGradient id="paint43_linear_366_7039" x1="-0.927455" y1="32.7941" x2="41.0213" y2="32.7941" gradientUnits="userSpaceOnUse">
<stop stop-color="#EA00D5"/>
<stop offset="0.5168" stop-color="#3D5EFF"/>
<stop offset="1" stop-color="#00EAF2"/>
</linearGradient>
<linearGradient id="paint44_linear_366_7039" x1="-0.92964" y1="36.9468" x2="41.0191" y2="36.9468" gradientUnits="userSpaceOnUse">
<stop stop-color="#EA00D5"/>
<stop offset="0.5168" stop-color="#3D5EFF"/>
<stop offset="1" stop-color="#00EAF2"/>
</linearGradient>
<linearGradient id="paint45_linear_366_7039" x1="-0.929443" y1="40.2241" x2="41.0193" y2="40.2241" gradientUnits="userSpaceOnUse">
<stop stop-color="#EA00D5"/>
<stop offset="0.5168" stop-color="#3D5EFF"/>
<stop offset="1" stop-color="#00EAF2"/>
</linearGradient>
<linearGradient id="paint46_linear_366_7039" x1="-0.927665" y1="42.3091" x2="41.0211" y2="42.3091" gradientUnits="userSpaceOnUse">
<stop stop-color="#EA00D5"/>
<stop offset="0.5168" stop-color="#3D5EFF"/>
<stop offset="1" stop-color="#00EAF2"/>
</linearGradient>
<linearGradient id="paint47_linear_366_7039" x1="-0.926877" y1="43.1864" x2="41.0219" y2="43.1864" gradientUnits="userSpaceOnUse">
<stop stop-color="#EA00D5"/>
<stop offset="0.5168" stop-color="#3D5EFF"/>
<stop offset="1" stop-color="#00EAF2"/>
</linearGradient>
<linearGradient id="paint48_linear_366_7039" x1="-0.929268" y1="13.3454" x2="41.0194" y2="13.3454" gradientUnits="userSpaceOnUse">
<stop stop-color="#EA00D5"/>
<stop offset="0.5168" stop-color="#3D5EFF"/>
<stop offset="1" stop-color="#00EAF2"/>
</linearGradient>
<linearGradient id="paint49_linear_366_7039" x1="-0.930086" y1="17.9051" x2="41.0185" y2="17.9051" gradientUnits="userSpaceOnUse">
<stop stop-color="#EA00D5"/>
<stop offset="0.5168" stop-color="#3D5EFF"/>
<stop offset="1" stop-color="#00EAF2"/>
</linearGradient>
<linearGradient id="paint50_linear_366_7039" x1="-0.929443" y1="22.9634" x2="41.0193" y2="22.9634" gradientUnits="userSpaceOnUse">
<stop stop-color="#EA00D5"/>
<stop offset="0.5168" stop-color="#3D5EFF"/>
<stop offset="1" stop-color="#00EAF2"/>
</linearGradient>
<linearGradient id="paint51_linear_366_7039" x1="-0.92885" y1="27.9404" x2="41.0199" y2="27.9404" gradientUnits="userSpaceOnUse">
<stop stop-color="#EA00D5"/>
<stop offset="0.5168" stop-color="#3D5EFF"/>
<stop offset="1" stop-color="#00EAF2"/>
</linearGradient>
<linearGradient id="paint52_linear_366_7039" x1="-0.927459" y1="32.6084" x2="41.0213" y2="32.6084" gradientUnits="userSpaceOnUse">
<stop stop-color="#EA00D5"/>
<stop offset="0.5168" stop-color="#3D5EFF"/>
<stop offset="1" stop-color="#00EAF2"/>
</linearGradient>
<linearGradient id="paint53_linear_366_7039" x1="-0.928793" y1="36.7517" x2="41.0199" y2="36.7517" gradientUnits="userSpaceOnUse">
<stop stop-color="#EA00D5"/>
<stop offset="0.5168" stop-color="#3D5EFF"/>
<stop offset="1" stop-color="#00EAF2"/>
</linearGradient>
<linearGradient id="paint54_linear_366_7039" x1="-0.928617" y1="40.027" x2="41.0201" y2="40.027" gradientUnits="userSpaceOnUse">
<stop stop-color="#EA00D5"/>
<stop offset="0.5168" stop-color="#3D5EFF"/>
<stop offset="1" stop-color="#00EAF2"/>
</linearGradient>
<linearGradient id="paint55_linear_366_7039" x1="-0.929025" y1="42.1327" x2="41.0198" y2="42.1327" gradientUnits="userSpaceOnUse">
<stop stop-color="#EA00D5"/>
<stop offset="0.5168" stop-color="#3D5EFF"/>
<stop offset="1" stop-color="#00EAF2"/>
</linearGradient>
<linearGradient id="paint56_linear_366_7039" x1="-0.929552" y1="43.0344" x2="41.0192" y2="43.0344" gradientUnits="userSpaceOnUse">
<stop stop-color="#EA00D5"/>
<stop offset="0.5168" stop-color="#3D5EFF"/>
<stop offset="1" stop-color="#00EAF2"/>
</linearGradient>
<linearGradient id="paint57_linear_366_7039" x1="-0.929054" y1="12.9674" x2="41.0199" y2="12.9674" gradientUnits="userSpaceOnUse">
<stop stop-color="#EA00D5"/>
<stop offset="0.5168" stop-color="#3D5EFF"/>
<stop offset="1" stop-color="#00EAF2"/>
</linearGradient>
<linearGradient id="paint58_linear_366_7039" x1="-0.927669" y1="17.3037" x2="41.0211" y2="17.3037" gradientUnits="userSpaceOnUse">
<stop stop-color="#EA00D5"/>
<stop offset="0.5168" stop-color="#3D5EFF"/>
<stop offset="1" stop-color="#00EAF2"/>
</linearGradient>
<linearGradient id="paint59_linear_366_7039" x1="-0.927953" y1="22.1307" x2="41.0208" y2="22.1307" gradientUnits="userSpaceOnUse">
<stop stop-color="#EA00D5"/>
<stop offset="0.5168" stop-color="#3D5EFF"/>
<stop offset="1" stop-color="#00EAF2"/>
</linearGradient>
<linearGradient id="paint60_linear_366_7039" x1="-0.930007" y1="26.9268" x2="41.0187" y2="26.9268" gradientUnits="userSpaceOnUse">
<stop stop-color="#EA00D5"/>
<stop offset="0.5168" stop-color="#3D5EFF"/>
<stop offset="1" stop-color="#00EAF2"/>
</linearGradient>
<linearGradient id="paint61_linear_366_7039" x1="-0.930549" y1="31.4731" x2="41.0182" y2="31.4731" gradientUnits="userSpaceOnUse">
<stop stop-color="#EA00D5"/>
<stop offset="0.5168" stop-color="#3D5EFF"/>
<stop offset="1" stop-color="#00EAF2"/>
</linearGradient>
<linearGradient id="paint62_linear_366_7039" x1="-0.929835" y1="35.5533" x2="41.019" y2="35.5533" gradientUnits="userSpaceOnUse">
<stop stop-color="#EA00D5"/>
<stop offset="0.5168" stop-color="#3D5EFF"/>
<stop offset="1" stop-color="#00EAF2"/>
</linearGradient>
<linearGradient id="paint63_linear_366_7039" x1="-0.927864" y1="38.8468" x2="41.0209" y2="38.8468" gradientUnits="userSpaceOnUse">
<stop stop-color="#EA00D5"/>
<stop offset="0.5168" stop-color="#3D5EFF"/>
<stop offset="1" stop-color="#00EAF2"/>
</linearGradient>
<linearGradient id="paint64_linear_366_7039" x1="-0.92987" y1="41.0364" x2="41.0188" y2="41.0364" gradientUnits="userSpaceOnUse">
<stop stop-color="#EA00D5"/>
<stop offset="0.5168" stop-color="#3D5EFF"/>
<stop offset="1" stop-color="#00EAF2"/>
</linearGradient>
<linearGradient id="paint65_linear_366_7039" x1="-0.927588" y1="42.0909" x2="41.0212" y2="42.0909" gradientUnits="userSpaceOnUse">
<stop stop-color="#EA00D5"/>
<stop offset="0.5168" stop-color="#3D5EFF"/>
<stop offset="1" stop-color="#00EAF2"/>
</linearGradient>
<linearGradient id="paint66_linear_366_7039" x1="-0.927328" y1="41.9947" x2="41.0214" y2="41.9947" gradientUnits="userSpaceOnUse">
<stop stop-color="#EA00D5"/>
<stop offset="0.5168" stop-color="#3D5EFF"/>
<stop offset="1" stop-color="#00EAF2"/>
</linearGradient>
<linearGradient id="paint67_linear_366_7039" x1="-0.927401" y1="12.3097" x2="41.0213" y2="12.3097" gradientUnits="userSpaceOnUse">
<stop stop-color="#EA00D5"/>
<stop offset="0.5168" stop-color="#3D5EFF"/>
<stop offset="1" stop-color="#00EAF2"/>
</linearGradient>
<linearGradient id="paint68_linear_366_7039" x1="-0.927076" y1="16.2622" x2="41.0217" y2="16.2622" gradientUnits="userSpaceOnUse">
<stop stop-color="#EA00D5"/>
<stop offset="0.5168" stop-color="#3D5EFF"/>
<stop offset="1" stop-color="#00EAF2"/>
</linearGradient>
<linearGradient id="paint69_linear_366_7039" x1="-0.929895" y1="20.6958" x2="41.0189" y2="20.6958" gradientUnits="userSpaceOnUse">
<stop stop-color="#EA00D5"/>
<stop offset="0.5168" stop-color="#3D5EFF"/>
<stop offset="1" stop-color="#00EAF2"/>
</linearGradient>
<linearGradient id="paint70_linear_366_7039" x1="-0.927675" y1="25.1937" x2="41.0211" y2="25.1937" gradientUnits="userSpaceOnUse">
<stop stop-color="#EA00D5"/>
<stop offset="0.5168" stop-color="#3D5EFF"/>
<stop offset="1" stop-color="#00EAF2"/>
</linearGradient>
<linearGradient id="paint71_linear_366_7039" x1="-0.926828" y1="29.5183" x2="41.0219" y2="29.5183" gradientUnits="userSpaceOnUse">
<stop stop-color="#EA00D5"/>
<stop offset="0.5168" stop-color="#3D5EFF"/>
<stop offset="1" stop-color="#00EAF2"/>
</linearGradient>
<linearGradient id="paint72_linear_366_7039" x1="-0.927953" y1="33.4961" x2="41.0208" y2="33.4961" gradientUnits="userSpaceOnUse">
<stop stop-color="#EA00D5"/>
<stop offset="0.5168" stop-color="#3D5EFF"/>
<stop offset="1" stop-color="#00EAF2"/>
</linearGradient>
<linearGradient id="paint73_linear_366_7039" x1="-0.929525" y1="36.832" x2="41.0193" y2="36.832" gradientUnits="userSpaceOnUse">
<stop stop-color="#EA00D5"/>
<stop offset="0.5168" stop-color="#3D5EFF"/>
<stop offset="1" stop-color="#00EAF2"/>
</linearGradient>
<linearGradient id="paint74_linear_366_7039" x1="-0.928942" y1="39.1639" x2="41.0198" y2="39.1639" gradientUnits="userSpaceOnUse">
<stop stop-color="#EA00D5"/>
<stop offset="0.5168" stop-color="#3D5EFF"/>
<stop offset="1" stop-color="#00EAF2"/>
</linearGradient>
<linearGradient id="paint75_linear_366_7039" x1="-0.929588" y1="40.4614" x2="41.0191" y2="40.4614" gradientUnits="userSpaceOnUse">
<stop stop-color="#EA00D5"/>
<stop offset="0.5168" stop-color="#3D5EFF"/>
<stop offset="1" stop-color="#00EAF2"/>
</linearGradient>
<linearGradient id="paint76_linear_366_7039" x1="-0.929473" y1="40.7144" x2="41.0192" y2="40.7144" gradientUnits="userSpaceOnUse">
<stop stop-color="#EA00D5"/>
<stop offset="0.5168" stop-color="#3D5EFF"/>
<stop offset="1" stop-color="#00EAF2"/>
</linearGradient>
<linearGradient id="paint77_linear_366_7039" x1="-0.92866" y1="11.4558" x2="41.0201" y2="11.4558" gradientUnits="userSpaceOnUse">
<stop stop-color="#EA00D5"/>
<stop offset="0.5168" stop-color="#3D5EFF"/>
<stop offset="1" stop-color="#00EAF2"/>
</linearGradient>
<linearGradient id="paint78_linear_366_7039" x1="-0.929222" y1="14.8633" x2="41.0196" y2="14.8633" gradientUnits="userSpaceOnUse">
<stop stop-color="#EA00D5"/>
<stop offset="0.5168" stop-color="#3D5EFF"/>
<stop offset="1" stop-color="#00EAF2"/>
</linearGradient>
<linearGradient id="paint79_linear_366_7039" x1="-0.928684" y1="18.773" x2="41.0201" y2="18.773" gradientUnits="userSpaceOnUse">
<stop stop-color="#EA00D5"/>
<stop offset="0.5168" stop-color="#3D5EFF"/>
<stop offset="1" stop-color="#00EAF2"/>
</linearGradient>
<linearGradient id="paint80_linear_366_7039" x1="-0.929326" y1="22.8531" x2="41.0195" y2="22.8531" gradientUnits="userSpaceOnUse">
<stop stop-color="#EA00D5"/>
<stop offset="0.5168" stop-color="#3D5EFF"/>
<stop offset="1" stop-color="#00EAF2"/>
</linearGradient>
<linearGradient id="paint81_linear_366_7039" x1="-0.92962" y1="26.9058" x2="41.0191" y2="26.9058" gradientUnits="userSpaceOnUse">
<stop stop-color="#EA00D5"/>
<stop offset="0.5168" stop-color="#3D5EFF"/>
<stop offset="1" stop-color="#00EAF2"/>
</linearGradient>
<linearGradient id="paint82_linear_366_7039" x1="-0.929338" y1="30.7553" x2="41.0194" y2="30.7553" gradientUnits="userSpaceOnUse">
<stop stop-color="#EA00D5"/>
<stop offset="0.5168" stop-color="#3D5EFF"/>
<stop offset="1" stop-color="#00EAF2"/>
</linearGradient>
<linearGradient id="paint83_linear_366_7039" x1="-0.929022" y1="34.1172" x2="41.0197" y2="34.1172" gradientUnits="userSpaceOnUse">
<stop stop-color="#EA00D5"/>
<stop offset="0.5168" stop-color="#3D5EFF"/>
<stop offset="1" stop-color="#00EAF2"/>
</linearGradient>
<linearGradient id="paint84_linear_366_7039" x1="-0.928441" y1="36.6487" x2="41.0203" y2="36.6487" gradientUnits="userSpaceOnUse">
<stop stop-color="#EA00D5"/>
<stop offset="0.5168" stop-color="#3D5EFF"/>
<stop offset="1" stop-color="#00EAF2"/>
</linearGradient>
<linearGradient id="paint85_linear_366_7039" x1="-0.92675" y1="38.2822" x2="41.022" y2="38.2822" gradientUnits="userSpaceOnUse">
<stop stop-color="#EA00D5"/>
<stop offset="0.5168" stop-color="#3D5EFF"/>
<stop offset="1" stop-color="#00EAF2"/>
</linearGradient>
<linearGradient id="paint86_linear_366_7039" x1="-0.930059" y1="38.9903" x2="41.0186" y2="38.9903" gradientUnits="userSpaceOnUse">
<stop stop-color="#EA00D5"/>
<stop offset="0.5168" stop-color="#3D5EFF"/>
<stop offset="1" stop-color="#00EAF2"/>
</linearGradient>
<linearGradient id="paint87_linear_366_7039" x1="-0.927289" y1="10.439" x2="41.0214" y2="10.439" gradientUnits="userSpaceOnUse">
<stop stop-color="#EA00D5"/>
<stop offset="0.5168" stop-color="#3D5EFF"/>
<stop offset="1" stop-color="#00EAF2"/>
</linearGradient>
<linearGradient id="paint88_linear_366_7039" x1="-0.928358" y1="13.1866" x2="41.0204" y2="13.1866" gradientUnits="userSpaceOnUse">
<stop stop-color="#EA00D5"/>
<stop offset="0.5168" stop-color="#3D5EFF"/>
<stop offset="1" stop-color="#00EAF2"/>
</linearGradient>
<linearGradient id="paint89_linear_366_7039" x1="-0.928066" y1="16.4742" x2="41.0207" y2="16.4742" gradientUnits="userSpaceOnUse">
<stop stop-color="#EA00D5"/>
<stop offset="0.5168" stop-color="#3D5EFF"/>
<stop offset="1" stop-color="#00EAF2"/>
</linearGradient>
<linearGradient id="paint90_linear_366_7039" x1="-0.926796" y1="20.0518" x2="41.0219" y2="20.0518" gradientUnits="userSpaceOnUse">
<stop stop-color="#EA00D5"/>
<stop offset="0.5168" stop-color="#3D5EFF"/>
<stop offset="1" stop-color="#00EAF2"/>
</linearGradient>
<linearGradient id="paint91_linear_366_7039" x1="-0.927089" y1="23.7692" x2="41.0217" y2="23.7692" gradientUnits="userSpaceOnUse">
<stop stop-color="#EA00D5"/>
<stop offset="0.5168" stop-color="#3D5EFF"/>
<stop offset="1" stop-color="#00EAF2"/>
</linearGradient>
<linearGradient id="paint92_linear_366_7039" x1="-0.92704" y1="27.461" x2="41.0217" y2="27.461" gradientUnits="userSpaceOnUse">
<stop stop-color="#EA00D5"/>
<stop offset="0.5168" stop-color="#3D5EFF"/>
<stop offset="1" stop-color="#00EAF2"/>
</linearGradient>
<linearGradient id="paint93_linear_366_7039" x1="-0.928958" y1="30.8646" x2="41.0198" y2="30.8646" gradientUnits="userSpaceOnUse">
<stop stop-color="#EA00D5"/>
<stop offset="0.5168" stop-color="#3D5EFF"/>
<stop offset="1" stop-color="#00EAF2"/>
</linearGradient>
<linearGradient id="paint94_linear_366_7039" x1="-0.930009" y1="33.6332" x2="41.0187" y2="33.6332" gradientUnits="userSpaceOnUse">
<stop stop-color="#EA00D5"/>
<stop offset="0.5168" stop-color="#3D5EFF"/>
<stop offset="1" stop-color="#00EAF2"/>
</linearGradient>
<linearGradient id="paint95_linear_366_7039" x1="-0.928796" y1="35.6702" x2="41.02" y2="35.6702" gradientUnits="userSpaceOnUse">
<stop stop-color="#EA00D5"/>
<stop offset="0.5168" stop-color="#3D5EFF"/>
<stop offset="1" stop-color="#00EAF2"/>
</linearGradient>
<linearGradient id="paint96_linear_366_7039" x1="-0.928777" y1="36.9178" x2="41.0199" y2="36.9178" gradientUnits="userSpaceOnUse">
<stop stop-color="#EA00D5"/>
<stop offset="0.5168" stop-color="#3D5EFF"/>
<stop offset="1" stop-color="#00EAF2"/>
</linearGradient>
<linearGradient id="paint97_linear_366_7039" x1="-0.930328" y1="9.30783" x2="41.0185" y2="9.30783" gradientUnits="userSpaceOnUse">
<stop stop-color="#EA00D5"/>
<stop offset="0.5168" stop-color="#3D5EFF"/>
<stop offset="1" stop-color="#00EAF2"/>
</linearGradient>
<linearGradient id="paint98_linear_366_7039" x1="-0.929053" y1="11.3045" x2="41.0198" y2="11.3045" gradientUnits="userSpaceOnUse">
<stop stop-color="#EA00D5"/>
<stop offset="0.5168" stop-color="#3D5EFF"/>
<stop offset="1" stop-color="#00EAF2"/>
</linearGradient>
<linearGradient id="paint99_linear_366_7039" x1="-0.927111" y1="13.8987" x2="41.0217" y2="13.8987" gradientUnits="userSpaceOnUse">
<stop stop-color="#EA00D5"/>
<stop offset="0.5168" stop-color="#3D5EFF"/>
<stop offset="1" stop-color="#00EAF2"/>
</linearGradient>
<linearGradient id="paint100_linear_366_7039" x1="-0.927479" y1="16.916" x2="41.0213" y2="16.916" gradientUnits="userSpaceOnUse">
<stop stop-color="#EA00D5"/>
<stop offset="0.5168" stop-color="#3D5EFF"/>
<stop offset="1" stop-color="#00EAF2"/>
</linearGradient>
<linearGradient id="paint101_linear_366_7039" x1="-0.927247" y1="20.2576" x2="41.0215" y2="20.2576" gradientUnits="userSpaceOnUse">
<stop stop-color="#EA00D5"/>
<stop offset="0.5168" stop-color="#3D5EFF"/>
<stop offset="1" stop-color="#00EAF2"/>
</linearGradient>
<linearGradient id="paint102_linear_366_7039" x1="-0.929207" y1="23.7827" x2="41.0196" y2="23.7827" gradientUnits="userSpaceOnUse">
<stop stop-color="#EA00D5"/>
<stop offset="0.5168" stop-color="#3D5EFF"/>
<stop offset="1" stop-color="#00EAF2"/>
</linearGradient>
<linearGradient id="paint103_linear_366_7039" x1="-0.927645" y1="27.2317" x2="41.0211" y2="27.2317" gradientUnits="userSpaceOnUse">
<stop stop-color="#EA00D5"/>
<stop offset="0.5168" stop-color="#3D5EFF"/>
<stop offset="1" stop-color="#00EAF2"/>
</linearGradient>
<linearGradient id="paint104_linear_366_7039" x1="-0.930136" y1="30.2582" x2="41.0186" y2="30.2582" gradientUnits="userSpaceOnUse">
<stop stop-color="#EA00D5"/>
<stop offset="0.5168" stop-color="#3D5EFF"/>
<stop offset="1" stop-color="#00EAF2"/>
</linearGradient>
<linearGradient id="paint105_linear_366_7039" x1="-0.928071" y1="32.7487" x2="41.0206" y2="32.7487" gradientUnits="userSpaceOnUse">
<stop stop-color="#EA00D5"/>
<stop offset="0.5168" stop-color="#3D5EFF"/>
<stop offset="1" stop-color="#00EAF2"/>
</linearGradient>
<linearGradient id="paint106_linear_366_7039" x1="-0.929291" y1="34.6095" x2="41.0195" y2="34.6095" gradientUnits="userSpaceOnUse">
<stop stop-color="#EA00D5"/>
<stop offset="0.5168" stop-color="#3D5EFF"/>
<stop offset="1" stop-color="#00EAF2"/>
</linearGradient>
<linearGradient id="paint107_linear_366_7039" x1="-0.930322" y1="8.11058" x2="41.0184" y2="8.11058" gradientUnits="userSpaceOnUse">
<stop stop-color="#EA00D5"/>
<stop offset="0.5168" stop-color="#3D5EFF"/>
<stop offset="1" stop-color="#00EAF2"/>
</linearGradient>
<linearGradient id="paint108_linear_366_7039" x1="-0.927773" y1="9.28435" x2="41.021" y2="9.28435" gradientUnits="userSpaceOnUse">
<stop stop-color="#EA00D5"/>
<stop offset="0.5168" stop-color="#3D5EFF"/>
<stop offset="1" stop-color="#00EAF2"/>
</linearGradient>
<linearGradient id="paint109_linear_366_7039" x1="-0.929542" y1="11.1392" x2="41.0192" y2="11.1392" gradientUnits="userSpaceOnUse">
<stop stop-color="#EA00D5"/>
<stop offset="0.5168" stop-color="#3D5EFF"/>
<stop offset="1" stop-color="#00EAF2"/>
</linearGradient>
<linearGradient id="paint110_linear_366_7039" x1="-0.927193" y1="13.5837" x2="41.0216" y2="13.5837" gradientUnits="userSpaceOnUse">
<stop stop-color="#EA00D5"/>
<stop offset="0.5168" stop-color="#3D5EFF"/>
<stop offset="1" stop-color="#00EAF2"/>
</linearGradient>
<linearGradient id="paint111_linear_366_7039" x1="-0.929834" y1="16.5282" x2="41.0189" y2="16.5282" gradientUnits="userSpaceOnUse">
<stop stop-color="#EA00D5"/>
<stop offset="0.5168" stop-color="#3D5EFF"/>
<stop offset="1" stop-color="#00EAF2"/>
</linearGradient>
<linearGradient id="paint112_linear_366_7039" x1="-0.9296" y1="19.8605" x2="41.0192" y2="19.8605" gradientUnits="userSpaceOnUse">
<stop stop-color="#EA00D5"/>
<stop offset="0.5168" stop-color="#3D5EFF"/>
<stop offset="1" stop-color="#00EAF2"/>
</linearGradient>
<linearGradient id="paint113_linear_366_7039" x1="-0.92969" y1="23.3619" x2="41.019" y2="23.3619" gradientUnits="userSpaceOnUse">
<stop stop-color="#EA00D5"/>
<stop offset="0.5168" stop-color="#3D5EFF"/>
<stop offset="1" stop-color="#00EAF2"/>
</linearGradient>
<linearGradient id="paint114_linear_366_7039" x1="-0.928096" y1="26.6707" x2="41.0207" y2="26.6707" gradientUnits="userSpaceOnUse">
<stop stop-color="#EA00D5"/>
<stop offset="0.5168" stop-color="#3D5EFF"/>
<stop offset="1" stop-color="#00EAF2"/>
</linearGradient>
<linearGradient id="paint115_linear_366_7039" x1="-0.92833" y1="29.6415" x2="41.0205" y2="29.6415" gradientUnits="userSpaceOnUse">
<stop stop-color="#EA00D5"/>
<stop offset="0.5168" stop-color="#3D5EFF"/>
<stop offset="1" stop-color="#00EAF2"/>
</linearGradient>
<linearGradient id="paint116_linear_366_7039" x1="-0.92949" y1="32.0585" x2="41.0193" y2="32.0585" gradientUnits="userSpaceOnUse">
<stop stop-color="#EA00D5"/>
<stop offset="0.5168" stop-color="#3D5EFF"/>
<stop offset="1" stop-color="#00EAF2"/>
</linearGradient>
<linearGradient id="paint117_linear_366_7039" x1="-0.930331" y1="6.85682" x2="41.0184" y2="6.85682" gradientUnits="userSpaceOnUse">
<stop stop-color="#EA00D5"/>
<stop offset="0.5168" stop-color="#3D5EFF"/>
<stop offset="1" stop-color="#00EAF2"/>
</linearGradient>
<linearGradient id="paint118_linear_366_7039" x1="-0.92896" y1="7.20711" x2="41.0198" y2="7.20711" gradientUnits="userSpaceOnUse">
<stop stop-color="#EA00D5"/>
<stop offset="0.5168" stop-color="#3D5EFF"/>
<stop offset="1" stop-color="#00EAF2"/>
</linearGradient>
<linearGradient id="paint119_linear_366_7039" x1="-0.926875" y1="8.33441" x2="41.0219" y2="8.33441" gradientUnits="userSpaceOnUse">
<stop stop-color="#EA00D5"/>
<stop offset="0.5168" stop-color="#3D5EFF"/>
<stop offset="1" stop-color="#00EAF2"/>
</linearGradient>
<linearGradient id="paint120_linear_366_7039" x1="-0.929227" y1="10.1937" x2="41.0195" y2="10.1937" gradientUnits="userSpaceOnUse">
<stop stop-color="#EA00D5"/>
<stop offset="0.5168" stop-color="#3D5EFF"/>
<stop offset="1" stop-color="#00EAF2"/>
</linearGradient>
<linearGradient id="paint121_linear_366_7039" x1="-0.927184" y1="12.7279" x2="41.0216" y2="12.7279" gradientUnits="userSpaceOnUse">
<stop stop-color="#EA00D5"/>
<stop offset="0.5168" stop-color="#3D5EFF"/>
<stop offset="1" stop-color="#00EAF2"/>
</linearGradient>
<linearGradient id="paint122_linear_366_7039" x1="-0.927157" y1="15.8698" x2="41.0216" y2="15.8698" gradientUnits="userSpaceOnUse">
<stop stop-color="#EA00D5"/>
<stop offset="0.5168" stop-color="#3D5EFF"/>
<stop offset="1" stop-color="#00EAF2"/>
</linearGradient>
<linearGradient id="paint123_linear_366_7039" x1="-0.928248" y1="19.4314" x2="41.0206" y2="19.4314" gradientUnits="userSpaceOnUse">
<stop stop-color="#EA00D5"/>
<stop offset="0.5168" stop-color="#3D5EFF"/>
<stop offset="1" stop-color="#00EAF2"/>
</linearGradient>
<linearGradient id="paint124_linear_366_7039" x1="-0.927774" y1="23.0184" x2="41.021" y2="23.0184" gradientUnits="userSpaceOnUse">
<stop stop-color="#EA00D5"/>
<stop offset="0.5168" stop-color="#3D5EFF"/>
<stop offset="1" stop-color="#00EAF2"/>
</linearGradient>
<linearGradient id="paint125_linear_366_7039" x1="-0.928545" y1="26.4856" x2="41.0199" y2="26.4856" gradientUnits="userSpaceOnUse">
<stop stop-color="#EA00D5"/>
<stop offset="0.5168" stop-color="#3D5EFF"/>
<stop offset="1" stop-color="#00EAF2"/>
</linearGradient>
<linearGradient id="paint126_linear_366_7039" x1="-0.928357" y1="5.75176" x2="41.0204" y2="5.75176" gradientUnits="userSpaceOnUse">
<stop stop-color="#EA00D5"/>
<stop offset="0.5168" stop-color="#3D5EFF"/>
<stop offset="1" stop-color="#00EAF2"/>
</linearGradient>
<linearGradient id="paint127_linear_366_7039" x1="-0.927202" y1="5.27847" x2="41.0215" y2="5.27847" gradientUnits="userSpaceOnUse">
<stop stop-color="#EA00D5"/>
<stop offset="0.5168" stop-color="#3D5EFF"/>
<stop offset="1" stop-color="#00EAF2"/>
</linearGradient>
<linearGradient id="paint128_linear_366_7039" x1="-0.927032" y1="5.74163" x2="41.0217" y2="5.74163" gradientUnits="userSpaceOnUse">
<stop stop-color="#EA00D5"/>
<stop offset="0.5168" stop-color="#3D5EFF"/>
<stop offset="1" stop-color="#00EAF2"/>
</linearGradient>
<linearGradient id="paint129_linear_366_7039" x1="-0.928022" y1="7.07071" x2="41.0207" y2="7.07071" gradientUnits="userSpaceOnUse">
<stop stop-color="#EA00D5"/>
<stop offset="0.5168" stop-color="#3D5EFF"/>
<stop offset="1" stop-color="#00EAF2"/>
</linearGradient>
<linearGradient id="paint130_linear_366_7039" x1="-0.928146" y1="9.23494" x2="41.0206" y2="9.23494" gradientUnits="userSpaceOnUse">
<stop stop-color="#EA00D5"/>
<stop offset="0.5168" stop-color="#3D5EFF"/>
<stop offset="1" stop-color="#00EAF2"/>
</linearGradient>
<linearGradient id="paint131_linear_366_7039" x1="-0.927067" y1="12.2059" x2="41.0216" y2="12.2059" gradientUnits="userSpaceOnUse">
<stop stop-color="#EA00D5"/>
<stop offset="0.5168" stop-color="#3D5EFF"/>
<stop offset="1" stop-color="#00EAF2"/>
</linearGradient>
<linearGradient id="paint132_linear_366_7039" x1="-0.926576" y1="15.8099" x2="41.022" y2="15.8099" gradientUnits="userSpaceOnUse">
<stop stop-color="#EA00D5"/>
<stop offset="0.5168" stop-color="#3D5EFF"/>
<stop offset="1" stop-color="#00EAF2"/>
</linearGradient>
<linearGradient id="paint133_linear_366_7039" x1="-0.928468" y1="19.6676" x2="41.0207" y2="19.6676" gradientUnits="userSpaceOnUse">
<stop stop-color="#EA00D5"/>
<stop offset="0.5168" stop-color="#3D5EFF"/>
<stop offset="1" stop-color="#00EAF2"/>
</linearGradient>
<linearGradient id="paint134_linear_366_7039" x1="-0.92983" y1="4.84013" x2="41.019" y2="4.84013" gradientUnits="userSpaceOnUse">
<stop stop-color="#EA00D5"/>
<stop offset="0.5168" stop-color="#3D5EFF"/>
<stop offset="1" stop-color="#00EAF2"/>
</linearGradient>
<linearGradient id="paint135_linear_366_7039" x1="-0.927553" y1="3.68747" x2="41.0212" y2="3.68747" gradientUnits="userSpaceOnUse">
<stop stop-color="#EA00D5"/>
<stop offset="0.5168" stop-color="#3D5EFF"/>
<stop offset="1" stop-color="#00EAF2"/>
</linearGradient>
<linearGradient id="paint136_linear_366_7039" x1="-0.927025" y1="3.57656" x2="41.0217" y2="3.57656" gradientUnits="userSpaceOnUse">
<stop stop-color="#EA00D5"/>
<stop offset="0.5168" stop-color="#3D5EFF"/>
<stop offset="1" stop-color="#00EAF2"/>
</linearGradient>
<linearGradient id="paint137_linear_366_7039" x1="-0.92917" y1="4.46385" x2="41.0196" y2="4.46385" gradientUnits="userSpaceOnUse">
<stop stop-color="#EA00D5"/>
<stop offset="0.5168" stop-color="#3D5EFF"/>
<stop offset="1" stop-color="#00EAF2"/>
</linearGradient>
<linearGradient id="paint138_linear_366_7039" x1="-0.929159" y1="6.32345" x2="41.0196" y2="6.32345" gradientUnits="userSpaceOnUse">
<stop stop-color="#EA00D5"/>
<stop offset="0.5168" stop-color="#3D5EFF"/>
<stop offset="1" stop-color="#00EAF2"/>
</linearGradient>
<linearGradient id="paint139_linear_366_7039" x1="-0.929368" y1="9.15116" x2="41.0195" y2="9.15116" gradientUnits="userSpaceOnUse">
<stop stop-color="#EA00D5"/>
<stop offset="0.5168" stop-color="#3D5EFF"/>
<stop offset="1" stop-color="#00EAF2"/>
</linearGradient>
<linearGradient id="paint140_linear_366_7039" x1="-0.926551" y1="12.7972" x2="41.0222" y2="12.7972" gradientUnits="userSpaceOnUse">
<stop stop-color="#EA00D5"/>
<stop offset="0.5168" stop-color="#3D5EFF"/>
<stop offset="1" stop-color="#00EAF2"/>
</linearGradient>
<linearGradient id="paint141_linear_366_7039" x1="-0.928375" y1="4.11771" x2="41.0204" y2="4.11771" gradientUnits="userSpaceOnUse">
<stop stop-color="#EA00D5"/>
<stop offset="0.5168" stop-color="#3D5EFF"/>
<stop offset="1" stop-color="#00EAF2"/>
</linearGradient>
<linearGradient id="paint142_linear_366_7039" x1="-0.926989" y1="2.50702" x2="41.0217" y2="2.50702" gradientUnits="userSpaceOnUse">
<stop stop-color="#EA00D5"/>
<stop offset="0.5168" stop-color="#3D5EFF"/>
<stop offset="1" stop-color="#00EAF2"/>
</linearGradient>
<linearGradient id="paint143_linear_366_7039" x1="-0.927667" y1="1.90905" x2="41.0212" y2="1.90905" gradientUnits="userSpaceOnUse">
<stop stop-color="#EA00D5"/>
<stop offset="0.5168" stop-color="#3D5EFF"/>
<stop offset="1" stop-color="#00EAF2"/>
</linearGradient>
<linearGradient id="paint144_linear_366_7039" x1="-0.928792" y1="2.45483" x2="41.0199" y2="2.45483" gradientUnits="userSpaceOnUse">
<stop stop-color="#EA00D5"/>
<stop offset="0.5168" stop-color="#3D5EFF"/>
<stop offset="1" stop-color="#00EAF2"/>
</linearGradient>
<linearGradient id="paint145_linear_366_7039" x1="-0.929792" y1="4.07924" x2="41.0189" y2="4.07924" gradientUnits="userSpaceOnUse">
<stop stop-color="#EA00D5"/>
<stop offset="0.5168" stop-color="#3D5EFF"/>
<stop offset="1" stop-color="#00EAF2"/>
</linearGradient>
<linearGradient id="paint146_linear_366_7039" x1="-0.926596" y1="6.78235" x2="41.0221" y2="6.78235" gradientUnits="userSpaceOnUse">
<stop stop-color="#EA00D5"/>
<stop offset="0.5168" stop-color="#3D5EFF"/>
<stop offset="1" stop-color="#00EAF2"/>
</linearGradient>
<linearGradient id="paint147_linear_366_7039" x1="-0.927524" y1="3.62047" x2="41.0212" y2="3.62047" gradientUnits="userSpaceOnUse">
<stop stop-color="#EA00D5"/>
<stop offset="0.5168" stop-color="#3D5EFF"/>
<stop offset="1" stop-color="#00EAF2"/>
</linearGradient>
<linearGradient id="paint148_linear_366_7039" x1="-0.927475" y1="1.74002" x2="41.0213" y2="1.74002" gradientUnits="userSpaceOnUse">
<stop stop-color="#EA00D5"/>
<stop offset="0.5168" stop-color="#3D5EFF"/>
<stop offset="1" stop-color="#00EAF2"/>
</linearGradient>
<linearGradient id="paint149_linear_366_7039" x1="-0.930007" y1="0.808419" x2="41.0188" y2="0.808419" gradientUnits="userSpaceOnUse">
<stop stop-color="#EA00D5"/>
<stop offset="0.5168" stop-color="#3D5EFF"/>
<stop offset="1" stop-color="#00EAF2"/>
</linearGradient>
<linearGradient id="paint150_linear_366_7039" x1="-0.927017" y1="1.12186" x2="41.0217" y2="1.12186" gradientUnits="userSpaceOnUse">
<stop stop-color="#EA00D5"/>
<stop offset="0.5168" stop-color="#3D5EFF"/>
<stop offset="1" stop-color="#00EAF2"/>
</linearGradient>
<linearGradient id="paint151_linear_366_7039" x1="-0.927585" y1="2.46053" x2="41.0212" y2="2.46053" gradientUnits="userSpaceOnUse">
<stop stop-color="#EA00D5"/>
<stop offset="0.5168" stop-color="#3D5EFF"/>
<stop offset="1" stop-color="#00EAF2"/>
</linearGradient>
<linearGradient id="paint152_linear_366_7039" x1="-0.929705" y1="3.38015" x2="41.0191" y2="3.38015" gradientUnits="userSpaceOnUse">
<stop stop-color="#EA00D5"/>
<stop offset="0.5168" stop-color="#3D5EFF"/>
<stop offset="1" stop-color="#00EAF2"/>
</linearGradient>
<linearGradient id="paint153_linear_366_7039" x1="-0.930147" y1="1.40316" x2="41.0186" y2="1.40316" gradientUnits="userSpaceOnUse">
<stop stop-color="#EA00D5"/>
<stop offset="0.5168" stop-color="#3D5EFF"/>
<stop offset="1" stop-color="#00EAF2"/>
</linearGradient>
<linearGradient id="paint154_linear_366_7039" x1="-0.928563" y1="0.363415" x2="41.0202" y2="0.363415" gradientUnits="userSpaceOnUse">
<stop stop-color="#EA00D5"/>
<stop offset="0.5168" stop-color="#3D5EFF"/>
<stop offset="1" stop-color="#00EAF2"/>
</linearGradient>
<linearGradient id="paint155_linear_366_7039" x1="-0.929029" y1="0.380322" x2="41.0197" y2="0.380322" gradientUnits="userSpaceOnUse">
<stop stop-color="#EA00D5"/>
<stop offset="0.5168" stop-color="#3D5EFF"/>
<stop offset="1" stop-color="#00EAF2"/>
</linearGradient>
<linearGradient id="paint156_linear_366_7039" x1="-0.927976" y1="3.48646" x2="41.0209" y2="3.48646" gradientUnits="userSpaceOnUse">
<stop stop-color="#EA00D5"/>
<stop offset="0.5168" stop-color="#3D5EFF"/>
<stop offset="1" stop-color="#00EAF2"/>
</linearGradient>
<linearGradient id="paint157_linear_366_7039" x1="-0.927907" y1="1.52191" x2="41.0208" y2="1.52191" gradientUnits="userSpaceOnUse">
<stop stop-color="#EA00D5"/>
<stop offset="0.5168" stop-color="#3D5EFF"/>
<stop offset="1" stop-color="#00EAF2"/>
</linearGradient>
<linearGradient id="paint158_linear_366_7039" x1="-0.928661" y1="0.52137" x2="41.0201" y2="0.52137" gradientUnits="userSpaceOnUse">
<stop stop-color="#EA00D5"/>
<stop offset="0.5168" stop-color="#3D5EFF"/>
<stop offset="1" stop-color="#00EAF2"/>
</linearGradient>
</defs>
</svg>
