<svg width="33" height="36" viewBox="0 0 33 36" fill="none" xmlns="http://www.w3.org/2000/svg">
<path d="M16.4456 0.888424L1.44191 8.39027C1.0783 8.57208 0.84914 8.94334 0.84914 9.34953V26.4966C0.846747 26.9047 1.07688 27.2788 1.44191 27.4611L16.4456 34.963C16.747 35.1137 17.102 35.1137 17.4034 34.963L32.4071 27.4611C32.7722 27.2788 33.0023 26.9047 32.9999 26.4966V9.34953C32.9999 8.94334 32.7707 8.57207 32.4071 8.39027L17.4034 0.888424C17.102 0.737713 16.747 0.737713 16.4456 0.888424ZM30.8565 10.0116V25.8347L16.9245 32.8007L2.9925 25.8347V10.0116L16.9245 3.04565L30.8565 10.0116Z" fill="url(#paint0_linear_337_4282)"/>
<defs>
<linearGradient id="paint0_linear_337_4282" x1="16.9245" y1="0.775391" x2="16.9245" y2="35.076" gradientUnits="userSpaceOnUse">
<stop stop-color="#03C4CB"/>
<stop offset="1" stop-color="#D90ADA"/>
</linearGradient>
</defs>
</svg>
