<svg width="30" height="30" viewBox="0 0 30 30" fill="none" xmlns="http://www.w3.org/2000/svg">
<path d="M27.744 5.4405C28.4035 5.67229 28.9748 6.10316 29.379 6.67361C29.7831 7.24405 30.0001 7.92591 30 8.625V23.625C30 25.3158 29.3284 26.9373 28.1328 28.1328C26.9373 29.3284 25.3158 30 23.625 30H8.625C7.92591 30.0001 7.24405 29.7831 6.67361 29.379C6.10316 28.9748 5.67229 28.4035 5.4405 27.744L8.586 27.75H23.625C24.719 27.75 25.7682 27.3154 26.5418 26.5418C27.3154 25.7682 27.75 24.719 27.75 23.625V8.625L27.744 8.5485V5.4405ZM22.869 0C23.7641 0 24.6226 0.355579 25.2555 0.988515C25.8884 1.62145 26.244 2.47989 26.244 3.375V22.8705C26.244 23.7656 25.8884 24.6241 25.2555 25.257C24.6226 25.8899 23.7641 26.2455 22.869 26.2455H3.375C2.47989 26.2455 1.62145 25.8899 0.988515 25.257C0.355579 24.6241 0 23.7656 0 22.8705V3.375C0 2.47989 0.355579 1.62145 0.988515 0.988515C1.62145 0.355579 2.47989 0 3.375 0H22.8705H22.869ZM22.869 2.25H3.375C3.07663 2.25 2.79048 2.36853 2.5795 2.5795C2.36853 2.79048 2.25 3.07663 2.25 3.375V22.8705C2.25 23.4915 2.754 23.9955 3.375 23.9955H22.8705C23.1689 23.9955 23.455 23.877 23.666 23.666C23.877 23.455 23.9955 23.1689 23.9955 22.8705V3.375C23.9955 3.07663 23.877 2.79048 23.666 2.5795C23.455 2.36853 23.1689 2.25 22.8705 2.25H22.869ZM11.3715 14.037L17.205 8.205C17.406 8.00556 17.6748 7.88926 17.9578 7.87929C18.2408 7.86933 18.5171 7.96644 18.7316 8.15124C18.9462 8.33604 19.0831 8.59495 19.1152 8.87628C19.1472 9.15762 19.072 9.44069 18.9045 9.669L18.795 9.795L12.045 16.545C11.8351 16.7546 11.5509 16.8729 11.2542 16.874C10.9576 16.8752 10.6725 16.7591 10.461 16.551L10.35 16.425L8.1 13.425C7.92884 13.1979 7.85004 12.9144 7.87944 12.6316C7.90885 12.3487 8.04428 12.0875 8.2585 11.9004C8.47271 11.7134 8.74981 11.6144 9.03405 11.6235C9.31828 11.6325 9.58856 11.7488 9.7905 11.949L9.9 12.075L11.3715 14.037L17.205 8.205L11.37 14.037H11.3715Z" fill="url(#paint0_linear_337_4296)"/>
<defs>
<linearGradient id="paint0_linear_337_4296" x1="15" y1="0" x2="15" y2="30" gradientUnits="userSpaceOnUse">
<stop stop-color="#03C4CB"/>
<stop offset="1" stop-color="#D90ADA"/>
</linearGradient>
</defs>
</svg>
