<svg width="32" height="31" viewBox="0 0 32 31" fill="none" xmlns="http://www.w3.org/2000/svg">
<path d="M2.625 3.875C2.28 3.875 1.95 3.93275 1.64175 4.04C1.89759 3.02829 2.48357 2.13081 3.30691 1.48963C4.13026 0.848447 5.14394 0.500195 6.1875 0.5H23.8125C25.0557 0.5 26.248 0.99386 27.1271 1.87294C28.0061 2.75201 28.5 3.9443 28.5 5.1875V14.033C27.915 13.658 27.2865 13.3437 26.625 13.1V5.1875C26.625 4.44158 26.3287 3.72621 25.8012 3.19876C25.2738 2.67132 24.5584 2.375 23.8125 2.375H6.1875C5.64369 2.37478 5.11147 2.53222 4.65529 2.82826C4.19912 3.1243 3.83855 3.54625 3.61725 4.043C3.29835 3.93143 2.96286 3.87463 2.625 3.875V3.875ZM14.1 25.625C14.3438 26.2865 14.658 26.915 15.033 27.5H6.1875C4.9443 27.5 3.75202 27.0061 2.87294 26.1271C1.99386 25.248 1.5 24.0557 1.5 22.8125V9.6575C2.09574 9.89795 2.75283 9.94132 3.375 9.78125V22.8125C3.375 23.5584 3.67132 24.2738 4.19876 24.8012C4.72621 25.3287 5.44158 25.625 6.1875 25.625H14.1ZM14.805 17.375C15.1981 16.6957 15.6715 16.0662 16.215 15.5H9.9375C9.68886 15.5 9.4504 15.5988 9.27459 15.7746C9.09877 15.9504 9 16.1889 9 16.4375C9 16.6861 9.09877 16.9246 9.27459 17.1004C9.4504 17.2762 9.68886 17.375 9.9375 17.375H14.805ZM2.625 5C2.37866 4.9996 2.13467 5.04783 1.907 5.14192C1.67934 5.23601 1.47248 5.37411 1.2983 5.54829C1.12411 5.72248 0.986011 5.92934 0.891923 6.157C0.797836 6.38467 0.749607 6.62866 0.750002 6.875C0.749607 7.12134 0.797836 7.36533 0.891923 7.593C0.986011 7.82066 1.12411 8.02752 1.2983 8.20171C1.47248 8.37589 1.67934 8.51399 1.907 8.60808C2.13467 8.70217 2.37866 8.7504 2.625 8.75C3.12228 8.75 3.5992 8.55246 3.95083 8.20083C4.30246 7.84919 4.5 7.37228 4.5 6.875C4.5 6.37772 4.30246 5.90081 3.95083 5.54917C3.5992 5.19754 3.12228 5 2.625 5V5ZM9.9375 10.25C9.81439 10.25 9.69248 10.2742 9.57874 10.3214C9.46499 10.3685 9.36164 10.4375 9.27459 10.5246C9.18753 10.6116 9.11848 10.715 9.07136 10.8287C9.02425 10.9425 9 11.0644 9 11.1875C9 11.3106 9.02425 11.4325 9.07136 11.5463C9.11848 11.66 9.18753 11.7634 9.27459 11.8504C9.36164 11.9375 9.46499 12.0065 9.57874 12.0536C9.69248 12.1008 9.81439 12.125 9.9375 12.125H20.0625C20.1856 12.125 20.3075 12.1008 20.4213 12.0536C20.535 12.0065 20.6384 11.9375 20.7254 11.8504C20.8125 11.7634 20.8815 11.66 20.9286 11.5463C20.9758 11.4325 21 11.3106 21 11.1875C21 11.0644 20.9758 10.9425 20.9286 10.8287C20.8815 10.715 20.8125 10.6116 20.7254 10.5246C20.6384 10.4375 20.535 10.3685 20.4213 10.3214C20.3075 10.2742 20.1856 10.25 20.0625 10.25H9.9375ZM31.5 22.25C31.5 26.8062 27.8063 30.5 23.25 30.5C18.6938 30.5 15 26.8062 15 22.25C15 17.6938 18.6938 14 23.25 14C27.8063 14 31.5 17.6938 31.5 22.25ZM23.25 17C22.2554 17 21.3016 17.3951 20.5984 18.0983C19.8951 18.8016 19.5 19.7554 19.5 20.75V23.2865L18.7898 24.707C18.7611 24.7642 18.7476 24.8277 18.7504 24.8916C18.7532 24.9555 18.7723 25.0176 18.8059 25.072C18.8395 25.1264 18.8865 25.1713 18.9423 25.2025C18.9982 25.2336 19.0611 25.25 19.125 25.25H27.375C27.439 25.25 27.5018 25.2336 27.5577 25.2025C27.6135 25.1713 27.6605 25.1264 27.6941 25.072C27.7277 25.0176 27.7468 24.9555 27.7496 24.8916C27.7525 24.8277 27.7389 24.7642 27.7103 24.707L27 23.2865V20.75C27 19.7554 26.6049 18.8016 25.9017 18.0983C25.1984 17.3951 24.2446 17 23.25 17ZM21.75 26C21.75 26.3978 21.908 26.7794 22.1893 27.0607C22.4706 27.342 22.8522 27.5 23.25 27.5C23.6478 27.5 24.0294 27.342 24.3107 27.0607C24.592 26.7794 24.75 26.3978 24.75 26H21.75Z" fill="url(#paint0_linear_337_4079)"/>
<defs>
<linearGradient id="paint0_linear_337_4079" x1="16.125" y1="0.5" x2="16.125" y2="30.5" gradientUnits="userSpaceOnUse">
<stop stop-color="#03C4CB"/>
<stop offset="1" stop-color="#D90ADA"/>
</linearGradient>
</defs>
</svg>
