<svg width="16" height="15" viewBox="0 0 16 15" fill="none" xmlns="http://www.w3.org/2000/svg">
<path d="M12.1623 15H3.68496V5.4L8.99284 0L9.73747 0.58125C9.81384 0.64375 9.87112 0.73125 9.90931 0.84375C9.94749 0.95625 9.96659 1.09375 9.96659 1.25625V1.44375L9.1074 5.4H14.8162C15.1217 5.4 15.389 5.5125 15.6181 5.7375C15.8473 5.9625 15.9618 6.225 15.9618 6.525V8.0625C15.9618 8.15 15.9714 8.24063 15.9905 8.33438C16.0095 8.42813 16 8.51875 15.9618 8.60625L13.5561 14.0438C13.4415 14.3063 13.2538 14.5312 12.9928 14.7188C12.7319 14.9062 12.4551 15 12.1623 15ZM4.83055 13.875H12.4105L14.8162 8.26875V6.525H7.69451L8.70644 1.85625L4.83055 5.86875V13.875ZM4.83055 5.86875V13.875V5.86875ZM3.68496 5.4V6.525H1.14558V13.875H3.68496V15H0V5.4H3.68496Z" fill="white"/>
</svg>
