<svg width="18" height="15" viewBox="0 0 18 15" fill="none" xmlns="http://www.w3.org/2000/svg">
<path d="M5 7.49976C5 5.42847 6.79063 3.74976 9 3.74976C11.2094 3.74976 13 5.42847 13 7.49976C13 9.57104 11.2094 11.2498 9 11.2498C6.79063 11.2498 5 9.57104 5 7.49976ZM9 9.8435C10.3813 9.8435 11.5 8.79468 11.5 7.49976C11.5 6.20483 10.3813 5.15601 9 5.15601C8.97813 5.15601 8.95938 5.15601 8.90938 5.15601C8.97813 5.30542 9 5.46362 9 5.62476C9 6.65894 8.10313 7.49976 7 7.49976C6.82813 7.49976 6.65938 7.47925 6.5 7.41479C6.5 7.46167 6.5 7.47925 6.5 7.47339C6.5 8.79468 7.61875 9.8435 9 9.8435ZM2.98188 3.29858C4.45313 2.01655 6.475 0.937256 9 0.937256C11.525 0.937256 13.5469 2.01655 15.0188 3.29858C16.4813 4.57007 17.4594 6.06714 17.9219 7.1394C18.025 7.37085 18.025 7.62866 17.9219 7.86011C17.4594 8.906 16.4813 10.4031 15.0188 11.7009C13.5469 12.9841 11.525 14.0623 9 14.0623C6.475 14.0623 4.45313 12.9841 2.98188 11.7009C1.51938 10.4031 0.541879 8.906 0.0769102 7.86011C-0.0256367 7.62866 -0.0256367 7.37085 0.0769102 7.1394C0.541879 6.06714 1.51938 4.57007 2.98188 3.29858ZM9 2.34351C6.9625 2.34351 5.2875 3.21069 4.00313 4.3269C2.8 5.37573 1.96938 6.59448 1.545 7.49976C1.96938 8.37866 2.8 9.62378 4.00313 10.6726C5.2875 11.7888 6.9625 12.656 9 12.656C11.0375 12.656 12.7125 11.7888 13.9969 10.6726C15.2 9.62378 16.0031 8.37866 16.4563 7.49976C16.0031 6.59448 15.2 5.37573 13.9969 4.3269C12.7125 3.21069 11.0375 2.34351 9 2.34351Z" fill="white"/>
</svg>
