<svg width="31" height="32" viewBox="0 0 31 32" fill="none" xmlns="http://www.w3.org/2000/svg">
<path d="M10.3463 4.15823L3.6551 15.4135C2.33895 17.6274 1.92361 20.2936 2.50044 22.8255C3.07727 25.3574 4.59903 27.5476 6.73094 28.9144C8.86285 30.2812 11.4303 30.7125 13.8684 30.1135C16.3066 29.5144 18.4157 27.9342 19.7319 25.7203L28.0028 11.8077C28.8802 10.3318 29.1571 8.55433 28.7725 6.86639C28.388 5.17845 27.3735 3.71828 25.9522 2.8071C24.5309 1.89593 22.8193 1.60838 21.1939 2.00773C19.5684 2.40707 18.1623 3.46059 17.2849 4.93653L9.69058 17.711C9.47335 18.0764 9.32755 18.4827 9.26151 18.9066C9.19547 19.3305 9.21049 19.7638 9.30569 20.1817C9.4009 20.5996 9.57444 20.9939 9.81639 21.3422C10.0583 21.6904 10.364 21.9857 10.7159 22.2113V22.2113C11.4265 22.6669 12.2823 22.8107 13.095 22.611C13.9077 22.4113 14.6108 21.8846 15.0495 21.1466L20.9897 11.1546" stroke="#F9FCFD" stroke-width="3" stroke-linecap="round" stroke-linejoin="round"/>
</svg>
