<svg width="28" height="27" viewBox="0 0 28 27" fill="none" xmlns="http://www.w3.org/2000/svg">
<path d="M7.40162 0.851326H21.6464V17.2777L12.7274 26.5175L11.4761 25.5229C11.3478 25.416 11.2516 25.2663 11.1874 25.0738C11.1232 24.8813 11.0911 24.646 11.0911 24.368V24.0471L12.5349 17.2777H2.94213C2.4288 17.2777 1.97965 17.0852 1.59465 16.7002C1.20966 16.3152 1.01716 15.866 1.01716 15.3527V12.7219C1.01716 12.5722 1.00112 12.4171 0.969038 12.2567C0.936956 12.0963 0.952997 11.9413 1.01716 11.7915L5.05959 2.48755C5.25208 2.03839 5.56756 1.65339 6.00603 1.33257C6.44449 1.01174 6.90969 0.851326 7.40162 0.851326ZM19.7214 2.77629H6.98455L2.94213 12.369V15.3527H14.909L13.2086 23.3413L19.7214 16.4756V2.77629ZM19.7214 16.4756V2.77629V16.4756ZM21.6464 17.2777V15.3527H25.9134V2.77629H21.6464V0.851326H27.8383V17.2777H21.6464Z" fill="#8E8E8E"/>
</svg>
