<svg width="27" height="26" viewBox="0 0 27 26" fill="none" xmlns="http://www.w3.org/2000/svg">
<path d="M20.4344 25.6633H6.19127V9.23879L15.1093 0L16.3604 0.994453C16.4887 1.10138 16.5849 1.25109 16.6491 1.44356C16.7132 1.63604 16.7453 1.87128 16.7453 2.1493V2.47009L15.3017 9.23879H24.8934C25.4067 9.23879 25.8558 9.43126 26.2407 9.81621C26.6257 10.2012 26.8182 10.6503 26.8182 11.1635V13.794C26.8182 13.9437 26.8342 14.0988 26.8663 14.2592C26.8984 14.4196 26.8823 14.5746 26.8182 14.7243L22.7762 24.0273C22.5837 24.4764 22.2683 24.8613 21.8299 25.1821C21.3914 25.5029 20.9263 25.6633 20.4344 25.6633ZM8.11602 23.7386H20.8514L24.8934 14.1469V11.1635H12.9279L14.6281 3.17583L8.11602 10.0408V23.7386ZM8.11602 10.0408V23.7386V10.0408ZM6.19127 9.23879V11.1635H1.92475V23.7386H6.19127V25.6633H0V9.23879H6.19127Z" fill="#8E8E8E"/>
</svg>
