<svg width="28" height="28" viewBox="0 0 28 28" fill="none" xmlns="http://www.w3.org/2000/svg">
<mask id="path-1-outside-1_402_12267" maskUnits="userSpaceOnUse" x="1" y="4" width="26" height="20" fill="black">
<rect fill="white" x="1" y="4" width="26" height="20"/>
<path d="M11.121 13.9999H5.80036L4.0211 7.00872C4.00971 6.96809 4.00277 6.92637 4.0004 6.88428C3.9806 6.24338 4.69519 5.79894 5.31437 6.09227L22 13.9999L5.31437 21.9075C4.70239 22.1982 3.9968 21.7662 4.0004 21.1368C4.00222 21.0806 4.01223 21.0249 4.0301 20.9715L5.35037 16.6666"/>
</mask>
<path d="M5.80036 13.9999L3.86215 14.4932L4.24561 15.9999H5.80036V13.9999ZM4.0211 7.00872L5.95932 6.51544L5.95335 6.492L5.94682 6.46871L4.0211 7.00872ZM4.0004 6.88428L2.00136 6.94603L2.00214 6.9713L2.00356 6.99653L4.0004 6.88428ZM5.31437 6.09227L6.17089 4.28496L6.17063 4.28484L5.31437 6.09227ZM22 13.9999L22.8565 15.8072L26.6701 13.9999L22.8565 12.1926L22 13.9999ZM5.31437 21.9075L4.45786 20.1002L4.45632 20.1009L5.31437 21.9075ZM4.0004 21.1368L2.00145 21.0721L2.00059 21.0987L2.00044 21.1254L4.0004 21.1368ZM4.0301 20.9715L5.92674 21.6061L5.93477 21.5821L5.9422 21.5579L4.0301 20.9715ZM11.121 11.9999H5.80036V15.9999H11.121V11.9999ZM7.73858 13.5066L5.95932 6.51544L2.08289 7.502L3.86215 14.4932L7.73858 13.5066ZM5.94682 6.46871C5.97454 6.56755 5.99147 6.66925 5.99725 6.77202L2.00356 6.99653C2.01407 7.18349 2.04488 7.36864 2.09539 7.54873L5.94682 6.46871ZM5.99945 6.82252C6.01455 7.31122 5.73873 7.67501 5.45869 7.84571C5.17703 8.01739 4.79851 8.06097 4.45811 7.89971L6.17063 4.28484C4.35057 3.42259 1.93035 4.64757 2.00136 6.94603L5.99945 6.82252ZM4.45786 7.89958L21.1435 15.8072L22.8565 12.1926L6.17089 4.28496L4.45786 7.89958ZM21.1435 12.1926L4.45786 20.1002L6.17089 23.7148L22.8565 15.8072L21.1435 12.1926ZM4.45632 20.1009C4.79391 19.9406 5.16927 19.9817 5.44986 20.1488C5.72652 20.3135 6.00313 20.6655 6.00037 21.1483L2.00044 21.1254C1.98757 23.375 4.36341 24.5733 6.17243 23.7141L4.45632 20.1009ZM5.99935 21.2016C5.99488 21.3395 5.97035 21.4758 5.92674 21.6061L2.13347 20.3368C2.0541 20.574 2.00956 20.8217 2.00145 21.0721L5.99935 21.2016ZM5.9422 21.5579L7.26247 17.253L3.43828 16.0801L2.11801 20.3851L5.9422 21.5579Z" fill="white" mask="url(#path-1-outside-1_402_12267)"/>
</svg>
