<svg width="18" height="14" viewBox="0 0 18 14" fill="none" xmlns="http://www.w3.org/2000/svg">
<path d="M0.376696 6.17636C-0.125564 6.63191 -0.125564 7.37173 0.376696 7.82728L6.80563 13.6583C7.30789 14.1139 8.12356 14.1139 8.62582 13.6583C9.12808 13.2028 9.12808 12.463 8.62582 12.0074L4.38674 8.16621L16.7142 8.16621C17.4254 8.16621 18 7.64506 18 7C18 6.35494 17.4254 5.83379 16.7142 5.83379L4.39076 5.83379L8.6218 1.99258C9.12406 1.53703 9.12406 0.797215 8.6218 0.341664C8.11954 -0.113888 7.30387 -0.113888 6.80161 0.341664L0.372677 6.17272L0.376696 6.17636Z" fill="white"/>
</svg>
