<svg width="9" height="10" viewBox="0 0 9 10" fill="none" xmlns="http://www.w3.org/2000/svg">
<path d="M4.50028 6.87999L2.46028 9.616C2.38028 9.744 2.25228 9.84 2.07627 9.904C1.90027 9.968 1.72427 10 1.54827 10C1.26027 10 1.02827 9.904 0.852271 9.712C0.676271 9.52 0.58827 9.28 0.58827 8.992C0.58827 8.832 0.628271 8.672 0.708271 8.512L3.27628 5.29599L0.58827 1.88798C0.50827 1.72798 0.46827 1.56798 0.46827 1.40798C0.46827 1.11998 0.56427 0.879975 0.756271 0.687975C0.948272 0.495974 1.18827 0.399974 1.47627 0.399974C1.82827 0.399974 2.09227 0.527974 2.26828 0.783975L4.50028 3.73598L6.73229 0.783975C6.90829 0.527974 7.17229 0.399974 7.52429 0.399974C7.81229 0.399974 8.05229 0.495974 8.24429 0.687975C8.43629 0.879975 8.53229 1.11998 8.53229 1.40798C8.53229 1.56798 8.49229 1.72798 8.41229 1.88798L5.72428 5.29599L8.29229 8.512C8.37229 8.672 8.41229 8.832 8.41229 8.992C8.41229 9.28 8.32429 9.52 8.14829 9.712C7.97229 9.904 7.74029 10 7.45229 10C7.27629 10 7.10029 9.968 6.92429 9.904C6.74829 9.84 6.62029 9.744 6.54029 9.616L4.50028 6.87999Z" fill="white" fill-opacity="0.6"/>
</svg>
