<svg width="21" height="24" viewBox="0 0 21 24" fill="none" xmlns="http://www.w3.org/2000/svg">
<path d="M2.25 23.638C1.78333 23.638 1.375 23.463 1.025 23.113C0.675 22.763 0.5 22.3547 0.5 21.888V4.30052H2.25V21.888H16.075V23.638H2.25ZM5.75 20.138C5.28333 20.138 4.875 19.963 4.525 19.613C4.175 19.263 4 18.8547 4 18.388V2.05469C4 1.58802 4.175 1.17969 4.525 0.829687C4.875 0.479687 5.28333 0.304688 5.75 0.304688H18.5833C19.05 0.304688 19.4583 0.479687 19.8083 0.829687C20.1583 1.17969 20.3333 1.58802 20.3333 2.05469V18.388C20.3333 18.8547 20.1583 19.263 19.8083 19.613C19.4583 19.963 19.05 20.138 18.5833 20.138H5.75ZM5.75 18.388H18.5833V2.05469H5.75V18.388ZM5.75 18.388V2.05469V18.388Z" fill="#CACACA"/>
</svg>
