<svg width="25" height="26" viewBox="0 0 25 26" fill="none" xmlns="http://www.w3.org/2000/svg">
<path d="M12.4183 0.34375C19.2812 0.34375 24.8366 5.89964 24.8366 12.7621C24.8366 19.6245 19.2807 25.1804 12.4183 25.1804C5.55589 25.1804 0 19.6245 0 12.7621C0 5.89964 5.55589 0.34375 12.4183 0.34375ZM20.3665 4.81393C13.305 -2.24754 1.17841 2.78305 1.17841 12.7621C1.17841 22.7412 13.305 27.7718 20.3665 20.7103C24.755 16.3218 24.755 9.202 20.3665 4.8134V4.81393Z" fill="#82868D"/>
<path d="M4.44526 15.0619C9.52238 17.2328 16.07 16.9759 21.1124 14.8751C21.4977 14.7118 21.9295 15.0151 21.9295 15.4237C21.9295 20.139 13.1057 25.9982 6.37137 20.6175C4.66739 19.2518 3.55859 17.4079 3.55859 15.5755C3.55859 15.1319 4.04889 14.8519 4.44574 15.062L4.44526 15.0619ZM9.83757 21.1778C10.3744 19.4621 14.5646 19.4154 15.2066 21.1077C16.9339 20.5242 18.6615 19.392 19.7351 17.9798C14.5997 19.824 10.6196 19.929 5.58942 18.0615C6.54644 19.5088 8.15715 20.6176 9.83794 21.1778L9.83757 21.1778ZM14.6463 21.2829C14.121 20.1507 10.783 20.209 10.3978 21.3412C11.8333 21.7031 13.2105 21.6797 14.6463 21.2829ZM5.13431 17.2563C7.78372 18.3068 10.1413 18.8436 12.569 18.8202C14.9384 18.7969 17.3893 18.2601 20.2721 17.1513C20.4121 16.8828 20.5289 16.6144 20.5988 16.346C15.7435 18.1085 9.76758 18.2952 4.86548 16.4978C4.93558 16.7546 5.01727 17.0113 5.13389 17.2565L5.13431 17.2563Z" fill="#82868D"/>
<ellipse cx="9.07546" cy="10.3745" rx="1.43288" ry="2.38814" fill="#82868D"/>
<ellipse cx="15.761" cy="10.3745" rx="1.43288" ry="2.38814" fill="#82868D"/>
</svg>
