<svg width="36" height="36" viewBox="0 0 36 36" fill="none" xmlns="http://www.w3.org/2000/svg">
<path d="M18 24.75C20.6156 24.75 22.4438 23.5195 23.5125 22.3664C24.1383 21.6844 25.207 21.6352 25.8961 22.268C26.5781 22.9008 26.6203 23.9695 25.9875 24.6516C24.4477 26.332 21.7758 28.125 18 28.125C14.2242 28.125 11.5523 26.332 10.0125 24.6516C9.37969 23.9695 9.35859 22.9008 10.1039 22.268C10.793 21.6352 11.8617 21.6844 12.4875 22.3664C13.5563 23.5195 15.3844 24.75 18 24.75ZM14.6531 14.625C14.6531 15.8695 13.6406 16.875 12.4031 16.875C11.1586 16.875 10.1531 15.8695 10.1531 14.625C10.1531 13.3805 11.1586 12.375 12.4031 12.375C13.6406 12.375 14.6531 13.3805 14.6531 14.625ZM36 18C36 27.9422 27.9422 36 18 36C8.05781 36 0 27.9422 0 18C0 8.05781 8.05781 0 18 0C27.9422 0 36 8.05781 36 18ZM18 3.375C9.92109 3.375 3.375 9.92109 3.375 18C3.375 26.0789 9.92109 32.625 18 32.625C26.0789 32.625 32.625 26.0789 32.625 18C32.625 9.92109 26.0789 3.375 18 3.375Z" fill="#7D7D7D"/>
<path d="M18 24.75C15.3844 24.75 13.5563 23.5195 12.4875 22.3664C11.8617 21.6844 10.793 21.6352 10.1039 22.268C9.42188 22.9008 9.37969 23.9695 10.0125 24.6516C11.5523 26.332 14.2242 28.125 18 28.125C21.7758 28.125 24.4477 26.332 25.9875 24.6516C26.6203 23.9695 26.6414 22.9008 25.8961 22.268C25.207 21.6352 24.1383 21.6844 23.5125 22.3664C22.4437 23.5195 20.6156 24.75 18 24.75ZM21.3469 14.625C21.3469 15.8695 22.3594 16.875 23.5969 16.875C24.8414 16.875 25.8469 15.8695 25.8469 14.625C25.8469 13.3805 24.8414 12.375 23.5969 12.375C22.3594 12.375 21.3469 13.3805 21.3469 14.625ZM0 18C0 27.9422 8.05781 36 18 36C27.9422 36 36 27.9422 36 18C36 8.05781 27.9422 0 18 0C8.05781 0 0 8.05781 0 18ZM18 3.375C26.0789 3.375 32.625 9.92109 32.625 18C32.625 26.0789 26.0789 32.625 18 32.625C9.92109 32.625 3.375 26.0789 3.375 18C3.375 9.92109 9.92109 3.375 18 3.375Z" fill="#7D7D7D"/>
<path d="M18 24.75C15.3844 24.75 13.5563 23.5195 12.4875 22.3664C11.8617 21.6844 10.793 21.6352 10.1039 22.268C9.42188 22.9008 9.37969 23.9695 10.0125 24.6516C11.5523 26.332 14.2242 28.125 18 28.125C21.7758 28.125 24.4477 26.332 25.9875 24.6516C26.6203 23.9695 26.6414 22.9008 25.8961 22.268C25.207 21.6352 24.1383 21.6844 23.5125 22.3664C22.4437 23.5195 20.6156 24.75 18 24.75ZM21.3469 14.625C21.3469 15.8695 22.3594 16.875 23.5969 16.875C24.8414 16.875 25.8469 15.8695 25.8469 14.625C25.8469 13.3805 24.8414 12.375 23.5969 12.375C22.3594 12.375 21.3469 13.3805 21.3469 14.625ZM0 18C0 27.9422 8.05781 36 18 36C27.9422 36 36 27.9422 36 18C36 8.05781 27.9422 0 18 0C8.05781 0 0 8.05781 0 18ZM18 3.375C26.0789 3.375 32.625 9.92109 32.625 18C32.625 26.0789 26.0789 32.625 18 32.625C9.92109 32.625 3.375 26.0789 3.375 18C3.375 9.92109 9.92109 3.375 18 3.375Z" fill="#7D7D7D"/>
</svg>
