<svg width="24" height="21" viewBox="0 0 24 21" fill="none" xmlns="http://www.w3.org/2000/svg">
<path d="M1.08339 1.50771L1.08342 1.50772L1.0871 1.49992C1.23171 1.1932 1.53608 1 1.87497 1H22.1273C22.4662 1 22.7706 1.1932 22.9152 1.49992L23.8197 1.07347L22.9152 1.49992C23.0607 1.80858 23.0164 2.16985 22.8015 2.43303C22.8015 2.43307 22.8015 2.43311 22.8014 2.43315L14.2276 12.9093L14.0015 13.1856V13.5426V19.5006C14.0015 19.6916 13.8948 19.8625 13.7278 19.9452C13.5493 20.0336 13.3496 20.0123 13.2025 19.9016L13.2012 19.9006L10.2008 17.6505L10.2009 17.6505L10.1961 17.647C10.0759 17.5579 10.0008 17.4133 10.0008 17.2505V13.5426V13.1855L9.77465 12.9092L1.19677 2.42918C1.19661 2.42898 1.19644 2.42878 1.19628 2.42858C0.98314 2.16665 0.940729 1.80365 1.08339 1.50771Z" stroke="white" stroke-width="2"/>
</svg>
