<svg width="24" height="17" viewBox="0 0 24 17" fill="none" xmlns="http://www.w3.org/2000/svg">
<path d="M12.0784 16.928C9.77272 16.928 7.78822 16.0964 6.12495 14.4331C4.46167 12.7698 3.63003 10.7854 3.63003 8.47965V7.29159L1.51793 9.40369L0.488281 8.37404L4.42207 4.44026L8.35585 8.37404L7.3262 9.40369L5.2141 7.29159V8.47965C5.2141 10.3629 5.88733 11.9778 7.2338 13.3243C8.58026 14.6707 10.1951 15.344 12.0784 15.344C12.5888 15.344 13.0729 15.3 13.5305 15.212C13.9881 15.124 14.4193 14.992 14.8242 14.8159L15.9594 15.9512C15.3258 16.3032 14.6877 16.554 14.0453 16.7036C13.4029 16.8532 12.7473 16.928 12.0784 16.928ZM19.7084 12.4662L15.7746 8.53245L16.8306 7.4764L18.9163 9.5621V8.47965C18.9163 6.59636 18.2431 4.98148 16.8967 3.63502C15.5502 2.28856 13.9353 1.61532 12.052 1.61532C11.5416 1.61532 11.0576 1.66373 10.6 1.76053C10.1423 1.85734 9.71111 1.97614 9.30629 2.11695L8.17104 0.981694C8.80467 0.629678 9.4427 0.383266 10.0851 0.24246C10.7276 0.101653 11.3832 0.03125 12.052 0.03125C14.3577 0.03125 16.3422 0.862889 18.0055 2.52617C19.6688 4.18945 20.5004 6.17394 20.5004 8.47965V9.6149L22.6125 7.5028L23.6422 8.53245L19.7084 12.4662Z" fill="white"/>
</svg>
