<svg width="28" height="24" viewBox="0 0 28 24" fill="none" xmlns="http://www.w3.org/2000/svg">
<path fill-rule="evenodd" clip-rule="evenodd" d="M12.9472 17.5404V13.8623C12.9472 13.6397 13.034 13.4258 13.1891 13.2662C13.3444 13.1066 13.5557 13.0136 13.778 13.0073C16.2288 12.9392 18.6215 13.6868 20.8888 15.2276C22.6634 16.4734 24.2227 18.0001 25.5056 19.748C24.7148 13.7257 20.9111 9.73796 13.5089 7.02456C13.3442 6.96438 13.2021 6.85507 13.1017 6.71144C13.0013 6.5676 12.9474 6.39654 12.9474 6.22133V2.51082L2.33575 10.0262L12.9472 17.5404ZM0.361116 9.32847L13.3073 0.15737C13.479 0.0358327 13.6895 -0.0182332 13.8987 0.00544586C14.1076 0.0293199 14.3006 0.129155 14.4406 0.286211C14.5807 0.443267 14.6579 0.646489 14.6577 0.856822V5.62744C19.3494 7.43201 22.6499 9.8024 24.7364 12.862C26.5917 15.5832 27.4525 18.8282 27.3673 22.7832C27.3633 22.968 27.2996 23.1468 27.1854 23.2924C27.0713 23.438 26.9131 23.5428 26.7345 23.5909C26.5556 23.6383 26.366 23.6266 26.1943 23.5574C26.0227 23.4881 25.8781 23.3654 25.782 23.2072C22.5649 17.893 18.7353 14.9801 14.6576 14.7296V19.1948C14.6574 19.4051 14.5799 19.6077 14.4396 19.7644C14.2995 19.921 14.1068 20.0207 13.898 20.0443C13.6891 20.068 13.4789 20.0142 13.3073 19.8928L0.361069 10.7232C0.134562 10.563 0 10.3028 0 10.0252C0 9.74776 0.134565 9.48749 0.361069 9.32733L0.361116 9.32847Z" fill="#CACACA"/>
</svg>
