<svg width="21" height="21" viewBox="0 0 21 21" fill="none" xmlns="http://www.w3.org/2000/svg">
<path d="M8.50023 0.992459C5.77827 0.993622 3.22145 2.29772 1.62253 4.50021C0.0234376 6.70292 -0.424812 9.53773 0.41684 12.1259C1.25873 14.7143 3.28839 16.7435 5.87725 17.5844C8.46592 18.4251 11.3007 17.9759 13.5029 16.3762L17.7383 20.6116C18.0754 20.9487 18.5669 21.0803 19.0275 20.957C19.4881 20.8335 19.8477 20.4739 19.9713 20.0133C20.0946 19.5527 19.9629 19.0611 19.6259 18.7241L15.3904 14.4887C16.6275 12.7884 17.19 10.6899 16.9698 8.59882C16.7492 6.50776 15.7615 4.57279 14.1971 3.16771C12.6329 1.76264 10.603 0.987563 8.50054 0.992208L8.50023 0.992459ZM8.50023 15.3326C6.95234 15.3326 5.46794 14.7178 4.37343 13.6233C3.27892 12.5288 2.6641 11.0444 2.6641 9.49652C2.6641 7.94864 3.27892 6.46424 4.37343 5.36973C5.46794 4.27522 6.95234 3.6604 8.50023 3.6604C10.0481 3.6604 11.5325 4.27522 12.627 5.36973C13.7215 6.46424 14.3363 7.94864 14.3363 9.49652C14.3345 11.0437 13.7192 12.5272 12.6249 13.6212C11.5309 14.7155 10.0475 15.3308 8.50023 15.3326Z" fill="white" fill-opacity="0.79"/>
</svg>
