<svg width="32" height="32" viewBox="0 0 32 32" fill="none" xmlns="http://www.w3.org/2000/svg">
<path d="M25.1429 13.75C28.9286 13.75 32 10.7266 32 7C32 3.27344 28.9286 0.25 25.1429 0.25C21.3571 0.25 18.2857 3.27344 18.2857 7C18.2857 7.28125 18.3 7.5625 18.3357 7.83672L11.6143 11.1414C10.3857 9.96719 8.70714 9.25 6.85714 9.25C3.07143 9.25 0 12.2734 0 16C0 19.7266 3.07143 22.75 6.85714 22.75C8.70714 22.75 10.3857 22.0328 11.6143 20.8586L18.3357 24.1633C18.3 24.4375 18.2857 24.7117 18.2857 25C18.2857 28.7266 21.3571 31.75 25.1429 31.75C28.9286 31.75 32 28.7266 32 25C32 21.2734 28.9286 18.25 25.1429 18.25C23.2929 18.25 21.6143 18.9672 20.3857 20.1414L13.6643 16.8367C13.7 16.5625 13.7143 16.2883 13.7143 16C13.7143 15.7117 13.7 15.4375 13.6643 15.1633L20.3857 11.8586C21.6143 13.0328 23.2929 13.75 25.1429 13.75Z" fill="#919191"/>
</svg>
