<svg width="31" height="31" viewBox="0 0 31 31" fill="none" xmlns="http://www.w3.org/2000/svg">
<path d="M19.0389 18.0703H11.8104C11.3049 18.0703 10.8955 18.4798 10.8955 18.9846V29.9567C10.8955 30.199 10.9919 30.4315 11.1636 30.6031C11.3349 30.7747 11.5679 30.871 11.8104 30.871H19.0389C19.2815 30.871 19.5144 30.7746 19.6858 30.6031C19.8575 30.4315 19.9539 30.199 19.9539 29.9567V18.9846C19.9539 18.7422 19.8575 18.5094 19.6858 18.3382C19.5144 18.1666 19.2815 18.0703 19.0389 18.0703L19.0389 18.0703ZM18.124 29.0424H12.7161V19.899H18.133L18.124 29.0424Z" fill="white"/>
<path d="M19.2627 6.89423C20.5111 6.46754 21.5946 5.66166 22.3623 4.5896C23.1302 3.51778 23.5434 2.23264 23.5451 0.914275C23.5451 0.671909 23.4487 0.439438 23.277 0.267869C23.1053 0.0962994 22.8727 0 22.6301 0H8.19601C7.69051 0 7.28076 0.409461 7.28076 0.914259C7.283 2.23385 7.69786 3.51964 8.46724 4.59179C9.23665 5.66393 10.3223 6.46912 11.572 6.89421C12.2256 7.95419 13.2886 8.69726 14.5093 8.94699V10.8397H13.5943C12.8757 10.8409 12.1867 11.127 11.679 11.6353C11.1712 12.1436 10.8859 12.8325 10.8859 13.5506V15.3791C10.8859 15.6218 10.9823 15.8543 11.154 16.0259C11.3257 16.1974 11.5583 16.2937 11.8009 16.2937H19.0294C19.2722 16.2937 19.5049 16.1974 19.6766 16.0259C19.8479 15.8543 19.9443 15.6218 19.9443 15.3791V13.5506C19.9443 12.8325 19.6593 12.1437 19.1513 11.6353C18.6436 11.127 17.9548 10.8409 17.2359 10.8397H16.321V8.94699C17.5436 8.69856 18.6085 7.9555 19.2627 6.89421L19.2627 6.89423ZM19.9399 1.81515H21.6555C21.4334 2.89619 20.8232 3.85862 19.9399 4.52127V1.81515ZM10.9092 4.52127C10.0259 3.8586 9.41567 2.89619 9.19354 1.81515H10.9092V4.52127ZM17.2317 12.6455C17.4746 12.6455 17.7072 12.7418 17.8789 12.9131C18.0503 13.0846 18.1467 13.3171 18.1467 13.5598V14.474H12.7161V13.5598C12.7161 13.0547 13.1258 12.6455 13.6313 12.6455L17.2317 12.6455ZM15.4019 7.23253C14.6832 7.23126 13.9943 6.94521 13.4865 6.43688C12.9788 5.92856 12.6935 5.23975 12.6935 4.52126V1.81514H18.133V4.52159V4.52127C18.133 5.23974 17.848 5.92854 17.34 6.43689C16.8323 6.94522 16.1435 7.23127 15.4246 7.23254L15.4019 7.23253Z" fill="white"/>
<path d="M26.2652 5.4219C25.76 5.4219 25.3503 5.83136 25.3503 6.33616V7.25042H24.4628C24.0189 7.32121 23.6921 7.70421 23.6921 8.15349C23.6921 8.60278 24.0189 8.98546 24.4628 9.05632H25.3777V9.97058C25.3777 10.4757 25.7875 10.8848 26.2927 10.8848C26.7982 10.8848 27.2079 10.4757 27.2079 9.97058V9.05632H28.1228C28.3874 9.09842 28.657 9.02284 28.861 8.84904C29.0646 8.67524 29.182 8.42108 29.182 8.15353C29.182 7.88566 29.0646 7.63149 28.861 7.4577C28.657 7.28422 28.3874 7.20832 28.1228 7.25041H27.2079V6.33615C27.2079 6.09379 27.1115 5.861 26.9398 5.68974C26.7682 5.51818 26.5355 5.42188 26.2927 5.42188L26.2652 5.4219Z" fill="white"/>
<path d="M4.58726 3.61727C4.08209 3.61727 3.67235 4.02673 3.67235 4.53153V5.44579H2.75743V5.44611C2.49287 5.40369 2.22321 5.47959 2.01928 5.65339C1.81568 5.82687 1.69824 6.08135 1.69824 6.3489C1.69824 6.61645 1.81568 6.87093 2.01928 7.04441C2.22321 7.21821 2.49287 7.29411 2.75743 7.2517H3.67235V8.16629C3.67235 8.6711 4.0821 9.08054 4.58726 9.08054C5.09276 9.08054 5.50251 8.67108 5.50251 8.16629V7.25203H6.41743V7.25171C6.86133 7.18091 7.18812 6.79824 7.18812 6.34888C7.18812 5.89952 6.86133 5.51691 6.41743 5.44605H5.50251V4.53146C5.50251 4.2891 5.40613 4.05663 5.23445 3.88506C5.06275 3.71349 4.83011 3.61719 4.58726 3.61719L4.58726 3.61727Z" fill="white"/>
<path d="M29.9523 21.7266H22.6552C22.15 21.7266 21.7402 22.1357 21.7402 22.6408V29.919C21.7402 30.1614 21.8366 30.3941 22.0083 30.5654C22.18 30.737 22.4126 30.8333 22.6552 30.8333H29.9523C30.1951 30.8333 30.4278 30.737 30.5995 30.5654C30.7708 30.3941 30.8672 30.1614 30.8672 29.919V22.6408C30.8672 22.3985 30.7708 22.1657 30.5995 21.9944C30.4278 21.8229 30.1951 21.7266 29.9523 21.7266L29.9523 21.7266ZM29.0374 29.0411H23.5474V23.5552H29.0374V29.0411Z" fill="white"/>
<path d="M8.19864 25.4063H0.915245C0.409748 25.4063 0 25.8158 0 26.3206V29.9324C0 30.1748 0.0963776 30.4076 0.268062 30.5788C0.439756 30.7504 0.672393 30.8467 0.915252 30.8467H8.19865C8.44119 30.8467 8.67383 30.7504 8.84552 30.5788C9.01721 30.4076 9.11358 30.1748 9.11358 29.9324V26.2979C9.10114 25.8017 8.69489 25.4062 8.19866 25.4062L8.19864 25.4063ZM7.28372 29.0178H1.79381L1.79349 27.2122H7.2834L7.28372 29.0178Z" fill="white"/>
</svg>
