<svg width="40" height="36" viewBox="0 0 40 36" fill="none" xmlns="http://www.w3.org/2000/svg">
<g filter="url(#filter0_d_1323_7224)">
<path d="M27.7778 0H12.2222C10.3819 0 8.88194 1.53281 8.95139 3.38906C8.96528 3.76172 8.97917 4.13438 9 4.5H1.66667C0.743056 4.5 0 5.25234 0 6.1875C0 12.6984 2.32639 17.2266 5.45139 20.2992C8.52778 23.3297 12.2778 24.8555 15.0417 25.6289C16.6667 26.0859 17.7778 27.457 17.7778 28.8352C17.7778 30.3047 16.5972 31.5 15.1458 31.5H13.3333C12.1042 31.5 11.1111 32.5055 11.1111 33.75C11.1111 34.9945 12.1042 36 13.3333 36H26.6667C27.8958 36 28.8889 34.9945 28.8889 33.75C28.8889 32.5055 27.8958 31.5 26.6667 31.5H24.8542C23.4028 31.5 22.2222 30.3047 22.2222 28.8352C22.2222 27.457 23.3264 26.0789 24.9583 25.6289C27.7292 24.8555 31.4792 23.3297 34.5556 20.2992C37.6736 17.2266 40 12.6984 40 6.1875C40 5.25234 39.2569 4.5 38.3333 4.5H31C31.0208 4.13438 31.0347 3.76875 31.0486 3.38906C31.1181 1.53281 29.6181 0 27.7778 0ZM3.39583 7.875H9.25694C9.88889 14.2102 11.2847 18.443 12.8611 21.2766C11.1319 20.5031 9.33333 19.4133 7.77778 17.8805C5.55556 15.6938 3.75 12.5367 3.40278 7.875H3.39583ZM32.2292 17.8805C30.6736 19.4133 28.875 20.5031 27.1458 21.2766C28.7222 18.443 30.1181 14.2102 30.75 7.875H36.6111C36.2569 12.5367 34.4514 15.6938 32.2361 17.8805H32.2292Z" fill="url(#paint0_linear_1323_7224)"/>
</g>
<defs>
<filter id="filter0_d_1323_7224" x="-4.11486" y="-4.11486" width="48.2297" height="44.2297" filterUnits="userSpaceOnUse" color-interpolation-filters="sRGB">
<feFlood flood-opacity="0" result="BackgroundImageFix"/>
<feColorMatrix in="SourceAlpha" type="matrix" values="0 0 0 0 0 0 0 0 0 0 0 0 0 0 0 0 0 0 127 0" result="hardAlpha"/>
<feOffset/>
<feGaussianBlur stdDeviation="2.05743"/>
<feComposite in2="hardAlpha" operator="out"/>
<feColorMatrix type="matrix" values="0 0 0 0 0 0 0 0 0 0.670588 0 0 0 0 0.890196 0 0 0 0.55 0"/>
<feBlend mode="normal" in2="BackgroundImageFix" result="effect1_dropShadow_1323_7224"/>
<feBlend mode="normal" in="SourceGraphic" in2="effect1_dropShadow_1323_7224" result="shape"/>
</filter>
<linearGradient id="paint0_linear_1323_7224" x1="20" y1="0" x2="20" y2="36" gradientUnits="userSpaceOnUse">
<stop stop-color="#00EAF2"/>
<stop offset="1" stop-color="#DB09D9"/>
</linearGradient>
</defs>
</svg>
