<svg width="45" height="46" viewBox="0 0 45 46" fill="none" xmlns="http://www.w3.org/2000/svg">
<g filter="url(#filter0_d_1323_7216)">
<path d="M28.2192 5C28.1447 5 28.0702 5.02106 28.0042 5.05966L18.1145 10.8579C17.9813 10.9355 17.8995 11.0802 17.8995 11.2365V22.8351C17.8995 22.9915 17.9813 23.1361 18.1145 23.2137L28.0042 29.012C28.0702 29.051 28.1451 29.0697 28.2192 29.0697C28.2933 29.0697 28.3678 29.051 28.4342 29.012L38.3238 23.2137C38.4571 23.1361 38.5388 22.9915 38.5388 22.8351V11.2365C38.5388 11.0802 38.4571 10.9355 38.3238 10.8579L28.4342 5.05966C28.3678 5.02106 28.2937 5 28.2192 5ZM28.2192 5.94162L37.204 11.2092C37.0854 11.0006 36.9982 11.3297 37.204 11.2092C37.2839 11.3499 37.6132 11.5532 37.6809 11.9395C37.6129 11.9797 37.7538 11.9395 37.6809 11.9395V22.5809L28.6507 27.8758C27.7907 27.8758 28.4051 27.8758 28.1679 27.8758C27.9306 27.8758 28.6507 27.8758 27.7907 27.8758L18.7606 22.5809V12.0473C18.8285 12.0867 18.6619 12.0473 18.7349 12.0473C18.7349 11.5532 19.0654 11.4032 19.1452 11.2628C18.8617 11.4973 19.4035 11.1114 19.1452 11.2628L28.2192 5.94162ZM28.2192 7.66966C27.5077 7.66966 26.9292 8.25763 26.9292 8.97973C26.9292 9.70184 27.5077 10.2898 28.2192 10.2898C28.9302 10.2898 29.5092 9.70184 29.5092 8.97973C29.5092 8.25763 28.9302 7.66966 28.2192 7.66966ZM28.2192 8.54304C28.4565 8.54304 28.6492 8.73877 28.6492 8.97973C28.6492 9.2207 28.4565 9.41643 28.2192 9.41643C27.9819 9.41643 27.7892 9.2207 27.7892 8.97973C27.7892 8.73877 27.9819 8.54304 28.2192 8.54304ZM25.8442 9.53418C25.772 9.53613 25.7013 9.55679 25.6391 9.59383C25.4341 9.71431 25.3635 9.98062 25.4813 10.1892C25.5382 10.2898 25.6322 10.3631 25.7424 10.3931C25.8526 10.4232 25.9701 10.4076 26.0691 10.3495C26.2742 10.229 26.3448 9.96307 26.2269 9.75409C26.1486 9.6149 26.0016 9.53067 25.8442 9.53418ZM30.5708 9.53769C30.4249 9.5451 30.2924 9.62737 30.2199 9.75603C30.1627 9.85624 30.1469 9.97555 30.1769 10.0878C30.2064 10.1997 30.2786 10.2953 30.3777 10.353C30.5831 10.4727 30.8453 10.4009 30.9639 10.1927C31.0208 10.0921 31.0365 9.97281 31.0069 9.86091C30.977 9.74862 30.9048 9.65348 30.8058 9.59538C30.7347 9.55366 30.653 9.53379 30.5708 9.53769ZM24.3541 10.4056C24.282 10.408 24.2113 10.4286 24.1491 10.4657C23.9441 10.5857 23.8734 10.8521 23.9913 11.0606C24.1099 11.2692 24.3722 11.341 24.5776 11.2213C24.7826 11.1008 24.8532 10.8345 24.7354 10.6259C24.6574 10.4871 24.5112 10.4029 24.3541 10.4056ZM32.0604 10.4091C31.9145 10.4165 31.7825 10.4988 31.7095 10.6275C31.6523 10.7281 31.637 10.8474 31.6665 10.9593C31.6961 11.0712 31.7687 11.1667 31.8673 11.2244C31.9664 11.2825 32.0839 11.2985 32.1941 11.2681C32.3046 11.2381 32.3983 11.1647 32.4555 11.0642C32.5123 10.9639 32.5281 10.8446 32.4985 10.7323C32.4686 10.6204 32.3964 10.5249 32.2973 10.4672C32.2255 10.4251 32.1434 10.4048 32.0604 10.4091ZM28.2192 11.1086C27.9819 11.1086 27.7892 11.3043 27.7892 11.5453V13.0176H27.5323C26.3771 13.0176 25.4357 13.9666 25.436 15.1309C25.436 16.2951 26.3763 17.2426 27.5323 17.243H27.7892V19.7095H25.8661C25.6284 19.7095 25.4361 19.9052 25.4361 20.1462C25.4361 20.3872 25.6284 20.5829 25.8661 20.5829H27.7892V22.5445C27.7892 22.7854 27.9819 22.9812 28.2192 22.9812C28.4565 22.9812 28.6492 22.7854 28.6492 22.5445V20.5829H28.9179C30.0617 20.5829 30.9923 19.6358 30.9923 18.4743C30.9923 17.3416 30.1062 16.4226 29.002 16.3762C28.9874 16.3746 28.9743 16.3676 28.9597 16.3676H28.6491V13.891H30.5623C30.7996 13.891 30.9923 13.6952 30.9923 13.4543C30.9923 13.2129 30.7996 13.0176 30.5623 13.0176H28.6491V11.5453C28.6491 11.3043 28.4565 11.1086 28.2192 11.1086ZM22.866 11.279C22.7938 11.2809 22.7235 11.3008 22.6609 11.3371C22.4559 11.4576 22.3853 11.7239 22.5031 11.9325C22.56 12.0331 22.654 12.1064 22.7642 12.1364C22.8744 12.1664 22.9919 12.1508 23.0909 12.0927C23.296 11.9726 23.3666 11.7063 23.2487 11.4973C23.17 11.3589 23.0234 11.2751 22.866 11.279ZM33.5508 11.279C33.4049 11.2868 33.2728 11.3691 33.1999 11.4973C33.082 11.7063 33.1526 11.9726 33.3577 12.0927C33.5631 12.2124 33.8253 12.1407 33.9439 11.9325C34.0618 11.7239 33.9911 11.4576 33.7861 11.3371C33.7147 11.2954 33.6329 11.2751 33.5508 11.279ZM27.5326 13.891H27.7895V16.3696H27.5326C26.8512 16.3696 26.2964 15.814 26.2964 15.1309C26.2964 14.4482 26.8512 13.891 27.5326 13.891ZM20.9278 14.6568C20.6902 14.6568 20.4978 15.0934 20.4978 15.0934C20.4978 15.0934 20.5431 15.3204 20.6238 15.4023C20.6238 15.4023 20.8138 15.5301 20.9278 15.5301C21.0419 15.5301 21.1513 15.4841 21.2319 15.4023C21.3126 15.3204 21.3578 15.2093 21.3578 15.0934C21.3578 14.9776 21.3125 14.8665 21.2319 14.7846C21.1513 14.7027 21.0419 14.6568 20.9278 14.6568ZM35.5481 14.6568C35.3104 14.6568 35.1181 14.8521 35.1181 15.0934C35.1181 15.2093 35.1634 15.3204 35.244 15.4023C35.3246 15.4841 35.434 15.5301 35.5481 15.5301C35.6621 15.5301 35.7715 15.4841 35.8521 15.4023C35.9328 15.3204 35.9781 15.2093 35.9781 15.0934C35.9781 14.9776 35.9328 14.8665 35.8521 14.7846C35.7715 14.7027 35.6621 14.6568 35.5481 14.6568ZM20.9278 16.4035C20.6902 16.4035 20.4978 16.5989 20.4978 16.8402C20.4978 16.956 20.5431 17.0671 20.6238 17.149C20.7044 17.2309 20.8138 17.2769 20.9278 17.2769C21.0419 17.2769 21.1513 17.2309 21.2319 17.149C21.3126 17.0672 21.3578 16.956 21.3578 16.8402C21.3578 16.7244 21.3125 16.6133 21.2319 16.5314C21.1513 16.4495 21.0419 16.4035 20.9278 16.4035ZM35.5481 16.4035C35.3104 16.4035 35.1181 16.5989 35.1181 16.8402C35.1181 16.956 35.1634 17.0671 35.244 17.149C35.3246 17.2309 35.434 17.2769 35.5481 17.2769C35.6621 17.2769 35.7715 17.2309 35.8521 17.149C35.9328 17.0672 35.9781 16.956 35.9781 16.8402C35.9781 16.7244 35.9328 16.6133 35.8521 16.5314C35.7715 16.4495 35.6621 16.4035 35.5481 16.4035ZM28.6495 17.243H28.9182C29.5882 17.243 30.1326 17.7959 30.1326 18.4762C30.1326 19.1565 29.5882 19.7094 28.9182 19.7094H28.6495V17.243ZM20.9278 18.1503C20.6902 18.1503 20.4978 18.3456 20.4978 18.587C20.4978 18.7028 20.5431 18.8139 20.6238 18.8958C20.7044 18.9777 20.8138 19.0237 20.9278 19.0237C21.0419 19.0237 21.1513 18.9777 21.2319 18.8958C21.3126 18.8139 21.3578 18.7028 21.3578 18.587C21.3578 18.4712 21.3125 18.3601 21.2319 18.2782C21.1513 18.1963 21.0419 18.1503 20.9278 18.1503ZM35.5481 18.1503C35.3104 18.1503 35.1181 18.3456 35.1181 18.587C35.1181 18.7028 35.1634 18.8139 35.244 18.8958C35.3246 18.9777 35.434 19.0237 35.5481 19.0237C35.6621 19.0237 35.7715 18.9777 35.8521 18.8958C35.9328 18.8139 35.9781 18.7028 35.9781 18.587C35.9781 18.4712 35.9328 18.3601 35.8521 18.2782C35.7715 18.1963 35.6621 18.1503 35.5481 18.1503ZM20.8266 19.8986C20.7425 19.9045 20.6584 19.9189 20.5747 19.9415C20.2419 20.0324 19.9651 20.2491 19.7923 20.5521C19.4368 21.1775 19.6483 21.9807 20.2641 22.3414C20.4626 22.4576 20.6838 22.5172 20.9072 22.5172C21.0193 22.5172 21.1307 22.5016 21.2416 22.4712C21.5745 22.3804 21.8533 22.1636 22.026 21.8606C22.198 21.5573 22.2433 21.2056 22.1539 20.8676C22.066 20.5307 21.8525 20.2476 21.5542 20.0729C21.3303 19.9419 21.0792 19.8819 20.8266 19.8986ZM35.612 19.8986C35.3601 19.8819 35.1098 19.9419 34.8863 20.0729C34.2705 20.4336 34.0574 21.236 34.4129 21.8622C34.5849 22.1652 34.8644 22.3819 35.1973 22.4728C35.3083 22.5036 35.4204 22.5188 35.5333 22.5188C35.7567 22.5188 35.9759 22.4588 36.1748 22.3414C36.4731 22.1667 36.6873 21.8848 36.776 21.5468C36.8655 21.2087 36.8187 20.8543 36.6467 20.5506C36.4739 20.2472 36.1967 20.0312 35.8642 19.9415C35.7809 19.9189 35.696 19.9045 35.612 19.8986ZM20.9092 20.7705C20.9833 20.7705 21.057 20.7899 21.1242 20.8285C21.3296 20.949 21.4006 21.2169 21.282 21.4255C21.1633 21.6341 20.9003 21.7074 20.6957 21.5857H20.6942C20.4895 21.4653 20.42 21.1974 20.5379 20.9888C20.5947 20.8874 20.6873 20.8165 20.7982 20.7857C20.8351 20.7763 20.8723 20.7705 20.9092 20.7705ZM35.5294 20.7705C35.678 20.7705 35.8223 20.8473 35.9022 20.9872C36.0208 21.1958 35.9517 21.4637 35.7459 21.5842H35.7444C35.6453 21.6427 35.5286 21.6575 35.4184 21.6286C35.3075 21.5978 35.215 21.5261 35.1581 21.4255C35.0395 21.2169 35.1105 20.949 35.3159 20.8285C35.3831 20.7892 35.4561 20.7705 35.5294 20.7705ZM23.2779 22.4014C23.1312 22.4081 22.9984 22.4903 22.9251 22.6198C22.8072 22.8284 22.8778 23.0947 23.0829 23.2148C23.1819 23.2729 23.2994 23.2885 23.4096 23.2584C23.5198 23.2284 23.6138 23.1551 23.6707 23.0545C23.7885 22.8459 23.7179 22.5796 23.5129 22.4591C23.4414 22.4174 23.36 22.3971 23.2779 22.4014ZM33.1459 22.4014C33.0737 22.403 33.0035 22.4229 32.9409 22.4591C32.8415 22.5168 32.7689 22.612 32.739 22.7243C32.709 22.8362 32.7244 22.9555 32.7812 23.0565C32.8384 23.1567 32.9321 23.2304 33.0427 23.2604C33.1528 23.2904 33.2703 23.2748 33.3694 23.2167C33.468 23.1586 33.5406 23.0635 33.5702 22.9512C33.5997 22.8393 33.5844 22.72 33.5272 22.6198C33.4489 22.4817 33.3026 22.3979 33.1459 22.4014ZM31.6543 23.2729C31.5821 23.2752 31.5115 23.2955 31.4493 23.3325C31.2443 23.453 31.1736 23.7193 31.2915 23.9279C31.3483 24.0285 31.4424 24.1018 31.5526 24.1318C31.6628 24.1619 31.7802 24.1463 31.8793 24.0882C32.0843 23.9681 32.155 23.7018 32.0371 23.4932C31.9588 23.354 31.8121 23.2694 31.6543 23.2729ZM24.7642 23.2748C24.6179 23.2822 24.4858 23.3645 24.4129 23.4932C24.3557 23.5934 24.3403 23.7127 24.3699 23.8246C24.3994 23.9369 24.472 24.032 24.5707 24.0901C24.6697 24.1482 24.7872 24.1638 24.8974 24.1338C25.008 24.1038 25.1017 24.0301 25.1589 23.9299C25.2157 23.8289 25.2311 23.7096 25.2011 23.5977C25.1712 23.4854 25.0986 23.3902 24.9992 23.3325C24.9277 23.2908 24.8463 23.2705 24.7642 23.2748ZM26.2588 24.1447C26.1126 24.1513 25.9793 24.234 25.906 24.363C25.8492 24.4632 25.8334 24.5826 25.8634 24.6948C25.893 24.8068 25.9651 24.9023 26.0642 24.96C26.1629 25.0181 26.2803 25.0337 26.3909 25.0036C26.5011 24.9736 26.5952 24.9003 26.652 24.7997C26.7092 24.6991 26.7245 24.5798 26.695 24.4679C26.6654 24.356 26.5932 24.2605 26.4942 24.2028C26.4228 24.1607 26.341 24.1408 26.2588 24.1447ZM30.1642 24.1447C30.092 24.1466 30.0217 24.1673 29.9592 24.2043C29.7541 24.3248 29.6835 24.5907 29.8014 24.7997C29.8582 24.9003 29.9523 24.9736 30.0624 25.0037C30.173 25.0337 30.2905 25.0181 30.3892 24.96C30.5946 24.8395 30.6652 24.5732 30.5473 24.3646C30.469 24.2254 30.322 24.1412 30.1642 24.1447Z" fill="url(#paint0_linear_1323_7216)"/>
<path d="M9.24027 37.7352H5V25.6328H9.24027C10.0214 25.6328 10.691 26.3022 10.691 27.083V36.2853C10.691 37.1219 10.0771 37.7353 9.24027 37.7353V37.7352ZM39.5917 32.9946L28.4327 39.966C26.2011 41.3602 23.5228 41.3603 21.4585 40.3006C14.875 37.2331 13.9261 36.1177 11.3037 36.062L11.304 27.3619H16.8833C21.2354 27.3619 21.1793 31.2659 25.8105 31.2659H29.4928C30.274 31.2659 30.9436 31.9353 30.9436 32.7161C30.9436 33.4968 30.2739 34.1663 29.4928 34.1663L21.9604 34.166C21.7929 34.166 21.6814 34.2774 21.6814 34.4448C21.6814 34.6122 21.7929 34.7237 21.9604 34.7237H29.4928C29.8275 34.7237 30.1065 34.668 30.3297 34.5006L38.1969 30.4851C38.8666 30.0948 39.7591 30.3736 40.1495 31.0985C40.4845 31.8235 40.2613 32.6044 39.5916 32.9947L39.5917 32.9946Z" fill="url(#paint1_linear_1323_7216)"/>
</g>
<defs>
<filter id="filter0_d_1323_7216" x="0.885144" y="0.885144" width="43.5332" height="44.2876" filterUnits="userSpaceOnUse" color-interpolation-filters="sRGB">
<feFlood flood-opacity="0" result="BackgroundImageFix"/>
<feColorMatrix in="SourceAlpha" type="matrix" values="0 0 0 0 0 0 0 0 0 0 0 0 0 0 0 0 0 0 127 0" result="hardAlpha"/>
<feOffset/>
<feGaussianBlur stdDeviation="2.05743"/>
<feComposite in2="hardAlpha" operator="out"/>
<feColorMatrix type="matrix" values="0 0 0 0 0 0 0 0 0 0.670588 0 0 0 0 0.890196 0 0 0 0.55 0"/>
<feBlend mode="normal" in2="BackgroundImageFix" result="effect1_dropShadow_1323_7216"/>
<feBlend mode="normal" in="SourceGraphic" in2="effect1_dropShadow_1323_7216" result="shape"/>
</filter>
<linearGradient id="paint0_linear_1323_7216" x1="28.2192" y1="5" x2="28.2192" y2="29.0697" gradientUnits="userSpaceOnUse">
<stop stop-color="#00EAF2"/>
<stop offset="1" stop-color="#DB09D9"/>
</linearGradient>
<linearGradient id="paint1_linear_1323_7216" x1="22.6517" y1="25.6328" x2="22.6517" y2="41.0578" gradientUnits="userSpaceOnUse">
<stop stop-color="#00EAF2"/>
<stop offset="1" stop-color="#DB09D9"/>
</linearGradient>
</defs>
</svg>
