<svg width="26" height="35" viewBox="0 0 26 35" fill="none" xmlns="http://www.w3.org/2000/svg">
<g filter="url(#filter0_d_1323_7231)">
<path d="M4.33333 0C1.94323 0 0 1.96191 0 4.375V30.625C0 33.0381 1.94323 35 4.33333 35H21.6667C24.0568 35 26 33.0381 26 30.625V10.9375H17.3333C16.1349 10.9375 15.1667 9.95996 15.1667 8.75V0H4.33333ZM17.3333 0V8.75H26L17.3333 0ZM4.33333 5.46875C4.33333 4.86719 4.82083 4.375 5.41667 4.375H9.75C10.3458 4.375 10.8333 4.86719 10.8333 5.46875C10.8333 6.07031 10.3458 6.5625 9.75 6.5625H5.41667C4.82083 6.5625 4.33333 6.07031 4.33333 5.46875ZM4.33333 9.84375C4.33333 9.24219 4.82083 8.75 5.41667 8.75H9.75C10.3458 8.75 10.8333 9.24219 10.8333 9.84375C10.8333 10.4453 10.3458 10.9375 9.75 10.9375H5.41667C4.82083 10.9375 4.33333 10.4453 4.33333 9.84375ZM13 14.7656C13.5958 14.7656 14.0833 15.2578 14.0833 15.8594V17.042C14.6589 17.124 15.2141 17.2539 15.7151 17.3906C16.2906 17.5479 16.6359 18.1426 16.4802 18.7305C16.3245 19.3184 15.7354 19.6602 15.1531 19.5029C14.4016 19.2979 13.6635 19.1475 12.9797 19.1406C12.4109 19.1338 11.8016 19.2637 11.3818 19.5166C10.9958 19.749 10.8333 20.0156 10.8333 20.3916C10.8333 20.6445 10.9214 20.8359 11.3276 21.082C11.7948 21.3623 12.4516 21.5674 13.3047 21.8271L13.3385 21.834C14.1036 22.0664 15.0516 22.3535 15.7964 22.832C16.6156 23.3516 17.313 24.1787 17.3333 25.4434C17.3536 26.7627 16.6833 27.7197 15.7828 28.2871C15.2615 28.6152 14.6724 28.8066 14.0833 28.9092V30.0781C14.0833 30.6797 13.5958 31.1719 13 31.1719C12.4042 31.1719 11.9167 30.6797 11.9167 30.0781V28.8613C11.1583 28.7178 10.4474 28.4717 9.82448 28.2529C9.68229 28.2051 9.5401 28.1572 9.40469 28.1094C8.83594 27.918 8.53125 27.2959 8.72083 26.7285C8.91042 26.1611 9.52656 25.8467 10.0885 26.0381C10.2578 26.0928 10.4135 26.1475 10.5693 26.2021C11.4901 26.5166 12.2349 26.7764 13.0271 26.7969C13.6432 26.8174 14.2391 26.6807 14.6318 26.4346C14.9771 26.2158 15.1667 25.9355 15.1599 25.4775C15.1531 25.1631 15.038 24.9443 14.6385 24.6846C14.1781 24.3906 13.5214 24.1787 12.675 23.9189L12.5667 23.8848C11.8219 23.6592 10.9214 23.3857 10.2104 22.9482C9.39792 22.4561 8.68021 21.6562 8.67344 20.3984C8.66667 19.0723 9.40469 18.1562 10.2849 17.6299C10.7927 17.3291 11.3547 17.1377 11.9167 17.0352V15.8594C11.9167 15.2578 12.4042 14.7656 13 14.7656Z" fill="url(#paint0_linear_1323_7231)"/>
</g>
<defs>
<filter id="filter0_d_1323_7231" x="-4.11486" y="-4.11486" width="34.2297" height="43.2297" filterUnits="userSpaceOnUse" color-interpolation-filters="sRGB">
<feFlood flood-opacity="0" result="BackgroundImageFix"/>
<feColorMatrix in="SourceAlpha" type="matrix" values="0 0 0 0 0 0 0 0 0 0 0 0 0 0 0 0 0 0 127 0" result="hardAlpha"/>
<feOffset/>
<feGaussianBlur stdDeviation="2.05743"/>
<feComposite in2="hardAlpha" operator="out"/>
<feColorMatrix type="matrix" values="0 0 0 0 0 0 0 0 0 0.670588 0 0 0 0 0.890196 0 0 0 0.55 0"/>
<feBlend mode="normal" in2="BackgroundImageFix" result="effect1_dropShadow_1323_7231"/>
<feBlend mode="normal" in="SourceGraphic" in2="effect1_dropShadow_1323_7231" result="shape"/>
</filter>
<linearGradient id="paint0_linear_1323_7231" x1="13" y1="0" x2="13" y2="35" gradientUnits="userSpaceOnUse">
<stop stop-color="#00EAF2"/>
<stop offset="1" stop-color="#DB09D9"/>
</linearGradient>
</defs>
</svg>
