<svg width="41" height="43" viewBox="0 0 41 43" fill="none" xmlns="http://www.w3.org/2000/svg">
<g filter="url(#filter0_d_1323_7228)">
<path d="M10.875 19.75L20.0417 5L29.2083 19.75H10.875ZM29.4167 38.3333C27.3611 38.3333 25.6389 37.6389 24.25 36.25C22.8611 34.8611 22.1667 33.1389 22.1667 31.0833C22.1667 29.0278 22.8611 27.3056 24.25 25.9167C25.6389 24.5278 27.3611 23.8333 29.4167 23.8333C31.4722 23.8333 33.1944 24.5278 34.5833 25.9167C35.9722 27.3056 36.6667 29.0278 36.6667 31.0833C36.6667 33.1389 35.9722 34.8611 34.5833 36.25C33.1944 37.6389 31.4722 38.3333 29.4167 38.3333ZM5 37.2917V24.625H17.6667V37.2917H5ZM29.4167 35.8333C30.75 35.8333 31.875 35.375 32.7917 34.4583C33.7083 33.5417 34.1667 32.4167 34.1667 31.0833C34.1667 29.75 33.7083 28.625 32.7917 27.7083C31.875 26.7917 30.75 26.3333 29.4167 26.3333C28.0833 26.3333 26.9583 26.7917 26.0417 27.7083C25.125 28.625 24.6667 29.75 24.6667 31.0833C24.6667 32.4167 25.125 33.5417 26.0417 34.4583C26.9583 35.375 28.0833 35.8333 29.4167 35.8333ZM7.5 34.7917H15.1667V27.125H7.5V34.7917ZM15.375 17.25H24.7083L20.0417 9.70833L15.375 17.25Z" fill="url(#paint0_linear_1323_7228)"/>
</g>
<defs>
<filter id="filter0_d_1323_7228" x="0.885144" y="0.885144" width="39.8964" height="41.5631" filterUnits="userSpaceOnUse" color-interpolation-filters="sRGB">
<feFlood flood-opacity="0" result="BackgroundImageFix"/>
<feColorMatrix in="SourceAlpha" type="matrix" values="0 0 0 0 0 0 0 0 0 0 0 0 0 0 0 0 0 0 127 0" result="hardAlpha"/>
<feOffset/>
<feGaussianBlur stdDeviation="2.05743"/>
<feComposite in2="hardAlpha" operator="out"/>
<feColorMatrix type="matrix" values="0 0 0 0 0 0 0 0 0 0.670588 0 0 0 0 0.890196 0 0 0 0.55 0"/>
<feBlend mode="normal" in2="BackgroundImageFix" result="effect1_dropShadow_1323_7228"/>
<feBlend mode="normal" in="SourceGraphic" in2="effect1_dropShadow_1323_7228" result="shape"/>
</filter>
<linearGradient id="paint0_linear_1323_7228" x1="20.8333" y1="5" x2="20.8333" y2="38.3333" gradientUnits="userSpaceOnUse">
<stop stop-color="#00EAF2"/>
<stop offset="1" stop-color="#DB09D9"/>
</linearGradient>
</defs>
</svg>
