<svg width="17" height="16" viewBox="0 0 17 16" fill="none" xmlns="http://www.w3.org/2000/svg">
<path d="M8.0255 3.69867C8.0255 3.29095 8.35352 2.96294 8.76123 2.96294C9.16895 2.96294 9.49696 3.29095 9.49696 3.69867V7.47541L12.1119 9.21664C12.4491 9.44349 12.541 9.90025 12.2897 10.2375C12.0904 10.5747 11.6336 10.6666 11.2964 10.4153L8.35352 8.45332C8.14812 8.34296 8.0255 8.11304 8.0255 7.84021V3.69867ZM8.76123 0.0200195C13.0959 0.0200195 16.609 3.53313 16.609 7.8678C16.609 12.2025 13.0959 15.7156 8.76123 15.7156C4.42656 15.7156 0.913452 12.2025 0.913452 7.8678C0.913452 3.53313 4.42656 0.0200195 8.76123 0.0200195ZM2.38491 7.8678C2.38491 11.3901 5.23893 14.2441 8.76123 14.2441C12.2835 14.2441 15.1376 11.3901 15.1376 7.8678C15.1376 4.3455 12.2835 1.49148 8.76123 1.49148C5.23893 1.49148 2.38491 4.3455 2.38491 7.8678Z" fill="#B1B1B1"/>
</svg>
