<svg width="49" height="49" viewBox="0 0 49 49" fill="none" xmlns="http://www.w3.org/2000/svg">
<path d="M30.3935 28.375H19.0526C18.2595 28.375 17.6172 29.0174 17.6172 29.8094V47.0236C17.6172 47.4039 17.7684 47.7686 18.0378 48.0378C18.3066 48.307 18.6721 48.4581 19.0526 48.4581H30.3935C30.774 48.4581 31.1395 48.307 31.4084 48.0378C31.6778 47.7686 31.829 47.4039 31.829 47.0236V29.8094C31.829 29.4292 31.6777 29.0639 31.4084 28.7953C31.1395 28.5261 30.774 28.375 30.3935 28.375L30.3935 28.375ZM28.9581 45.5893H20.4736V31.2441H28.9722L28.9581 45.5893Z" fill="white"/>
<path d="M30.7439 10.8399C32.7025 10.1704 34.4024 8.90608 35.607 7.22411C36.8116 5.54252 37.46 3.52625 37.4625 1.45785C37.4625 1.0776 37.3113 0.712877 37.042 0.4437C36.7726 0.174523 36.4076 0.0234375 36.0271 0.0234375H13.3812C12.5882 0.0234375 11.9453 0.665845 11.9453 1.45783C11.9488 3.52815 12.5997 5.54544 13.8068 7.22754C15.0139 8.90964 16.7172 10.1729 18.6779 10.8398C19.7033 12.5029 21.3711 13.6687 23.2862 14.0605V17.0299H21.8508C20.7232 17.0319 19.6423 17.4807 18.8457 18.2782C18.0491 19.0757 17.6015 20.1564 17.6015 21.2831V24.1519C17.6015 24.5327 17.7527 24.8974 18.0221 25.1666C18.2915 25.4358 18.6564 25.5868 19.037 25.5868H30.3778C30.7589 25.5868 31.1238 25.4357 31.3932 25.1666C31.6621 24.8974 31.8133 24.5327 31.8133 24.1519V21.2831C31.8133 20.1564 31.3662 19.0758 30.5691 18.2782C29.7725 17.4807 28.692 17.0319 27.564 17.0299H26.1286V14.0605C28.0468 13.6707 29.7175 12.5049 30.7439 10.8398L30.7439 10.8399ZM31.8063 2.87124H34.498C34.1495 4.5673 33.1922 6.07726 31.8063 7.1169V2.87124ZM17.638 7.1169C16.2521 6.07723 15.2948 4.5673 14.9463 2.87124H17.638V7.1169ZM27.5575 19.8631C27.9385 19.8631 28.3035 20.0142 28.5729 20.2829C28.8418 20.5521 28.9929 20.9168 28.9929 21.2975V22.7319H20.4728V21.2975C20.4728 20.505 21.1157 19.8631 21.9088 19.8631L27.5575 19.8631ZM24.6866 11.3706C23.5591 11.3686 22.4782 10.9199 21.6816 10.1223C20.885 9.32482 20.4374 8.24414 20.4374 7.11689V2.87123H28.9715V7.1174V7.1169C28.9715 8.24413 28.5244 9.32478 27.7273 10.1223C26.9307 10.9199 25.8502 11.3686 24.7223 11.3706L24.6866 11.3706Z" fill="white"/>
<path d="M41.7244 8.5391C40.9318 8.5391 40.289 9.18151 40.289 9.97349V11.4079H38.8966C38.2002 11.519 37.6875 12.1198 37.6875 12.8247C37.6875 13.5296 38.2002 14.13 38.8966 14.2412H40.3321V15.6756C40.3321 16.4681 40.9749 17.11 41.7675 17.11C42.5606 17.11 43.2034 16.4681 43.2034 15.6756V14.2412H44.6389C45.0539 14.3072 45.477 14.1887 45.7969 13.916C46.1164 13.6433 46.3006 13.2445 46.3006 12.8248C46.3006 12.4045 46.1164 12.0058 45.7969 11.7331C45.477 11.4609 45.0539 11.3418 44.6389 11.4079H43.2034V9.97348C43.2034 9.59323 43.0522 9.228 42.7829 8.95933C42.5135 8.69015 42.1485 8.53906 41.7675 8.53906L41.7244 8.5391Z" fill="white"/>
<path d="M7.72012 5.70325C6.92754 5.70325 6.28469 6.34566 6.28469 7.13764V8.57203H4.84927V8.57254C4.4342 8.50599 4.01112 8.62507 3.69119 8.89775C3.37175 9.16992 3.1875 9.56918 3.1875 9.98894C3.1875 10.4087 3.37175 10.808 3.69119 11.0801C4.01112 11.3528 4.4342 11.4719 4.84927 11.4054H6.28469V12.8403C6.28469 13.6323 6.92756 14.2746 7.72012 14.2746C8.5132 14.2746 9.15605 13.6322 9.15605 12.8403V11.4059H10.5915V11.4054C11.2879 11.2943 11.8006 10.6939 11.8006 9.9889C11.8006 9.2839 11.2879 8.68362 10.5915 8.57244H9.15605V7.13754C9.15605 6.75729 9.00485 6.39257 8.73549 6.12339C8.46612 5.85421 8.10113 5.70312 7.7201 5.70312L7.72012 5.70325Z" fill="white"/>
<path d="M47.5168 34.1094H36.0682C35.2757 34.1094 34.6328 34.7513 34.6328 35.5438V46.9626C34.6328 47.3428 34.784 47.708 35.0534 47.9767C35.3227 48.2459 35.6877 48.397 36.0683 48.397H47.5168C47.8978 48.397 48.2628 48.2459 48.5322 47.9767C48.801 47.708 48.9522 47.3428 48.9522 46.9626V35.5438C48.9522 35.1635 48.801 34.7983 48.5322 34.5296C48.2628 34.2605 47.8978 34.1094 47.5168 34.1094L47.5168 34.1094ZM46.0813 45.5853H37.4682V36.9783H46.0813V45.5853Z" fill="white"/>
<path d="M13.3864 39.8829H1.95937C1.1663 39.8829 0.523438 40.5254 0.523438 41.3173V46.9839C0.523438 47.3642 0.674645 47.7294 0.944004 47.9981C1.21337 48.2673 1.57836 48.4184 1.95939 48.4184H13.3864C13.7669 48.4184 14.1319 48.2673 14.4013 47.9981C14.6706 47.7294 14.8218 47.3642 14.8218 46.9839V41.2817C14.8023 40.5032 14.1649 39.8828 13.3864 39.8828L13.3864 39.8829ZM11.9509 45.549H3.33776L3.33726 42.7162H11.9504L11.9509 45.549Z" fill="white"/>
</svg>
