<svg width="34" height="48" viewBox="0 0 34 48" fill="none" xmlns="http://www.w3.org/2000/svg">
<path d="M21.6476 0.289224C20.758 3.6267 20.78 7.15152 21.7106 10.4774C22.6417 13.8028 24.4455 16.8015 26.9249 19.1443C28.6094 20.4332 30.0142 22.0688 31.0482 23.9469C32.0828 25.825 32.724 27.9048 32.9314 30.0517C33.1388 32.1991 32.9073 34.3672 32.2523 36.4174C31.5972 38.4682 30.533 40.3552 29.1276 41.9588C26.1454 45.2369 22.045 47.2044 17.6841 47.4506C13.3226 47.6968 9.03798 46.2016 5.72428 43.2786C4.05523 41.6205 2.74766 39.617 1.8877 37.4016C1.02728 35.1863 0.634462 32.8088 0.733818 30.4257C0.833688 28.0425 1.4242 25.7088 2.46593 23.577C3.50816 21.4458 4.97854 19.565 6.77975 18.0599C7.05478 19.2383 8.89038 26.6388 13.8925 27.4874C14.122 27.4874 14.2136 27.4874 14.122 27.1575C12.7704 24.919 11.891 22.4143 11.5397 19.8049C11.1885 17.1955 11.3733 14.5397 12.0821 12.0082C12.7909 9.47713 14.0088 7.12604 15.6565 5.10801C17.3035 3.08944 19.3451 1.44814 21.6476 0.289224Z" fill="white"/>
</svg>
