<svg width="24" height="32" viewBox="0 0 24 32" fill="none" xmlns="http://www.w3.org/2000/svg">
<path d="M6.17 2H3C2.20435 2 1.44129 2.31607 0.878679 2.87868C0.31607 3.44129 0 4.20435 0 5V29C0 29.7956 0.31607 30.5587 0.878679 31.1213C1.44129 31.6839 2.20435 32 3 32H21C21.7956 32 22.5587 31.6839 23.1213 31.1213C23.6839 30.5587 24 29.7956 24 29V5C24 4.20435 23.6839 3.44129 23.1213 2.87868C22.5587 2.31607 21.7956 2 21 2H17.83C17.6231 1.41484 17.2398 0.908257 16.733 0.550056C16.2261 0.191856 15.6207 -0.00032496 15 4.12473e-07H9C8.37935 -0.00032496 7.77387 0.191856 7.26702 0.550056C6.76016 0.908257 6.37688 1.41484 6.17 2ZM9 2H15C15.2652 2 15.5196 2.10536 15.7071 2.29289C15.8946 2.48043 16 2.73478 16 3C16 3.26522 15.8946 3.51957 15.7071 3.70711C15.5196 3.89464 15.2652 4 15 4H9C8.73478 4 8.48043 3.89464 8.29289 3.70711C8.10536 3.51957 8 3.26522 8 3C8 2.73478 8.10536 2.48043 8.29289 2.29289C8.48043 2.10536 8.73478 2 9 2ZM10 13C10 12.7348 10.1054 12.4804 10.2929 12.2929C10.4804 12.1054 10.7348 12 11 12H18C18.2652 12 18.5196 12.1054 18.7071 12.2929C18.8946 12.4804 19 12.7348 19 13C19 13.2652 18.8946 13.5196 18.7071 13.7071C18.5196 13.8946 18.2652 14 18 14H11C10.7348 14 10.4804 13.8946 10.2929 13.7071C10.1054 13.5196 10 13.2652 10 13ZM10 19C10 18.7348 10.1054 18.4804 10.2929 18.2929C10.4804 18.1054 10.7348 18 11 18H18C18.2652 18 18.5196 18.1054 18.7071 18.2929C18.8946 18.4804 19 18.7348 19 19C19 19.2652 18.8946 19.5196 18.7071 19.7071C18.5196 19.8946 18.2652 20 18 20H11C10.7348 20 10.4804 19.8946 10.2929 19.7071C10.1054 19.5196 10 19.2652 10 19ZM10 25C10 24.7348 10.1054 24.4804 10.2929 24.2929C10.4804 24.1054 10.7348 24 11 24H18C18.2652 24 18.5196 24.1054 18.7071 24.2929C18.8946 24.4804 19 24.7348 19 25C19 25.2652 18.8946 25.5196 18.7071 25.7071C18.5196 25.8946 18.2652 26 18 26H11C10.7348 26 10.4804 25.8946 10.2929 25.7071C10.1054 25.5196 10 25.2652 10 25ZM8 13C8 13.3978 7.84196 13.7794 7.56066 14.0607C7.27936 14.342 6.89782 14.5 6.5 14.5C6.10218 14.5 5.72064 14.342 5.43934 14.0607C5.15804 13.7794 5 13.3978 5 13C5 12.6022 5.15804 12.2206 5.43934 11.9393C5.72064 11.658 6.10218 11.5 6.5 11.5C6.89782 11.5 7.27936 11.658 7.56066 11.9393C7.84196 12.2206 8 12.6022 8 13ZM8 19C8 19.3978 7.84196 19.7794 7.56066 20.0607C7.27936 20.342 6.89782 20.5 6.5 20.5C6.10218 20.5 5.72064 20.342 5.43934 20.0607C5.15804 19.7794 5 19.3978 5 19C5 18.6022 5.15804 18.2206 5.43934 17.9393C5.72064 17.658 6.10218 17.5 6.5 17.5C6.89782 17.5 7.27936 17.658 7.56066 17.9393C7.84196 18.2206 8 18.6022 8 19ZM6.5 26.5C6.10218 26.5 5.72064 26.342 5.43934 26.0607C5.15804 25.7794 5 25.3978 5 25C5 24.6022 5.15804 24.2206 5.43934 23.9393C5.72064 23.658 6.10218 23.5 6.5 23.5C6.89782 23.5 7.27936 23.658 7.56066 23.9393C7.84196 24.2206 8 24.6022 8 25C8 25.3978 7.84196 25.7794 7.56066 26.0607C7.27936 26.342 6.89782 26.5 6.5 26.5Z" fill="url(#paint0_linear_228_4092)"/>
<defs>
<linearGradient id="paint0_linear_228_4092" x1="12" y1="0" x2="12" y2="32" gradientUnits="userSpaceOnUse">
<stop stop-color="#03C4CB"/>
<stop offset="1" stop-color="#D90ADA"/>
</linearGradient>
</defs>
</svg>
