<svg width="30" height="30" viewBox="0 0 30 30" fill="none" xmlns="http://www.w3.org/2000/svg">
<path fill-rule="evenodd" clip-rule="evenodd" d="M15.0333 0C11.2691 0 7.83914 1.24333 5.80998 2.25917C5.62664 2.35083 5.45581 2.44083 5.29664 2.5275C4.98164 2.69917 4.71331 2.85917 4.49997 3L6.80831 6.39833L7.89498 6.83083C12.1416 8.97333 17.8366 8.97333 22.0841 6.83083L23.3175 6.19083L25.5008 3C25.0485 2.70499 24.5781 2.43864 24.0925 2.2025C22.0741 1.1975 18.7266 0 15.0333 0ZM9.66414 3.84667C8.84674 3.69371 8.03941 3.49111 7.24664 3.24C9.14748 2.39583 11.9808 1.5 15.0325 1.5C17.1466 1.5 19.1458 1.93 20.7991 2.475C18.8616 2.7475 16.7941 3.21 14.8241 3.77917C13.2741 4.2275 11.4625 4.17917 9.66414 3.84667ZM22.9641 8.06667L22.76 8.17C18.0875 10.5267 11.8908 10.5267 7.21831 8.17L7.02498 8.07167C0.00664186 15.7725 -5.35169 29.9975 15.0333 29.9975C35.4166 29.9975 29.9275 15.5067 22.9641 8.06667ZM14.1666 15C13.7246 15 13.3007 15.1756 12.9881 15.4882C12.6756 15.8007 12.5 16.2246 12.5 16.6667C12.5 17.1087 12.6756 17.5326 12.9881 17.8452C13.3007 18.1577 13.7246 18.3333 14.1666 18.3333V15ZM15.8333 13.3333V12.5H14.1666V13.3333C13.2826 13.3333 12.4347 13.6845 11.8096 14.3096C11.1845 14.9348 10.8333 15.7826 10.8333 16.6667C10.8333 17.5507 11.1845 18.3986 11.8096 19.0237C12.4347 19.6488 13.2826 20 14.1666 20V23.3333C13.822 23.3334 13.4857 23.2266 13.2043 23.0277C12.9228 22.8288 12.7099 22.5474 12.595 22.2225C12.5214 22.0141 12.368 21.8434 12.1686 21.7481C11.9692 21.6528 11.7401 21.6406 11.5316 21.7142C11.3232 21.7878 11.1526 21.9411 11.0573 22.1406C10.9619 22.34 10.9497 22.5691 11.0233 22.7775C11.2532 23.4275 11.6789 23.9902 12.2418 24.3882C12.8047 24.7863 13.4772 25 14.1666 25V25.8333H15.8333V25C16.7174 25 17.5652 24.6488 18.1903 24.0237C18.8155 23.3986 19.1666 22.5507 19.1666 21.6667C19.1666 20.7826 18.8155 19.9348 18.1903 19.3096C17.5652 18.6845 16.7174 18.3333 15.8333 18.3333V15C16.5583 15 17.1758 15.4625 17.4058 16.1108C17.4399 16.2169 17.495 16.3151 17.5677 16.3995C17.6404 16.4839 17.7293 16.5529 17.8292 16.6023C17.929 16.6518 18.0378 16.6807 18.149 16.6874C18.2602 16.6941 18.3717 16.6785 18.4767 16.6414C18.5818 16.6042 18.6783 16.5464 18.7606 16.4713C18.843 16.3963 18.9094 16.3054 18.956 16.2042C19.0026 16.103 19.0285 15.9935 19.032 15.8821C19.0356 15.7707 19.0167 15.6598 18.9766 15.5558C18.7468 14.9059 18.3211 14.3431 17.7581 13.9451C17.1952 13.5471 16.5227 13.3333 15.8333 13.3333ZM15.8333 20V23.3333C16.2753 23.3333 16.6993 23.1577 17.0118 22.8452C17.3244 22.5326 17.5 22.1087 17.5 21.6667C17.5 21.2246 17.3244 20.8007 17.0118 20.4882C16.6993 20.1756 16.2753 20 15.8333 20Z" fill="url(#paint0_linear_228_4082)"/>
<defs>
<linearGradient id="paint0_linear_228_4082" x1="15.0015" y1="0" x2="15.0015" y2="29.9975" gradientUnits="userSpaceOnUse">
<stop stop-color="#03C4CB"/>
<stop offset="1" stop-color="#D90ADA"/>
</linearGradient>
</defs>
</svg>
