<svg width="29" height="26" viewBox="0 0 29 26" fill="none" xmlns="http://www.w3.org/2000/svg">
<path d="M1.58358 2.51975L1.58362 2.51977L1.5879 2.51067C1.75652 2.15303 2.11142 1.92775 2.50659 1.92775H26.1215C26.5166 1.92775 26.8715 2.15303 27.0402 2.51067C27.2098 2.87041 27.1582 3.29145 26.908 3.59828C26.9078 3.59847 26.9076 3.59866 26.9075 3.59885L16.9102 15.8143L16.6465 16.1365V16.5528V23.5C16.6465 23.7227 16.522 23.922 16.3274 24.0184C16.1192 24.1215 15.8864 24.0967 15.7148 23.9676L15.7133 23.9664L12.2148 21.3428L12.2148 21.3428L12.2092 21.3386C12.0691 21.2348 11.9816 21.0661 11.9816 20.8764V16.5528V16.1364L11.7178 15.8143L1.71578 3.59422C1.71558 3.59396 1.71537 3.59371 1.71516 3.59346C1.46668 3.28804 1.41724 2.8648 1.58358 2.51975Z" stroke="white" stroke-width="2.33206"/>
</svg>
