<svg width="22" height="22" viewBox="0 0 22 22" fill="none" xmlns="http://www.w3.org/2000/svg">
<path d="M1.78906 21.8307C1.35573 21.8307 0.976563 21.6682 0.651563 21.3432C0.326563 21.0182 0.164062 20.6391 0.164062 20.2057V8.28906C0.164062 7.85573 0.326563 7.47656 0.651563 7.15156C0.976563 6.82656 1.35573 6.66406 1.78906 6.66406H20.2057C20.6391 6.66406 21.0182 6.82656 21.3432 7.15156C21.6682 7.47656 21.8307 7.85573 21.8307 8.28906V20.2057C21.8307 20.6391 21.6682 21.0182 21.3432 21.3432C21.0182 21.6682 20.6391 21.8307 20.2057 21.8307H1.78906ZM1.78906 20.2057H20.2057V8.28906H1.78906V20.2057ZM9.02031 18.2828L15.0057 14.2474L9.02031 10.2391V18.2828ZM2.03281 5.03906V3.41406H19.962V5.03906H2.03281ZM5.58073 1.78906V0.164062H16.4141V1.78906H5.58073ZM1.78906 20.2057V8.28906V20.2057Z" fill="#8E8E8E"/>
</svg>
