<svg width="26" height="28" viewBox="0 0 26 28" fill="none" xmlns="http://www.w3.org/2000/svg">
<path d="M23.5583 9.5392L23.5587 9.53893L25.0773 8.6605V19.341L20.9104 16.934V11.067L23.5583 9.5392ZM14.4153 22.3185L19.4937 19.3845L23.666 21.7889L14.4153 27.1337V22.3185ZM6.50128 19.3803L11.5839 22.3184V27.1337L2.33231 21.7884L6.50128 19.3803ZM18.0825 16.9337L12.9958 19.8662L7.9175 16.934V11.062L13 8.13356L18.0825 11.062V16.9337ZM0.921875 19.3458V8.65856L5.094 11.0661V16.9383L0.921875 19.3458ZM11.5891 5.68592L6.51077 8.61982L2.33423 6.21145L11.5891 0.87023V5.68592ZM14.4109 0.86616L23.6663 6.21148L19.4934 8.61981L14.4109 5.68581V0.86616Z" stroke="#8E8E8E"/>
</svg>
