<svg width="21" height="27" viewBox="0 0 21 27" fill="none" xmlns="http://www.w3.org/2000/svg">
<path d="M20.5759 5.90301L16.669 3.90712L14.6729 0L10.4988 1.35136L6.32476 0L4.32899 3.90712L0.421875 5.90301L1.77324 10.0769L0.422001 14.2511L4.32887 16.247L4.86235 17.2914V26.9999L10.4993 24.1822L16.1354 27V17.2912L16.6689 16.247L20.5757 14.2511L19.2245 10.0769L20.5759 5.90301ZM10.4994 22.0758L6.7467 23.9516V20.0177L10.4989 18.803L14.2513 20.0178V23.9516L10.4994 22.0758ZM15.2687 14.8467L13.7257 17.8671L10.4989 16.8224L7.2724 17.8671L5.72947 14.8467L2.70919 13.3037L3.7538 10.0769L2.70944 6.8504L5.7296 5.30747L7.27252 2.28719L10.4991 3.3318L13.7259 2.28719L15.2688 5.30747L18.2888 6.8504L17.2444 10.0769L18.2891 13.3037L15.2687 14.8467Z" fill="white"/>
</svg>
