<svg width="24" height="22" viewBox="0 0 24 22" fill="none" xmlns="http://www.w3.org/2000/svg">
<path d="M1.00312 19.2687H4.57031C4.84219 19.2687 5.05781 19.0484 5.05781 18.7812V4.43281C5.05781 4.16094 4.8375 3.94531 4.57031 3.94531H1.00312C0.73125 3.94531 0.515625 4.16563 0.515625 4.43281V18.7812C0.515625 19.0531 0.735937 19.2687 1.00312 19.2687ZM1.49531 4.92031H4.08281V18.2891H1.49531V4.92031Z" fill="#8E8E8E"/>
<path d="M7.15164 19.2703H10.7188C10.9907 19.2703 11.2063 19.05 11.2063 18.7828V8.80781C11.2063 8.53594 10.986 8.32031 10.7188 8.32031H7.15164C6.87976 8.32031 6.66414 8.54063 6.66414 8.80781V18.7828C6.65945 19.0547 6.87976 19.2703 7.15164 19.2703ZM7.63914 9.3H10.2266V18.2953H7.63914V9.3Z" fill="#8E8E8E"/>
<path d="M13.2922 19.2703H16.8594C17.1312 19.2703 17.3469 19.05 17.3469 18.7828V1.16719C17.3469 0.895312 17.1266 0.679688 16.8594 0.679688H13.2922C13.0203 0.679688 12.8047 0.9 12.8047 1.16719V18.7828C12.8047 19.0547 13.0203 19.2703 13.2922 19.2703ZM13.7797 1.65469H16.3672V18.2953H13.7797V1.65469Z" fill="#8E8E8E"/>
<path d="M23 6.15625H19.4328C19.1609 6.15625 18.9453 6.37656 18.9453 6.64375V18.7844C18.9453 19.0563 19.1656 19.2719 19.4328 19.2719H23C23.2719 19.2719 23.4875 19.0516 23.4875 18.7844V6.64375C23.4875 6.37656 23.2672 6.15625 23 6.15625ZM22.5078 18.2969H19.9203V7.13594H22.5078V18.2969Z" fill="#8E8E8E"/>
<path d="M22.9969 20.3359H1.00312C0.73125 20.3359 0.515625 20.5563 0.515625 20.8234C0.515625 21.0906 0.735937 21.3109 1.00312 21.3109H22.9922C23.2641 21.3109 23.4797 21.0906 23.4797 20.8234C23.4797 20.5563 23.2641 20.3359 22.9969 20.3359Z" fill="#8E8E8E"/>
</svg>
