<svg width="20" height="22" viewBox="0 0 20 22" fill="none" xmlns="http://www.w3.org/2000/svg">
<path d="M3.01563 21.8307C2.22118 21.8307 1.54861 21.5554 0.997917 21.0047C0.447222 20.454 0.171875 19.7814 0.171875 18.987V15.6016H3.61146V0.164062L5.23646 1.78906L6.86146 0.164062L8.45937 1.78906L10.0844 0.164062L11.7094 1.78906L13.3344 0.164062L14.9594 1.78906L16.5844 0.164062L18.2094 1.78906L19.8344 0.164062V18.987C19.8344 19.7814 19.559 20.454 19.0083 21.0047C18.4576 21.5554 17.7851 21.8307 16.9906 21.8307H3.01563ZM16.9906 20.2057C17.3517 20.2057 17.6451 20.0929 17.8708 19.8672C18.0965 19.6415 18.2094 19.3481 18.2094 18.987V2.8724H5.23646V15.6016H15.7719V18.987C15.7719 19.3481 15.8847 19.6415 16.1104 19.8672C16.3361 20.0929 16.6295 20.2057 16.9906 20.2057ZM6.67188 7.15156V5.52656H13.1719V7.15156H6.67188ZM6.67188 10.7807V9.15573H13.1719V10.7807H6.67188ZM15.6906 7.15156C15.474 7.15156 15.2844 7.07031 15.1219 6.90781C14.9594 6.74531 14.8781 6.55573 14.8781 6.33906C14.8781 6.1224 14.9594 5.93281 15.1219 5.77031C15.2844 5.60781 15.474 5.52656 15.6906 5.52656C15.9073 5.52656 16.0969 5.60781 16.2594 5.77031C16.4219 5.93281 16.5031 6.1224 16.5031 6.33906C16.5031 6.55573 16.4219 6.74531 16.2594 6.90781C16.0969 7.07031 15.9073 7.15156 15.6906 7.15156ZM15.6906 10.6453C15.474 10.6453 15.2844 10.5641 15.1219 10.4016C14.9594 10.2391 14.8781 10.0495 14.8781 9.83281C14.8781 9.61615 14.9594 9.42656 15.1219 9.26406C15.2844 9.10156 15.474 9.02031 15.6906 9.02031C15.9073 9.02031 16.0969 9.10156 16.2594 9.26406C16.4219 9.42656 16.5031 9.61615 16.5031 9.83281C16.5031 10.0495 16.4219 10.2391 16.2594 10.4016C16.0969 10.5641 15.9073 10.6453 15.6906 10.6453ZM2.98854 20.2057H14.1469V17.2266H1.79688V18.987C1.79688 19.3481 1.90972 19.6415 2.13542 19.8672C2.36111 20.0929 2.64549 20.2057 2.98854 20.2057ZM1.79688 20.2057V17.2266V20.2057Z" fill="#8E8E8E"/>
</svg>
