<svg width="34" height="31" viewBox="0 0 34 31" fill="none" xmlns="http://www.w3.org/2000/svg">
<path d="M29.0075 4.83438C26.0395 2.37854 22.0515 0.935519 17.8441 0.794379C13.6366 0.653239 9.51925 1.82462 6.31761 4.07362C3.11597 6.32284 1.06691 9.48337 0.580598 12.9223C0.0943104 16.361 1.20685 19.8234 3.69541 22.6161V28.1553C3.69144 28.6579 3.86579 29.1505 4.19757 29.5729C4.52908 29.9952 5.00343 30.3288 5.56221 30.5326C5.97706 30.6888 6.42761 30.7701 6.88405 30.7714C7.65076 30.769 8.39025 30.5367 8.96413 30.1185L12.36 27.6826C13.9307 28.0696 15.5621 28.2649 17.2019 28.2625C20.5041 28.2625 23.7318 27.4578 26.4777 25.9497C29.2231 24.4419 31.3633 22.2986 32.6269 19.7908C33.8905 17.2829 34.2212 14.5235 33.5769 11.8613C32.9327 9.19932 31.3423 6.75388 29.0075 4.83438ZM17.202 26.08C16.4075 26.08 15.6145 26.0245 14.8314 25.9145C13.7236 25.7575 12.6431 25.4908 11.6134 25.1204L9.43248 26.6892L7.09157 28.3649C6.99368 28.4358 6.85451 28.4528 6.73572 28.4089C6.61666 28.3647 6.54046 28.2675 6.5402 28.1603V22.0364L6.43358 21.9342C4.38817 19.9188 3.23993 17.3905 3.17829 14.7664C3.11691 12.1422 4.14556 9.57934 6.09492 7.5006C8.04429 5.42186 10.7978 3.95189 13.9009 3.33293C17.0038 2.7142 20.2708 2.98365 23.1618 4.09676C26.0533 5.21007 28.3966 7.10045 29.8047 9.45607C31.213 11.8117 31.6019 14.4915 30.9074 17.0531C30.2129 19.6149 28.4762 21.9055 25.9844 23.5467C23.493 25.1879 20.395 26.0815 17.202 26.08Z" fill="white"/>
</svg>
