<svg width="33" height="43" viewBox="0 0 33 43" fill="none" xmlns="http://www.w3.org/2000/svg">
<path d="M26.5916 12.0292C26.5916 12.039 26.5916 12.0487 26.6013 12.0487C26.6014 12.1102 26.6182 12.1706 26.6499 12.2234C26.6596 12.2331 26.6596 12.2331 26.6596 12.2428L26.679 12.2622L29.0978 15.8438C29.1419 15.909 29.2012 15.9625 29.2706 15.9997C29.34 16.0369 29.4174 16.0567 29.4961 16.0574H29.5058C29.5815 16.059 29.6564 16.0421 29.7241 16.0083C29.7918 15.9745 29.8502 15.9247 29.8943 15.8632L32.5074 12.2816L32.5268 12.2525C32.5268 12.2428 32.5365 12.2331 32.5365 12.2234C32.5552 12.2007 32.5685 12.1742 32.5754 12.1457C32.5851 12.136 32.5851 12.1166 32.5948 12.0972V12.0778C32.5933 12.061 32.5967 12.0441 32.6046 12.0292V12.0098C32.6061 11.9931 32.6027 11.9762 32.5948 11.9613C32.5971 11.9382 32.5937 11.9149 32.5851 11.8934V11.8739C32.5754 11.8642 32.5754 11.8448 32.5657 11.8351C32.556 11.8254 32.5657 11.8157 32.556 11.8157L32.5268 11.7575L29.9138 7.5158L29.8846 7.46727C29.8391 7.4136 29.7826 7.37026 29.7189 7.34013C29.6553 7.31 29.5859 7.29379 29.5155 7.29256H29.4961C29.4109 7.29102 29.3269 7.31283 29.2533 7.35561C29.1797 7.39838 29.1192 7.4605 29.0784 7.53521L26.6596 11.7478C26.6427 11.775 26.6296 11.8044 26.6207 11.8351C26.6207 11.8448 26.611 11.8448 26.611 11.8545C26.611 11.8642 26.6013 11.9128 26.5916 11.9419V12.0292ZM29.5155 14.7276L28.4373 13.1358L29.3018 13.524C29.3658 13.5537 29.4352 13.5703 29.5058 13.5725C29.5689 13.5689 29.6311 13.5558 29.6904 13.5337L30.7006 13.1066L29.5155 14.7276ZM31.4 11.7672L29.5155 12.5534L27.767 11.7672L29.5155 8.69997L31.4 11.7672Z" fill="url(#paint0_linear_131_211)"/>
<path d="M2.14143 14.0676C2.18666 14.1316 2.2462 14.1843 2.31533 14.2213C2.38446 14.2584 2.46129 14.2789 2.53971 14.2811H2.54941C2.62579 14.2808 2.70099 14.2621 2.76862 14.2266C2.83625 14.1911 2.89432 14.1399 2.93797 14.0773L4.91965 11.3595C4.97685 11.2812 5.00925 11.1875 5.01271 11.0907C5.01617 10.9938 4.99053 10.8981 4.93907 10.8159L2.95739 7.60308C2.91381 7.53153 2.85244 7.47248 2.77924 7.43166C2.70604 7.39084 2.62353 7.36964 2.53971 7.37013C2.45495 7.37064 2.3718 7.3933 2.29852 7.43587C2.22524 7.47844 2.16438 7.53944 2.122 7.61279L0.286035 10.8353C0.239524 10.9139 0.216636 11.0042 0.220081 11.0954C0.223526 11.1866 0.253177 11.2749 0.305482 11.3498L2.14143 14.0676ZM2.55913 8.80668L3.94825 11.0489L2.55913 12.9513L1.27689 11.0489L2.55913 8.80668Z" fill="url(#paint1_linear_131_211)"/>
<path d="M19.5973 16.5522H16.8094C16.6813 16.5547 16.5592 16.6067 16.4687 16.6971C16.3781 16.7876 16.3262 16.9096 16.3237 17.0376C16.3237 17.1663 16.3748 17.2897 16.4659 17.3807C16.557 17.4718 16.6806 17.5229 16.8094 17.5229H17.8099V21.7355C17.8099 21.8642 17.8611 21.9876 17.9522 22.0787C18.0432 22.1697 18.1668 22.2208 18.2956 22.2208C18.4237 22.2183 18.5457 22.1664 18.6363 22.0759C18.7268 21.9854 18.7788 21.8634 18.7813 21.7355V17.5229H19.5973C19.7261 17.5229 19.8496 17.4718 19.9407 17.3807C20.0318 17.2897 20.083 17.1663 20.083 17.0376C20.083 16.9738 20.0704 16.9107 20.046 16.8518C20.0216 16.793 19.9858 16.7395 19.9407 16.6944C19.8956 16.6493 19.8421 16.6136 19.7832 16.5892C19.7242 16.5648 19.6611 16.5522 19.5973 16.5522Z" fill="url(#paint2_linear_131_211)"/>
<path d="M19.024 16.0185H19.995C20.1238 16.0185 20.2473 15.9674 20.3383 15.8763C20.4294 15.7853 20.4805 15.6619 20.4805 15.5332C20.478 15.4052 20.4261 15.2832 20.3356 15.1927C20.245 15.1023 20.123 15.0503 19.995 15.0479H19.024C18.8952 15.0479 18.7717 15.099 18.6807 15.19C18.5896 15.281 18.5385 15.4045 18.5385 15.5332C18.5385 15.6619 18.5896 15.7853 18.6807 15.8763C18.7717 15.9674 18.8952 16.0185 19.024 16.0185Z" fill="url(#paint3_linear_131_211)"/>
<path d="M15.5267 16.0184H17.1392C17.268 16.0184 17.3916 15.9673 17.4826 15.8763C17.5737 15.7853 17.6249 15.6619 17.6249 15.5331C17.6249 15.4044 17.5737 15.281 17.4826 15.19C17.3916 15.099 17.268 15.0479 17.1392 15.0479H15.5267C15.3979 15.0479 15.2743 15.099 15.1832 15.19C15.0921 15.281 15.041 15.4044 15.041 15.5331C15.041 15.6619 15.0921 15.7853 15.1832 15.8763C15.2743 15.9673 15.3979 16.0184 15.5267 16.0184Z" fill="url(#paint4_linear_131_211)"/>
<path d="M10.9999 7.67108C11.0412 7.73673 11.0985 7.79079 11.1665 7.82815C11.2345 7.86552 11.3109 7.88495 11.3885 7.88462H11.3982C11.4758 7.8835 11.5521 7.86452 11.6212 7.82917C11.6902 7.79383 11.7502 7.74305 11.7965 7.68079L13.7781 4.96298C13.8353 4.88468 13.8678 4.79106 13.8712 4.69418C13.8747 4.5973 13.849 4.5016 13.7976 4.41942L11.8159 1.20659C11.7723 1.13505 11.7109 1.07599 11.6377 1.03517C11.5645 0.994351 11.482 0.973153 11.3982 0.973641H11.3885C11.3054 0.975819 11.2242 0.999275 11.1528 1.04176C11.0814 1.08425 11.022 1.14435 10.9805 1.2163L9.13483 4.43884C9.09054 4.51812 9.06893 4.60805 9.07236 4.69878C9.07579 4.78951 9.10411 4.87756 9.15425 4.95328L10.9999 7.67108ZM11.4176 2.41019L12.797 4.65238L11.4176 6.55484L10.1257 4.65238L11.4176 2.41019Z" fill="url(#paint5_linear_131_211)"/>
<path d="M29.4116 26.5389L27.3954 20.7719C27.3911 20.715 27.3743 20.6597 27.3462 20.6097C27.318 20.5597 27.2793 20.5163 27.2325 20.4824C27.1982 20.451 27.1589 20.4253 27.1162 20.4063H27.1084L23.4249 18.3189C22.9023 16.4508 21.7698 14.8029 20.2014 13.6284C18.633 12.454 16.7155 11.8179 14.7434 11.8179C12.7712 11.8179 10.8537 12.454 9.28526 13.6284C7.71685 14.8029 6.58436 16.4508 6.0618 18.3189L2.40928 20.391L2.31623 20.4063C2.26311 20.4265 2.21532 20.4583 2.17639 20.4992C2.13746 20.5401 2.10839 20.589 2.09132 20.6424L0.0207857 26.5389C-0.00804759 26.6227 -0.0068514 26.7138 0.0241747 26.7969C0.0552007 26.88 0.114192 26.9502 0.191388 26.9959L2.09132 28.0701V34.6979C2.09173 34.7643 2.10985 34.8295 2.14386 34.887C2.17787 34.9445 2.22659 34.9922 2.28519 35.0254L14.5456 41.9808L14.5844 42.0036H14.5921L14.6542 42.0265H14.8325L14.8946 42.0036H14.9023L14.9333 41.9808L27.2015 35.0254C27.2601 34.9922 27.3088 34.9445 27.3428 34.887C27.3768 34.8295 27.395 34.7643 27.3954 34.6979V28.0396L29.241 26.9959C29.3193 26.9513 29.3792 26.8811 29.4104 26.7977C29.4415 26.7142 29.442 26.6226 29.4116 26.5389ZM23.642 19.3169L26.2011 20.7719L23.5955 22.2422C23.6959 21.7199 23.7452 21.1893 23.7428 20.6577C23.7445 20.2088 23.7108 19.7606 23.642 19.3169ZM14.7395 12.5748C16.921 12.5768 19.0126 13.4291 20.5552 14.9445C22.0978 16.4598 22.9653 18.5146 22.9673 20.6577C22.9664 21.3674 22.8726 22.074 22.6882 22.7603L18.2059 25.3047C17.8614 25.0304 17.4318 24.8799 16.9884 24.8781C16.6647 24.8721 16.3562 24.7421 16.1287 24.5158C15.9012 24.2895 15.7728 23.9849 15.7709 23.6668V23.4687H17.9732C18.1467 23.4682 18.3182 23.4325 18.477 23.364C18.6359 23.2955 18.7787 23.1956 18.8965 23.0706C19.0144 22.9455 19.1047 22.798 19.162 22.6371C19.2193 22.4762 19.2423 22.3055 19.2295 22.1356C19.1677 21.1867 18.972 20.2509 18.6479 19.355C19.7181 18.8065 20.3695 17.9075 20.3695 16.9476C20.3694 16.7941 20.3538 16.641 20.323 16.4905C20.3152 16.4753 20.3152 16.4601 20.3074 16.4525C20.2141 16.1711 20.0326 15.926 19.7888 15.7522C19.5451 15.5784 19.2516 15.4849 18.9504 15.485C18.9388 15.2652 18.8745 15.0512 18.7626 14.8605C18.6507 14.6699 18.4945 14.5079 18.3067 14.3879L18.2369 14.3499C17.6012 14.1092 16.9252 13.9878 16.2439 13.9918C14.786 13.9918 13.4832 14.5175 12.7465 15.3783C12.4053 14.9822 11.9555 14.7612 11.4747 14.7612C10.4355 14.7612 9.5825 15.8354 9.5825 17.1533C9.5825 18.4713 10.4355 19.5454 11.4747 19.5454C11.7002 19.5465 11.923 19.497 12.1261 19.4007V23.6668C12.1223 23.9817 11.9954 24.2831 11.7717 24.5086C11.5479 24.7341 11.2444 24.8664 10.9241 24.8781C10.7943 24.8804 10.6648 24.8906 10.5364 24.9086L6.81403 22.7984C6.61744 22.1012 6.5183 21.3811 6.51934 20.6577C6.51934 16.2011 10.2106 12.5748 14.7395 12.5748ZM5.51896 19.5073L5.84468 19.3169C5.77586 19.7606 5.74215 20.2088 5.74386 20.6577C5.74536 21.2017 5.79464 21.7446 5.89119 22.2803L3.26231 20.7872L5.51896 19.5073ZM0.858312 26.4931L2.72722 21.3128L14.2432 27.8949L12.4363 33.06L0.858312 26.4931ZM14.3517 40.9904L2.86681 34.4769V28.5119L12.4595 33.9513C12.5185 33.9849 12.5852 34.0032 12.6534 34.0046C12.6993 34.0063 12.7449 33.9957 12.7853 33.9741C12.8387 33.9551 12.8873 33.9248 12.9275 33.8853C12.9677 33.8458 12.9986 33.7981 13.0179 33.7456L14.3517 29.9289V40.9904ZM14.7162 27.2778L11.5988 25.5104C11.979 25.3668 12.3066 25.1143 12.5389 24.7855C12.7712 24.4568 12.8976 24.067 12.9016 23.6668V18.6617C12.989 18.4568 13.0128 18.231 12.9701 18.0128C12.9273 17.7945 12.8198 17.5936 12.6612 17.4352C12.5555 17.3309 12.4298 17.2482 12.2913 17.192C12.1529 17.1358 12.0045 17.1071 11.8547 17.1076C11.7059 17.1064 11.5584 17.1348 11.4212 17.1911C11.2839 17.2474 11.1596 17.3304 11.0559 17.4352C11.0196 17.4706 10.9907 17.5127 10.971 17.5591C10.9514 17.6056 10.9412 17.6554 10.9412 17.7056C10.9412 17.7559 10.9514 17.8057 10.971 17.8521C10.9907 17.8985 11.0196 17.9407 11.0559 17.9761C11.1284 18.0459 11.2259 18.085 11.3273 18.085C11.4288 18.085 11.5263 18.0459 11.5988 17.9761C11.6664 17.9087 11.7584 17.8704 11.8547 17.8694C11.9025 17.869 11.9499 17.8783 11.9939 17.8966C12.0379 17.915 12.0776 17.942 12.1106 17.9761C12.1773 18.0418 12.2149 18.1308 12.2149 18.2237C12.2149 18.3165 12.1773 18.4056 12.1106 18.4713C12.0976 18.4846 12.0871 18.5001 12.0796 18.517C11.9189 18.677 11.7031 18.7721 11.4747 18.7836C10.8698 18.7836 10.358 18.037 10.358 17.1533C10.358 16.2696 10.8698 15.523 11.4747 15.523C11.8314 15.523 12.1726 15.7897 12.382 16.2315C12.4147 16.2951 12.4645 16.3486 12.5261 16.3862C12.5876 16.4238 12.6585 16.4441 12.731 16.4448C12.8032 16.4475 12.8746 16.4295 12.9366 16.393C12.9986 16.3565 13.0484 16.303 13.0799 16.2391C13.553 15.3478 14.8248 14.7536 16.2439 14.7536C16.8129 14.7505 17.3778 14.8486 17.9112 15.0431C17.9951 15.1038 18.0633 15.183 18.1105 15.2742C18.1576 15.3655 18.1823 15.4664 18.1826 15.5688C18.1812 15.6552 18.1628 15.7406 18.1283 15.8202C18.0981 15.8909 18.0909 15.9691 18.1075 16.0441C18.1242 16.1191 18.1639 16.1872 18.2214 16.2391C18.2776 16.2934 18.3496 16.3291 18.4274 16.3414C18.5052 16.3537 18.585 16.3419 18.6557 16.3077C18.7462 16.2687 18.8438 16.248 18.9426 16.2468C19.0784 16.2455 19.2111 16.2859 19.3224 16.3624C19.4336 16.4389 19.5177 16.5476 19.563 16.6734C19.5852 16.7631 19.5956 16.8553 19.594 16.9476C19.594 17.6942 18.9814 18.4103 17.9965 18.8141C17.9022 18.8534 17.8272 18.9272 17.7871 19.0198C17.7672 19.0671 17.7575 19.1179 17.7589 19.1691C17.7602 19.2203 17.7725 19.2706 17.7949 19.3169C18.1438 20.1015 18.3687 21.0919 18.454 22.1889C18.4617 22.2551 18.4546 22.3221 18.4331 22.3852C18.4117 22.4484 18.3765 22.5062 18.33 22.5546C18.2843 22.6026 18.2291 22.6409 18.1677 22.6671C18.1063 22.6933 18.0401 22.7069 17.9732 22.7069H15.2901C15.1456 22.6996 15.004 22.6642 14.8736 22.6027C14.7431 22.5413 14.6264 22.455 14.5301 22.3489C14.4422 22.251 14.3766 22.1358 14.3378 22.011C14.299 21.8861 14.2879 21.7546 14.3052 21.6252C14.4215 20.5586 14.6697 19.6749 15.0264 19.0731C15.0583 19.03 15.0807 18.9808 15.092 18.9287C15.1033 18.8765 15.1034 18.8227 15.0922 18.7705C15.081 18.7184 15.0588 18.6691 15.027 18.6259C14.9953 18.5827 14.9546 18.5465 14.9077 18.5198C14.8608 18.493 14.8087 18.4761 14.7548 18.4704C14.7008 18.4646 14.6462 18.47 14.5946 18.4863C14.5429 18.5025 14.4953 18.5293 14.4548 18.5647C14.4143 18.6002 14.3818 18.6436 14.3595 18.6922C13.9407 19.3931 13.6615 20.3529 13.5375 21.5414C13.5066 21.7759 13.5273 22.0143 13.5982 22.2404C13.6691 22.4664 13.7885 22.6749 13.9485 22.8517C14.2227 23.1545 14.5905 23.3606 14.9954 23.4383V23.6668C14.9974 24.1856 15.2064 24.6829 15.5776 25.0518C15.9488 25.4208 16.4526 25.6319 16.9806 25.6399C17.1409 25.6419 17.2991 25.6756 17.4459 25.7389L14.7162 27.2778ZM26.6199 34.4769L15.1272 40.9904V30.0737L16.4145 33.7456C16.4339 33.7981 16.4647 33.8458 16.5049 33.8853C16.5451 33.9248 16.5937 33.9551 16.6472 33.9741C16.6905 33.9951 16.7384 34.0056 16.7867 34.0046C16.8546 34.0012 16.9208 33.983 16.9806 33.9513L26.6199 28.4815V34.4769ZM16.9961 33.06L15.1893 27.8949L26.7982 21.3509L27.3954 23.1183L28.5741 26.4931L16.9961 33.06Z" fill="url(#paint6_linear_131_211)"/>
<defs>
<linearGradient id="paint0_linear_131_211" x1="29.5983" y1="7.29248" x2="29.5983" y2="16.0575" gradientUnits="userSpaceOnUse">
<stop stop-color="#03C4CB"/>
<stop offset="1" stop-color="#D90ADA"/>
</linearGradient>
<linearGradient id="paint1_linear_131_211" x1="2.61638" y1="7.37012" x2="2.61638" y2="14.2811" gradientUnits="userSpaceOnUse">
<stop stop-color="#03C4CB"/>
<stop offset="1" stop-color="#D90ADA"/>
</linearGradient>
<linearGradient id="paint2_linear_131_211" x1="18.2033" y1="16.5522" x2="18.2033" y2="22.2208" gradientUnits="userSpaceOnUse">
<stop stop-color="#03C4CB"/>
<stop offset="1" stop-color="#D90ADA"/>
</linearGradient>
<linearGradient id="paint3_linear_131_211" x1="19.5095" y1="15.0479" x2="19.5095" y2="16.0185" gradientUnits="userSpaceOnUse">
<stop stop-color="#03C4CB"/>
<stop offset="1" stop-color="#D90ADA"/>
</linearGradient>
<linearGradient id="paint4_linear_131_211" x1="16.3329" y1="15.0479" x2="16.3329" y2="16.0184" gradientUnits="userSpaceOnUse">
<stop stop-color="#03C4CB"/>
<stop offset="1" stop-color="#D90ADA"/>
</linearGradient>
<linearGradient id="paint5_linear_131_211" x1="11.4718" y1="0.973633" x2="11.4718" y2="7.88463" gradientUnits="userSpaceOnUse">
<stop stop-color="#03C4CB"/>
<stop offset="1" stop-color="#D90ADA"/>
</linearGradient>
<linearGradient id="paint6_linear_131_211" x1="14.717" y1="11.8179" x2="14.717" y2="42.0265" gradientUnits="userSpaceOnUse">
<stop stop-color="#03C4CB"/>
<stop offset="1" stop-color="#D90ADA"/>
</linearGradient>
</defs>
</svg>
