<svg width="31" height="31" viewBox="0 0 31 31" fill="none" xmlns="http://www.w3.org/2000/svg">
<path d="M12.935 0.000900826C8.79291 0.00267076 4.90215 1.98715 2.46904 5.33871C0.0356655 8.69063 -0.646446 13.0044 0.634314 16.9428C1.91544 20.8817 5.00401 23.9696 8.94353 25.2493C12.8828 26.5286 17.1965 25.845 20.5477 23.4106L26.9928 29.8557C27.5057 30.3687 28.2537 30.569 28.9546 30.3814C29.6555 30.1935 30.2027 29.6462 30.3907 28.9452C30.5784 28.2443 30.378 27.4964 29.8651 26.9835L23.4199 20.5383C25.3024 17.951 26.1584 14.7577 25.8232 11.5757C25.4877 8.39365 23.9846 5.44916 21.604 3.31103C19.2237 1.1729 16.1348 -0.00654864 12.9354 0.00051987L12.935 0.000900826ZM12.935 21.8227C10.5795 21.8227 8.32068 20.8871 6.65514 19.2215C4.9896 17.556 4.05402 15.2972 4.05402 12.9417C4.05402 10.5863 4.9896 8.32742 6.65514 6.66188C8.32068 4.99634 10.5795 4.06076 12.935 4.06076C15.2904 4.06076 17.5493 4.99634 19.2148 6.66188C20.8803 8.32742 21.8159 10.5863 21.8159 12.9417C21.8131 15.2961 20.8768 17.5536 19.2116 19.2184C17.5468 20.8835 15.2894 21.8198 12.935 21.8227Z" fill="white" fill-opacity="0.79"/>
</svg>
