<svg width="32" height="31" viewBox="0 0 32 31" fill="none" xmlns="http://www.w3.org/2000/svg">
<path d="M12.7679 1.03606H11.9822V1.82178V5.26475L10.9587 5.77647L8.41274 3.23048L7.85715 2.6749L7.30157 3.23048L3.373 7.15905L2.81741 7.71463L3.373 8.27022L5.91898 10.8162L5.40727 11.8396H1.96429H1.17858V12.6253V18.5182V19.3039H1.96429H5.40727L5.91898 20.3274L3.373 22.8733L2.81741 23.4289L3.373 23.9845L7.30157 27.9131L7.85715 28.4687L8.41274 27.9131L10.9587 25.3671L11.9822 25.8788V29.3218V30.1075H12.7679H18.6607H19.4464V29.3218V25.8788L20.4699 25.3671L23.0159 27.9131L23.5714 28.4687L24.127 27.9131L28.0556 23.9845L28.6112 23.4289L28.0556 22.8733L25.5096 20.3274L26.0213 19.3039H29.4643H30.25V18.5182V12.6253V11.8396H29.4643H26.0213L25.5096 10.8162L28.0556 8.27022L28.6112 7.71463L28.0556 7.15905L24.127 3.23048L23.5714 2.6749L23.0159 3.23048L20.4699 5.77647L19.4464 5.26475V1.82178V1.03606H18.6607H12.7679Z" stroke="url(#paint0_linear_131_227)" stroke-width="1.57143"/>
<path d="M15.7143 20.2859C18.318 20.2859 20.4286 18.1753 20.4286 15.5716C20.4286 12.968 18.318 10.8574 15.7143 10.8574C13.1107 10.8574 11.0001 12.968 11.0001 15.5716C11.0001 18.1753 13.1107 20.2859 15.7143 20.2859Z" stroke="url(#paint1_linear_131_227)" stroke-width="1.57143"/>
<defs>
<linearGradient id="paint0_linear_131_227" x1="15.7143" y1="1.82178" x2="15.7143" y2="29.3218" gradientUnits="userSpaceOnUse">
<stop stop-color="#03C4CB"/>
<stop offset="1" stop-color="#DA09D9"/>
</linearGradient>
<linearGradient id="paint1_linear_131_227" x1="15.7143" y1="11.6431" x2="15.7143" y2="19.5002" gradientUnits="userSpaceOnUse">
<stop stop-color="#03C4CB"/>
<stop offset="1" stop-color="#DA09D9"/>
</linearGradient>
</defs>
</svg>
