<svg width="32" height="23" viewBox="0 0 32 23" fill="none" xmlns="http://www.w3.org/2000/svg">
<path d="M26.1955 0.595711C29.3816 3.18777 31.4189 7.13968 31.4189 11.5678C31.4189 15.9959 29.3816 19.9527 26.1955 22.5399C25.6899 22.9522 24.9486 22.8737 24.5362 22.368C24.1238 21.8624 24.2024 21.1211 24.708 20.7087C27.3688 18.5487 29.0625 15.2595 29.0625 11.5678C29.0625 7.87606 27.3688 4.5869 24.708 2.42194C24.2024 2.00956 24.1287 1.26827 24.5362 0.762624C24.9437 0.256976 25.6899 0.183338 26.1955 0.590802V0.595711ZM23.2255 4.25307C25.3462 5.98111 26.7061 8.61735 26.7061 11.5678C26.7061 14.5182 25.3462 17.1545 23.2255 18.8825C22.7198 19.2949 21.9785 19.2163 21.5661 18.7107C21.1538 18.205 21.2323 17.4637 21.738 17.0514C23.3335 15.7553 24.3497 13.7818 24.3497 11.5678C24.3497 9.35373 23.3335 7.38023 21.738 6.07929C21.2323 5.66692 21.1587 4.92563 21.5661 4.41998C21.9736 3.91433 22.7198 3.8407 23.2255 4.24816V4.25307ZM20.2554 7.91043C21.3109 8.77445 21.9932 10.0901 21.9932 11.5678C21.9932 13.0455 21.3109 14.3611 20.2554 15.2251C19.7497 15.6375 19.0084 15.559 18.5961 15.0533C18.1837 14.5477 18.2622 13.8064 18.7679 13.394C19.2981 12.962 19.6368 12.3042 19.6368 11.5678C19.6368 10.8314 19.2981 10.1736 18.7679 9.73665C18.2622 9.32428 18.1886 8.58299 18.5961 8.07734C19.0035 7.57169 19.7497 7.49805 20.2554 7.90552V7.91043ZM14.7816 0.708623C15.3462 0.963902 15.7095 1.52355 15.7095 2.14211V20.9935C15.7095 21.612 15.3462 22.1717 14.7816 22.427C14.2171 22.6822 13.5543 22.5791 13.0929 22.1668L6.47033 16.2806H3.14189C1.40894 16.2806 0 14.8717 0 13.1387V9.99684C0 8.26389 1.40894 6.85495 3.14189 6.85495H6.47033L13.0929 0.968811C13.5543 0.556438 14.2171 0.458254 14.7816 0.708623Z" fill="white"/>
</svg>
