<svg width="38" height="46" viewBox="0 0 38 46" fill="none" xmlns="http://www.w3.org/2000/svg">
<path d="M9.83394 31.1478C9.7484 31.087 9.66487 31.0241 9.5807 30.9605C8.59272 30.169 7.69356 29.2708 6.89845 28.2841C6.08028 27.2013 5.39021 26.0241 4.84585 24.7804C4.35304 23.5488 4.00878 22.265 3.81307 20.9546C3.65608 19.6072 3.65643 18.2442 3.81413 16.8969C4.01098 15.5739 4.36559 14.2809 4.86204 13.0401C5.40305 11.8083 6.08899 10.6404 6.90171 9.56532C7.69872 8.57513 8.60472 7.67267 9.59877 6.87877C10.6829 6.06533 11.8576 5.37946 13.1046 4.83932C14.3445 4.34568 15.6362 3.99832 16.9576 3.80353C18.3129 3.646 19.681 3.64596 21.0364 3.80341C22.3645 3.99949 23.6625 4.35274 24.9083 4.84728C26.1448 5.38618 27.3173 6.06946 28.3965 6.87901C29.3905 7.67293 30.2965 8.57542 31.0935 9.56561C31.9101 10.6455 32.5986 11.8157 33.1409 13.0578C33.6364 14.2929 33.9851 15.5796 34.1807 16.8959C34.3385 18.2432 34.3389 19.6063 34.182 20.9537C33.9848 22.272 33.6341 23.5634 33.1397 24.8019C32.5993 26.0327 31.9194 27.1983 31.1069 28.2712C30.3006 29.2738 29.3869 30.1853 28.3817 30.9865C28.3087 31.0412 28.2349 31.0953 28.161 31.1478C27.7586 31.4381 27.4487 31.7561 27.3099 32.2491C27.1897 32.6914 27.2452 33.2766 27.495 33.6683C27.7494 34.06 28.1287 34.4101 28.6005 34.5161C29.0584 34.6175 29.632 34.6175 30.0252 34.3318C32.6804 32.3965 34.8869 29.8622 36.2422 26.8626C37.6206 23.8122 38.259 20.4393 37.9028 17.0989C37.5836 14.1084 36.6307 11.2101 34.9748 8.68043C33.3604 6.21069 31.191 4.11412 28.6422 2.61654C26.0287 1.0775 23.0636 0.211258 20.0382 0.0315382C16.9575 -0.152774 13.9 0.478496 11.0918 1.72257C8.54297 2.85608 6.21622 4.62548 4.43995 6.77277C2.53874 9.07205 1.13253 11.763 0.475728 14.6843C-0.24126 17.8729 -0.157996 21.2505 0.794899 24.384C1.75239 27.5357 3.54719 30.4524 5.96182 32.7057C6.59092 33.2955 7.27094 33.83 7.96935 34.3415C8.33478 34.6087 8.97777 34.641 9.39409 34.5258C9.82428 34.406 10.2869 34.0788 10.4996 33.678C10.7263 33.2495 10.8419 32.7334 10.6846 32.2588C10.6546 32.1851 10.6234 32.1114 10.5922 32.0377C10.5609 31.9639 10.5297 31.8902 10.4996 31.8164C10.3331 31.5307 10.1115 31.3091 9.83394 31.1478ZM4.96301 25.0655C4.94218 25.0161 4.92159 24.9666 4.90124 24.917C4.92212 24.9665 4.94282 25.016 4.96301 25.0655ZM3.78348 20.748C3.79053 20.7972 3.79759 20.8469 3.80451 20.8966C3.79729 20.8471 3.79028 20.7976 3.78348 20.748ZM3.81679 20.9863C3.82807 21.0701 3.83876 21.1539 3.84824 21.2365C3.83715 21.1531 3.82667 21.0697 3.81679 20.9863ZM4.98153 12.7489C4.96232 12.796 4.94264 12.8431 4.92278 12.8902C4.94216 12.843 4.96174 12.7959 4.98153 12.7489ZM6.71621 9.7999C6.73369 9.77739 6.75123 9.75493 6.76883 9.7325L6.71621 9.7999ZM12.7944 4.96631C12.8557 4.9405 12.9172 4.91504 12.9788 4.88995C12.9174 4.91576 12.8559 4.94143 12.7944 4.96631ZM17.1749 3.7729C17.1146 3.78148 17.0537 3.79005 16.9926 3.79839C17.0533 3.78957 17.1141 3.78108 17.1749 3.7729ZM16.936 3.80604C16.8518 3.8173 16.7676 3.82796 16.6846 3.83741C16.7684 3.82635 16.8522 3.8159 16.936 3.80604ZM25.2006 4.96631C25.1533 4.94717 25.106 4.92756 25.0586 4.90777C25.106 4.92708 25.1533 4.9466 25.2006 4.96631ZM28.161 6.69427C28.1836 6.71166 28.2061 6.7291 28.2286 6.7466L28.161 6.69427ZM31.2787 9.7999L31.2261 9.73245C31.2437 9.75489 31.2612 9.77737 31.2787 9.7999ZM33.0134 12.7489C33.0393 12.81 33.0649 12.8713 33.0901 12.9326C33.0642 12.8714 33.0384 12.8102 33.0134 12.7489ZM34.2115 17.1125C34.2029 17.0525 34.1943 16.9918 34.1859 16.931C34.1947 16.9914 34.2033 17.0519 34.2115 17.1125ZM34.1782 16.8743C34.1669 16.7905 34.1562 16.7067 34.1467 16.6241C34.1578 16.7074 34.1683 16.7908 34.1782 16.8743ZM33.0319 25.0655C33.0467 25.0292 33.0618 24.9929 33.0771 24.9566C33.0622 24.9929 33.0471 25.0293 33.0319 25.0655ZM9.76634 6.74662C9.78882 6.72912 9.81134 6.71167 9.83391 6.69427L9.76634 6.74662Z" fill="white"/>
<path d="M9.83394 31.1478C9.7484 31.087 9.66487 31.0241 9.5807 30.9605C8.59272 30.169 7.69356 29.2708 6.89845 28.2841C6.08028 27.2013 5.39021 26.0241 4.84585 24.7804C4.35304 23.5488 4.00878 22.265 3.81307 20.9546C3.65608 19.6072 3.65643 18.2442 3.81413 16.8969C4.01098 15.5739 4.36559 14.2809 4.86204 13.0401C5.40305 11.8083 6.08899 10.6404 6.90171 9.56532C7.69872 8.57513 8.60472 7.67267 9.59877 6.87877C10.6829 6.06533 11.8576 5.37946 13.1046 4.83932C14.3445 4.34568 15.6362 3.99832 16.9576 3.80353C18.3129 3.646 19.681 3.64596 21.0364 3.80341C22.3645 3.99949 23.6625 4.35274 24.9083 4.84728C26.1448 5.38618 27.3173 6.06946 28.3965 6.87901C29.3905 7.67293 30.2965 8.57542 31.0935 9.56561C31.9101 10.6455 32.5986 11.8157 33.1409 13.0578C33.6364 14.2929 33.9851 15.5796 34.1807 16.8959C34.3385 18.2432 34.3389 19.6063 34.182 20.9537C33.9848 22.272 33.6341 23.5634 33.1397 24.8019C32.5993 26.0327 31.9194 27.1983 31.1069 28.2712C30.3006 29.2738 29.3869 30.1853 28.3817 30.9865C28.3087 31.0412 28.2349 31.0953 28.161 31.1478C27.7586 31.4381 27.4487 31.7561 27.3099 32.2491C27.1897 32.6914 27.2452 33.2766 27.495 33.6683C27.7494 34.06 28.1287 34.4101 28.6005 34.5161C29.0584 34.6175 29.632 34.6175 30.0252 34.3318C32.6804 32.3965 34.8869 29.8622 36.2422 26.8626C37.6206 23.8122 38.259 20.4393 37.9028 17.0989C37.5836 14.1084 36.6307 11.2101 34.9748 8.68043C33.3604 6.21069 31.191 4.11412 28.6422 2.61654C26.0287 1.0775 23.0636 0.211258 20.0382 0.0315382C16.9575 -0.152774 13.9 0.478496 11.0918 1.72257C8.54297 2.85608 6.21622 4.62548 4.43995 6.77277C2.53874 9.07205 1.13253 11.763 0.475728 14.6843C-0.24126 17.8729 -0.157996 21.2505 0.794899 24.384C1.75239 27.5357 3.54719 30.4524 5.96182 32.7057C6.59092 33.2955 7.27094 33.83 7.96935 34.3415C8.33478 34.6087 8.97777 34.641 9.39409 34.5258C9.82428 34.406 10.2869 34.0788 10.4996 33.678C10.7263 33.2495 10.8419 32.7334 10.6846 32.2588C10.6546 32.1851 10.6234 32.1114 10.5922 32.0377C10.5609 31.9639 10.5297 31.8902 10.4996 31.8164C10.3331 31.5307 10.1115 31.3091 9.83394 31.1478ZM4.96301 25.0655C4.94218 25.0161 4.92159 24.9666 4.90124 24.917C4.92212 24.9665 4.94282 25.016 4.96301 25.0655ZM3.78348 20.748C3.79053 20.7972 3.79759 20.8469 3.80451 20.8966C3.79729 20.8471 3.79028 20.7976 3.78348 20.748ZM3.81679 20.9863C3.82807 21.0701 3.83876 21.1539 3.84824 21.2365C3.83715 21.1531 3.82667 21.0697 3.81679 20.9863ZM4.98153 12.7489C4.96232 12.796 4.94264 12.8431 4.92278 12.8902C4.94216 12.843 4.96174 12.7959 4.98153 12.7489ZM6.71621 9.7999C6.73369 9.77739 6.75123 9.75493 6.76883 9.7325L6.71621 9.7999ZM12.7944 4.96631C12.8557 4.9405 12.9172 4.91504 12.9788 4.88995C12.9174 4.91576 12.8559 4.94143 12.7944 4.96631ZM17.1749 3.7729C17.1146 3.78148 17.0537 3.79005 16.9926 3.79839C17.0533 3.78957 17.1141 3.78108 17.1749 3.7729ZM16.936 3.80604C16.8518 3.8173 16.7676 3.82796 16.6846 3.83741C16.7684 3.82635 16.8522 3.8159 16.936 3.80604ZM25.2006 4.96631C25.1533 4.94717 25.106 4.92756 25.0586 4.90777C25.106 4.92708 25.1533 4.9466 25.2006 4.96631ZM28.161 6.69427C28.1836 6.71166 28.2061 6.7291 28.2286 6.7466L28.161 6.69427ZM31.2787 9.7999L31.2261 9.73245C31.2437 9.75489 31.2612 9.77737 31.2787 9.7999ZM33.0134 12.7489C33.0393 12.81 33.0649 12.8713 33.0901 12.9326C33.0642 12.8714 33.0384 12.8102 33.0134 12.7489ZM34.2115 17.1125C34.2029 17.0525 34.1943 16.9918 34.1859 16.931C34.1947 16.9914 34.2033 17.0519 34.2115 17.1125ZM34.1782 16.8743C34.1669 16.7905 34.1562 16.7067 34.1467 16.6241C34.1578 16.7074 34.1683 16.7908 34.1782 16.8743ZM33.0319 25.0655C33.0467 25.0292 33.0618 24.9929 33.0771 24.9566C33.0622 24.9929 33.0471 25.0293 33.0319 25.0655ZM9.76634 6.74662C9.78882 6.72912 9.81134 6.71167 9.83391 6.69427L9.76634 6.74662Z" stroke="#AAAAAA"/>
<path d="M27.483 28.5725C29.1483 27.1303 30.3648 25.2549 31.1143 23.1952C31.8683 21.1218 31.9747 18.8823 31.6185 16.7213C31.0125 13.0442 28.5793 9.71279 25.3367 7.88357C23.5928 6.90215 21.65 6.3538 19.6563 6.23862C17.6256 6.11882 15.6319 6.54735 13.7724 7.3445C10.3355 8.81436 7.68957 11.9339 6.66728 15.5003C6.07981 17.5508 6.04281 19.7394 6.49613 21.8222C6.96333 23.9694 8.05503 25.9692 9.52596 27.6004C9.83589 27.946 10.1736 28.2685 10.5251 28.5772C10.8998 28.8998 11.3253 29.1164 11.8342 29.1164C12.2875 29.1164 12.8287 28.9136 13.1433 28.5772C13.4671 28.2271 13.7077 27.7663 13.6845 27.2732C13.6614 26.8032 13.5087 26.2871 13.1433 25.9692C12.6551 25.5466 12.205 25.0861 11.7959 24.5877C11.3146 23.9367 10.9032 23.2383 10.5733 22.5013C10.2847 21.7625 10.076 20.9965 9.95235 20.2137C9.86508 19.4075 9.86494 18.5965 9.95194 17.7933C10.0753 17.0116 10.2836 16.2493 10.5717 15.5117C10.9023 14.7727 11.3094 14.0741 11.7929 13.4244C12.2709 12.8396 12.8036 12.3046 13.3885 11.8293C14.0476 11.3426 14.7571 10.9278 15.5083 10.5937C16.2546 10.3051 17.0261 10.0994 17.8173 9.97407C18.6165 9.88943 19.4231 9.89006 20.2222 9.97594C21.0069 10.0988 21.7722 10.3063 22.5127 10.5933C23.2546 10.9227 23.9559 11.3282 24.6081 11.8098C25.1952 12.286 25.7323 12.8166 26.2094 13.3993C26.698 14.0558 27.1144 14.7626 27.4498 15.5107C27.7393 16.2535 27.9456 17.0212 28.0715 17.8086C28.1562 18.603 28.1563 19.4022 28.0718 20.1937C27.9466 20.979 27.7413 21.7475 27.4535 22.4886C27.1197 23.2305 26.7094 23.9333 26.2256 24.5882C25.8167 25.0864 25.3667 25.5467 24.8786 25.9692C24.5363 26.2641 24.3374 26.8309 24.3374 27.2732C24.3374 27.7248 24.5409 28.2639 24.8786 28.5772C25.2302 28.8998 25.6927 29.1394 26.1877 29.1164C26.6827 29.0887 27.0944 28.909 27.4829 28.5726L27.483 28.5725ZM11.6076 24.3518L11.645 24.3997C11.6325 24.3838 11.62 24.3678 11.6076 24.3518ZM10.6732 22.7483C10.6608 22.7188 10.6486 22.6892 10.6365 22.6595C10.6488 22.6891 10.6611 22.7187 10.6732 22.7483ZM9.91917 19.9882C9.92476 20.0272 9.93035 20.0665 9.93588 20.1059C9.9301 20.0667 9.92453 20.0275 9.91917 19.9882ZM9.96055 20.2872C9.96886 20.3507 9.97674 20.414 9.98393 20.4767C9.9756 20.4135 9.96781 20.3504 9.96055 20.2872ZM10.6732 15.2606C10.661 15.2904 10.6487 15.3202 10.6363 15.3499C10.6484 15.3201 10.6607 15.2904 10.6732 15.2606ZM13.6058 11.6574L13.5612 11.6919C13.5761 11.6804 13.5909 11.6688 13.6058 11.6574ZM15.2572 10.6944C15.2866 10.6822 15.316 10.6701 15.3455 10.6582C15.316 10.6704 15.2866 10.6825 15.2572 10.6944ZM18.0234 9.94331C18.0105 9.94514 17.9976 9.94697 17.9847 9.9488C17.9976 9.94695 18.0105 9.94512 18.0234 9.94331ZM17.7291 9.98376C17.6634 9.99232 17.5979 10.0004 17.5331 10.0078C17.5984 9.99923 17.6637 9.99121 17.7291 9.98376ZM22.7647 10.6944C22.7349 10.6823 22.705 10.67 22.6751 10.6576C22.705 10.6698 22.7349 10.682 22.7647 10.6944ZM26.382 13.6157L26.3474 13.5714C26.359 13.5861 26.3705 13.6009 26.382 13.6157ZM27.3488 15.2606C27.361 15.2899 27.3731 15.3193 27.3851 15.3486C27.3729 15.3193 27.3607 15.29 27.3488 15.2606ZM28.1027 18.0161C28.1009 18.0033 28.0991 17.9905 28.0972 17.9776C28.0991 17.9904 28.1009 18.0033 28.1027 18.0161ZM28.0614 17.7172C28.0531 17.6537 28.0452 17.5903 28.038 17.5277C28.0463 17.5908 28.0541 17.654 28.0614 17.7172ZM27.3488 22.7483C27.3606 22.7193 27.3726 22.6903 27.3847 22.6613C27.3729 22.6903 27.3609 22.7193 27.3488 22.7483ZM26.4143 24.3518C26.402 24.3678 26.3896 24.3837 26.3771 24.3995L26.4143 24.3518Z" fill="white"/>
<path d="M27.483 28.5725C29.1483 27.1303 30.3648 25.2549 31.1143 23.1952C31.8683 21.1218 31.9747 18.8823 31.6185 16.7213C31.0125 13.0442 28.5793 9.71279 25.3367 7.88357C23.5928 6.90215 21.65 6.3538 19.6563 6.23862C17.6256 6.11882 15.6319 6.54735 13.7724 7.3445C10.3355 8.81436 7.68957 11.9339 6.66728 15.5003C6.07981 17.5508 6.04281 19.7394 6.49613 21.8222C6.96333 23.9694 8.05503 25.9692 9.52596 27.6004C9.83589 27.946 10.1736 28.2685 10.5251 28.5772C10.8998 28.8998 11.3253 29.1164 11.8342 29.1164C12.2875 29.1164 12.8287 28.9136 13.1433 28.5772C13.4671 28.2271 13.7077 27.7663 13.6845 27.2732C13.6614 26.8032 13.5087 26.2871 13.1433 25.9692C12.6551 25.5466 12.205 25.0861 11.7959 24.5877C11.3146 23.9367 10.9032 23.2383 10.5733 22.5013C10.2847 21.7625 10.076 20.9965 9.95235 20.2137C9.86508 19.4075 9.86494 18.5965 9.95194 17.7933C10.0753 17.0116 10.2836 16.2493 10.5717 15.5117C10.9023 14.7727 11.3094 14.0741 11.7929 13.4244C12.2709 12.8396 12.8036 12.3046 13.3885 11.8293C14.0476 11.3426 14.7571 10.9278 15.5083 10.5937C16.2546 10.3051 17.0261 10.0994 17.8173 9.97407C18.6165 9.88943 19.4231 9.89006 20.2222 9.97594C21.0069 10.0988 21.7722 10.3063 22.5127 10.5933C23.2546 10.9227 23.9559 11.3282 24.6081 11.8098C25.1952 12.286 25.7323 12.8166 26.2094 13.3993C26.698 14.0558 27.1144 14.7626 27.4498 15.5107C27.7393 16.2535 27.9456 17.0212 28.0715 17.8086C28.1562 18.603 28.1563 19.4022 28.0718 20.1937C27.9466 20.979 27.7413 21.7475 27.4535 22.4886C27.1197 23.2305 26.7094 23.9333 26.2256 24.5882C25.8167 25.0864 25.3667 25.5467 24.8786 25.9692C24.5363 26.2641 24.3374 26.8309 24.3374 27.2732C24.3374 27.7248 24.5409 28.2639 24.8786 28.5772C25.2302 28.8998 25.6927 29.1394 26.1877 29.1164C26.6827 29.0887 27.0944 28.909 27.4829 28.5726L27.483 28.5725ZM11.6076 24.3518L11.645 24.3997C11.6325 24.3838 11.62 24.3678 11.6076 24.3518ZM10.6732 22.7483C10.6608 22.7188 10.6486 22.6892 10.6365 22.6595C10.6488 22.6891 10.6611 22.7187 10.6732 22.7483ZM9.91917 19.9882C9.92476 20.0272 9.93035 20.0665 9.93588 20.1059C9.9301 20.0667 9.92453 20.0275 9.91917 19.9882ZM9.96055 20.2872C9.96886 20.3507 9.97674 20.414 9.98393 20.4767C9.9756 20.4135 9.96781 20.3504 9.96055 20.2872ZM10.6732 15.2606C10.661 15.2904 10.6487 15.3202 10.6363 15.3499C10.6484 15.3201 10.6607 15.2904 10.6732 15.2606ZM13.6058 11.6574L13.5612 11.6919C13.5761 11.6804 13.5909 11.6688 13.6058 11.6574ZM15.2572 10.6944C15.2866 10.6822 15.316 10.6701 15.3455 10.6582C15.316 10.6704 15.2866 10.6825 15.2572 10.6944ZM18.0234 9.94331C18.0105 9.94514 17.9976 9.94697 17.9847 9.9488C17.9976 9.94695 18.0105 9.94512 18.0234 9.94331ZM17.7291 9.98376C17.6634 9.99232 17.5979 10.0004 17.5331 10.0078C17.5984 9.99923 17.6637 9.99121 17.7291 9.98376ZM22.7647 10.6944C22.7349 10.6823 22.705 10.67 22.6751 10.6576C22.705 10.6698 22.7349 10.682 22.7647 10.6944ZM26.382 13.6157L26.3474 13.5714C26.359 13.5861 26.3705 13.6009 26.382 13.6157ZM27.3488 15.2606C27.361 15.2899 27.3731 15.3193 27.3851 15.3486C27.3729 15.3193 27.3607 15.29 27.3488 15.2606ZM28.1027 18.0161C28.1009 18.0033 28.0991 17.9905 28.0972 17.9776C28.0991 17.9904 28.1009 18.0033 28.1027 18.0161ZM28.0614 17.7172C28.0531 17.6537 28.0452 17.5903 28.038 17.5277C28.0463 17.5908 28.0541 17.654 28.0614 17.7172ZM27.3488 22.7483C27.3606 22.7193 27.3726 22.6903 27.3847 22.6613C27.3729 22.6903 27.3609 22.7193 27.3488 22.7483ZM26.4143 24.3518C26.402 24.3678 26.3896 24.3837 26.3771 24.3995L26.4143 24.3518Z" stroke="#AAAAAA"/>
<path d="M24.1541 18.9233C24.1541 21.7659 21.8409 24.0702 18.9872 24.0702C16.1335 24.0702 13.8203 21.7659 13.8203 18.9233C13.8203 16.0806 16.1335 13.7764 18.9872 13.7764C21.8409 13.7764 24.1541 16.0806 24.1541 18.9233Z" fill="white"/>
<path d="M22.7733 18.9221C22.7733 19.1571 22.7548 19.3921 22.7271 19.6271C22.7456 19.5027 22.7595 19.3829 22.778 19.2585C22.7132 19.7101 22.5929 20.1524 22.4125 20.5717C22.4588 20.4612 22.505 20.3506 22.5513 20.24C22.4218 20.5395 22.2691 20.8252 22.0841 21.0924C22.0378 21.1615 21.9916 21.226 21.9453 21.2905C21.8112 21.4749 22.1905 20.991 21.9731 21.2491C21.8759 21.3643 21.7742 21.4749 21.6678 21.5808C21.5614 21.6868 21.4504 21.7882 21.3347 21.8849C21.0757 22.1015 21.566 21.7237 21.3764 21.8573C21.3116 21.9034 21.2468 21.9541 21.1774 21.9955C20.9045 22.1752 20.6177 22.3319 20.3217 22.4609L20.6548 22.3227C20.2292 22.4978 19.7897 22.6222 19.3364 22.6867C19.4613 22.6683 19.5816 22.6544 19.7065 22.636C19.2346 22.6959 18.7628 22.6959 18.291 22.636C18.4159 22.6544 18.5362 22.6683 18.6611 22.6867C18.2078 22.6222 17.7637 22.5024 17.3427 22.3227L17.6758 22.4609C17.3751 22.3319 17.0883 22.1798 16.82 21.9955C16.7507 21.9495 16.6859 21.9034 16.6211 21.8573C16.4361 21.7237 16.9218 22.1015 16.6628 21.8849C16.5471 21.7882 16.4361 21.6868 16.3297 21.5808C16.2233 21.4749 16.1216 21.3643 16.0244 21.2491C15.807 20.991 16.1863 21.4795 16.0522 21.2905C16.0059 21.226 15.955 21.1615 15.9134 21.0924C15.733 20.8205 15.5757 20.5349 15.4462 20.24C15.4924 20.3506 15.5387 20.4612 15.585 20.5717C15.4092 20.1478 15.2843 19.71 15.2195 19.2585C15.238 19.3829 15.2519 19.5027 15.2704 19.6271C15.2103 19.1571 15.2103 18.6872 15.2704 18.2172C15.2519 18.3416 15.238 18.4614 15.2195 18.5858C15.2843 18.1342 15.4046 17.6919 15.585 17.2726C15.5387 17.3832 15.4924 17.4938 15.4462 17.6043C15.5757 17.3048 15.7284 17.0191 15.9134 16.7519C15.9596 16.6828 16.0059 16.6183 16.0522 16.5538C16.1863 16.3695 15.807 16.8533 16.0244 16.5952C16.1215 16.48 16.2233 16.3695 16.3297 16.2635C16.4361 16.1575 16.5471 16.0561 16.6628 15.9594C16.9218 15.7428 16.4315 16.1206 16.6211 15.987C16.6859 15.9409 16.7506 15.8903 16.82 15.8488C17.093 15.6691 17.3798 15.5124 17.6758 15.3834L17.3427 15.5216C17.7683 15.3465 18.2078 15.2221 18.6611 15.1576C18.5362 15.176 18.4159 15.1899 18.291 15.2083C18.7628 15.1484 19.2347 15.1484 19.7065 15.2083C19.5816 15.1899 19.4613 15.176 19.3364 15.1576C19.7897 15.2221 20.2338 15.3419 20.6548 15.5216L20.3217 15.3834C20.6224 15.5124 20.9092 15.6645 21.1774 15.8488C21.2468 15.8949 21.3116 15.9409 21.3764 15.987C21.5614 16.1206 21.0757 15.7428 21.3347 15.9594C21.4504 16.0561 21.5614 16.1575 21.6678 16.2635C21.7742 16.3695 21.8759 16.48 21.9731 16.5952C22.1905 16.8533 21.8112 16.3648 21.9453 16.5538C21.9916 16.6183 22.0425 16.6828 22.0841 16.7519C22.2645 17.0238 22.4218 17.3095 22.5513 17.6043C22.505 17.4938 22.4588 17.3832 22.4125 17.2726C22.5883 17.6965 22.7132 18.1343 22.778 18.5858C22.7595 18.4614 22.7456 18.3416 22.7271 18.2172C22.7595 18.4522 22.7733 18.6871 22.7733 18.9221C22.778 19.6456 23.4071 20.3368 24.161 20.3045C24.9104 20.2722 25.5534 19.6963 25.5487 18.9222C25.5395 17.6228 25.1556 16.2865 24.3923 15.2268C23.5689 14.0794 22.4865 13.25 21.1543 12.757C18.6888 11.8447 15.6727 12.6556 14.0075 14.683C13.0963 15.7935 12.5643 17.0699 12.4486 18.5029C12.3422 19.8023 12.6892 21.1755 13.3692 22.2859C14.026 23.3641 15.0159 24.2949 16.177 24.8155C17.5138 25.4145 18.9339 25.5896 20.3771 25.3039C22.8935 24.8017 25.0399 22.6222 25.433 20.0879C25.4932 19.7009 25.544 19.3138 25.544 18.9222C25.5487 18.1987 24.9011 17.5076 24.1563 17.5398C23.407 17.5721 22.778 18.1481 22.7733 18.9221Z" fill="white"/>
<path d="M19.3311 43.859H18.6557C16.8332 43.859 15.3438 42.3753 15.3438 40.5598V32.054C15.3438 30.2386 16.8332 28.7549 18.6557 28.7549H19.3311C21.1536 28.7549 22.643 30.2386 22.643 32.054V40.5598C22.6477 42.3753 21.1536 43.859 19.3311 43.859Z" fill="white"/>
<path d="M19.3302 42.4785C19.2514 42.4785 19.1724 42.4793 19.0933 42.4801C18.8612 42.4825 18.6285 42.4849 18.3983 42.4668C18.24 42.4355 18.0857 42.3933 17.9345 42.3408C17.7976 42.2744 17.6639 42.201 17.5354 42.1145C17.5156 42.1014 17.4959 42.0872 17.4761 42.0729C17.4609 42.0593 17.4456 42.0457 17.4303 42.0322C17.3854 41.9924 17.3408 41.9529 17.2995 41.9118C17.2393 41.8518 17.1852 41.7917 17.1322 41.7317C17.1244 41.7192 17.118 41.709 17.1145 41.7044C17.0275 41.5778 16.9502 41.4439 16.8826 41.3045C16.8262 41.1466 16.7811 40.9846 16.748 40.8204C16.7286 40.5747 16.7311 40.3249 16.7335 40.0768C16.7344 39.994 16.7352 39.9113 16.7352 39.829V37.7555V32.9864C16.7352 32.8773 16.7336 32.7674 16.732 32.6571C16.7279 32.3709 16.7237 32.0823 16.7472 31.7991C16.7785 31.6418 16.8209 31.4883 16.8735 31.338C16.9401 31.2016 17.0138 31.0685 17.1006 30.9405C17.1138 30.9208 17.128 30.9011 17.1423 30.8814C17.156 30.8663 17.1696 30.851 17.1832 30.8358C17.2232 30.7911 17.2628 30.7467 17.3041 30.7055C17.3644 30.6455 17.4246 30.5916 17.4849 30.5389C17.4975 30.5311 17.5077 30.5247 17.5123 30.5212C17.6394 30.4346 17.7738 30.3576 17.9137 30.2902C18.0766 30.2325 18.2438 30.1866 18.4132 30.1535C18.7956 30.1184 19.2022 30.1185 19.5845 30.1538C19.7452 30.1851 19.9019 30.2279 20.0552 30.2811C20.1922 30.3475 20.3258 30.4209 20.4543 30.5074C20.474 30.5205 20.4938 30.5347 20.5136 30.5489C20.5288 30.5626 20.5441 30.5762 20.5594 30.5897C20.6043 30.6295 20.6489 30.669 20.6902 30.7101C20.7504 30.7701 20.8045 30.8301 20.8575 30.8901C20.8653 30.9027 20.8717 30.9129 20.8752 30.9175C20.9622 31.0441 21.0395 31.178 21.1071 31.3173C21.1635 31.4753 21.2086 31.6373 21.2417 31.8014C21.2611 32.0472 21.2586 32.297 21.2561 32.5451C21.2553 32.6279 21.2545 32.7106 21.2545 32.7929V34.8663V39.6355C21.2545 39.7446 21.2561 39.8545 21.2577 39.9648C21.2618 40.251 21.266 40.5395 21.2425 40.8228C21.2112 40.9801 21.1688 41.1336 21.1162 41.2839C21.0496 41.4202 20.9759 41.5534 20.8891 41.6814C20.8759 41.7011 20.8617 41.7208 20.8474 41.7405C20.8337 41.7556 20.8201 41.7709 20.8065 41.786C20.7665 41.8308 20.7269 41.8752 20.6856 41.9164C20.6253 41.9764 20.5651 42.0303 20.5048 42.083C20.4922 42.0908 20.482 42.0972 20.4774 42.1007C20.3503 42.1873 20.2159 42.2643 20.076 42.3317C19.91 42.3904 19.7397 42.437 19.567 42.4703C19.495 42.4755 19.4223 42.4781 19.3487 42.4785C19.3425 42.4784 19.3363 42.4784 19.3301 42.4784L19.3302 42.4785ZM18.5762 42.4969C18.5687 42.4959 18.5612 42.4948 18.5537 42.4937C18.5612 42.4947 18.5687 42.4958 18.5762 42.4969ZM17.2024 41.8288C17.1964 41.8288 17.182 41.8094 17.1664 41.7858C17.1871 41.8106 17.2024 41.8288 17.2024 41.8288ZM16.7167 40.64C16.7173 40.6442 16.7179 40.6484 16.7185 40.6526C16.7179 40.6484 16.7173 40.6442 16.7167 40.64ZM16.7167 31.9773C16.7177 31.9698 16.7188 31.9623 16.72 31.9548C16.7189 31.9623 16.7178 31.9698 16.7167 31.9773ZM17.3874 30.6088C17.3874 30.6029 17.4069 30.5885 17.4306 30.5729C17.4057 30.5935 17.3874 30.6088 17.3874 30.6088ZM18.5808 30.1249C18.5766 30.1256 18.5724 30.1262 18.5682 30.1268C18.5724 30.1262 18.5766 30.1256 18.5808 30.1249ZM19.4135 30.1249C19.421 30.126 19.4285 30.1271 19.436 30.1282C19.4285 30.1271 19.421 30.1261 19.4135 30.1249ZM20.7873 30.7931C20.7932 30.7931 20.8077 30.8125 20.8233 30.8361C20.8026 30.8113 20.7873 30.7931 20.7873 30.7931ZM21.273 31.9819C21.2724 31.9777 21.2718 31.9735 21.2712 31.9693C21.2718 31.9735 21.2724 31.9777 21.273 31.9819ZM21.273 40.6446C21.2719 40.6521 21.2708 40.6596 21.2697 40.6671C21.2708 40.6596 21.2719 40.6521 21.273 40.6446ZM20.6023 42.0131C20.6023 42.019 20.5828 42.0334 20.5591 42.049C20.584 42.0284 20.6023 42.0131 20.6023 42.0131ZM19.466 45.2398C20.6917 45.1921 21.8961 44.6801 22.7347 43.7825C23.5581 42.9024 24.0207 41.7596 24.0299 40.557C24.033 40.0256 24.0319 39.4942 24.0309 38.9627C24.0304 38.697 24.0299 38.4313 24.0299 38.1656V34.0093C24.0299 33.7854 24.0351 33.5585 24.0404 33.3303C24.0536 32.7559 24.067 32.1739 23.9975 31.6132C23.8264 30.2171 23.1418 29.0513 21.9992 28.2173C21.1157 27.5722 20.061 27.374 18.9878 27.374C17.9239 27.374 16.8831 27.5676 15.9997 28.1988C14.9866 28.9222 14.2187 29.9959 14.0291 31.2445C13.9225 31.9421 13.9333 32.6587 13.944 33.3693C13.9472 33.5834 13.9505 33.7969 13.9505 34.0092V38.124C13.9505 38.3943 13.9499 38.6646 13.9494 38.9349C13.9484 39.4756 13.9474 40.0162 13.9505 40.5569C13.9597 41.7457 14.413 42.8562 15.204 43.7409C16.0551 44.6855 17.3226 45.22 18.5854 45.2476C18.749 45.2507 18.9147 45.2497 19.0797 45.2486C19.1619 45.2481 19.244 45.2476 19.3255 45.2476C19.3725 45.2476 19.4194 45.245 19.466 45.2398ZM19.7178 42.455C19.738 42.4522 19.7584 42.4493 19.7789 42.4463C19.7585 42.4494 19.7382 42.4523 19.7178 42.455Z" fill="white"/>
<path d="M19.3302 42.4785C19.2514 42.4785 19.1724 42.4793 19.0933 42.4801C18.8612 42.4825 18.6285 42.4849 18.3983 42.4668C18.24 42.4355 18.0857 42.3933 17.9345 42.3408C17.7976 42.2744 17.6639 42.201 17.5354 42.1145C17.5156 42.1014 17.4959 42.0872 17.4761 42.0729C17.4609 42.0593 17.4456 42.0457 17.4303 42.0322C17.3854 41.9924 17.3408 41.9529 17.2995 41.9118C17.2393 41.8518 17.1852 41.7917 17.1322 41.7317C17.1244 41.7192 17.118 41.709 17.1145 41.7044C17.0275 41.5778 16.9502 41.4439 16.8826 41.3045C16.8262 41.1466 16.7811 40.9846 16.748 40.8204C16.7286 40.5747 16.7311 40.3249 16.7335 40.0768C16.7344 39.994 16.7352 39.9113 16.7352 39.829V37.7555V32.9864C16.7352 32.8773 16.7336 32.7674 16.732 32.6571C16.7279 32.3709 16.7237 32.0823 16.7472 31.7991C16.7785 31.6418 16.8209 31.4883 16.8735 31.338C16.9401 31.2016 17.0138 31.0685 17.1006 30.9405C17.1138 30.9208 17.128 30.9011 17.1423 30.8814C17.156 30.8663 17.1696 30.851 17.1832 30.8358C17.2232 30.7911 17.2628 30.7467 17.3041 30.7055C17.3644 30.6455 17.4246 30.5916 17.4849 30.5389C17.4975 30.5311 17.5077 30.5247 17.5123 30.5212C17.6394 30.4346 17.7738 30.3576 17.9137 30.2902C18.0766 30.2325 18.2438 30.1866 18.4132 30.1535C18.7956 30.1184 19.2022 30.1185 19.5845 30.1538C19.7452 30.1851 19.9019 30.2279 20.0552 30.2811C20.1922 30.3475 20.3258 30.4209 20.4543 30.5074C20.474 30.5205 20.4938 30.5347 20.5136 30.5489C20.5288 30.5626 20.5441 30.5762 20.5594 30.5897C20.6043 30.6295 20.6489 30.669 20.6902 30.7101C20.7504 30.7701 20.8045 30.8301 20.8575 30.8901C20.8653 30.9027 20.8717 30.9129 20.8752 30.9175C20.9622 31.0441 21.0395 31.178 21.1071 31.3173C21.1635 31.4753 21.2086 31.6373 21.2417 31.8014C21.2611 32.0472 21.2586 32.297 21.2561 32.5451C21.2553 32.6279 21.2545 32.7106 21.2545 32.7929V34.8663V39.6355C21.2545 39.7446 21.2561 39.8545 21.2577 39.9648C21.2618 40.251 21.266 40.5395 21.2425 40.8228C21.2112 40.9801 21.1688 41.1336 21.1162 41.2839C21.0496 41.4202 20.9759 41.5534 20.8891 41.6814C20.8759 41.7011 20.8617 41.7208 20.8474 41.7405C20.8337 41.7556 20.8201 41.7709 20.8065 41.786C20.7665 41.8308 20.7269 41.8752 20.6856 41.9164C20.6253 41.9764 20.5651 42.0303 20.5048 42.083C20.4922 42.0908 20.482 42.0972 20.4774 42.1007C20.3503 42.1873 20.2159 42.2643 20.076 42.3317C19.91 42.3904 19.7397 42.437 19.567 42.4703C19.495 42.4755 19.4223 42.4781 19.3487 42.4785C19.3425 42.4784 19.3363 42.4784 19.3301 42.4784L19.3302 42.4785ZM18.5762 42.4969C18.5687 42.4959 18.5612 42.4948 18.5537 42.4937C18.5612 42.4947 18.5687 42.4958 18.5762 42.4969ZM17.2024 41.8288C17.1964 41.8288 17.182 41.8094 17.1664 41.7858C17.1871 41.8106 17.2024 41.8288 17.2024 41.8288ZM16.7167 40.64C16.7173 40.6442 16.7179 40.6484 16.7185 40.6526C16.7179 40.6484 16.7173 40.6442 16.7167 40.64ZM16.7167 31.9773C16.7177 31.9698 16.7188 31.9623 16.72 31.9548C16.7189 31.9623 16.7178 31.9698 16.7167 31.9773ZM17.3874 30.6088C17.3874 30.6029 17.4069 30.5885 17.4306 30.5729C17.4057 30.5935 17.3874 30.6088 17.3874 30.6088ZM18.5808 30.1249C18.5766 30.1256 18.5724 30.1262 18.5682 30.1268C18.5724 30.1262 18.5766 30.1256 18.5808 30.1249ZM19.4135 30.1249C19.421 30.126 19.4285 30.1271 19.436 30.1282C19.4285 30.1271 19.421 30.1261 19.4135 30.1249ZM20.7873 30.7931C20.7932 30.7931 20.8077 30.8125 20.8233 30.8361C20.8026 30.8113 20.7873 30.7931 20.7873 30.7931ZM21.273 31.9819C21.2724 31.9777 21.2718 31.9735 21.2712 31.9693C21.2718 31.9735 21.2724 31.9777 21.273 31.9819ZM21.273 40.6446C21.2719 40.6521 21.2708 40.6596 21.2697 40.6671C21.2708 40.6596 21.2719 40.6521 21.273 40.6446ZM20.6023 42.0131C20.6023 42.019 20.5828 42.0334 20.5591 42.049C20.584 42.0284 20.6023 42.0131 20.6023 42.0131ZM19.466 45.2398C20.6917 45.1921 21.8961 44.6801 22.7347 43.7825C23.5581 42.9024 24.0207 41.7596 24.0299 40.557C24.033 40.0256 24.0319 39.4942 24.0309 38.9627C24.0304 38.697 24.0299 38.4313 24.0299 38.1656V34.0093C24.0299 33.7854 24.0351 33.5585 24.0404 33.3303C24.0536 32.7559 24.067 32.1739 23.9975 31.6132C23.8264 30.2171 23.1418 29.0513 21.9992 28.2173C21.1157 27.5722 20.061 27.374 18.9878 27.374C17.9239 27.374 16.8831 27.5676 15.9997 28.1988C14.9866 28.9222 14.2187 29.9959 14.0291 31.2445C13.9225 31.9421 13.9333 32.6587 13.944 33.3693C13.9472 33.5834 13.9505 33.7969 13.9505 34.0092V38.124C13.9505 38.3943 13.9499 38.6646 13.9494 38.9349C13.9484 39.4756 13.9474 40.0162 13.9505 40.5569C13.9597 41.7457 14.413 42.8562 15.204 43.7409C16.0551 44.6855 17.3226 45.22 18.5854 45.2476C18.749 45.2507 18.9147 45.2497 19.0797 45.2486C19.1619 45.2481 19.244 45.2476 19.3255 45.2476C19.3725 45.2476 19.4194 45.245 19.466 45.2398ZM19.7178 42.455C19.738 42.4522 19.7584 42.4493 19.7789 42.4463C19.7585 42.4494 19.7382 42.4523 19.7178 42.455Z" stroke="#AAAAAA"/>
</svg>
