<svg width="26" height="26" viewBox="0 0 26 26" fill="none" xmlns="http://www.w3.org/2000/svg">
<path fill-rule="evenodd" clip-rule="evenodd" d="M13.724 0H9.12454L9.39389 0.808092L11.4882 7.09091H16.0876L14.2424 1.55554L13.724 0ZM17.6996 9.45455C17.7179 9.45497 17.7363 9.45497 17.7546 9.45455H26V19.5C26 23.0899 23.0899 26 19.5 26H6.5C2.91014 26 0 23.0899 0 19.5V9.45455H10.6088C10.627 9.45497 10.6453 9.45497 10.6637 9.45455H17.6996ZM18.5791 7.09091L16.4848 0.808092L16.2155 0H19.5C23.0899 0 26 2.91014 26 6.5V7.09091H18.5791ZM6.5 0H6.63304L7.15156 1.55554L8.99667 7.09091H0V6.5C0 2.91014 2.91014 0 6.5 0ZM10.7232 10.85C10.3622 10.5973 9.89054 10.5664 9.49968 10.7699C9.10882 10.9734 8.86364 11.3775 8.86364 11.8182V20.0909C8.86364 20.5316 9.10882 20.9357 9.49968 21.1392C9.89054 21.3427 10.3622 21.3118 10.7232 21.0591L16.6323 16.9227C16.9482 16.7016 17.1364 16.3402 17.1364 15.9545C17.1364 15.5689 16.9482 15.2075 16.6323 14.9864L13.6778 12.9182L10.7232 10.85Z" fill="url(#paint0_linear_105_168)"/>
<defs>
<linearGradient id="paint0_linear_105_168" x1="13" y1="0" x2="13" y2="26" gradientUnits="userSpaceOnUse">
<stop stop-color="#03C4CB"/>
<stop offset="1" stop-color="#D90ADA"/>
</linearGradient>
</defs>
</svg>
