<svg width="38" height="36" viewBox="0 0 38 36" fill="none" xmlns="http://www.w3.org/2000/svg">
<path d="M2.45105 15.8686C7.00118 15.8686 11.365 17.6691 14.583 20.8741C17.8 24.0791 19.608 28.426 19.608 32.959C19.608 33.6066 19.8661 34.2274 20.3256 34.6854C20.7855 35.1431 21.4086 35.4003 22.0587 35.4003H30.6366C32.5868 35.4003 34.4572 34.6288 35.836 33.2553C37.2149 31.8815 37.9897 30.0188 37.9897 28.0761V7.3242C37.9897 5.38154 37.2149 3.51888 35.836 2.14494C34.4572 0.771439 32.5869 0 30.6366 0H7.35312C5.40291 0 3.53257 0.77145 2.15372 2.14494C0.774876 3.51878 0 5.38143 0 7.3242V13.4277C0 14.0753 0.25858 14.696 0.718036 15.1541C1.17749 15.6118 1.80107 15.8689 2.45117 15.8689L2.45105 15.8686ZM4.90172 7.32391C4.90172 6.67635 5.15988 6.05515 5.61976 5.5975C6.07921 5.13982 6.70279 4.88224 7.35289 4.88224H30.6364C31.2865 4.88224 31.9101 5.13982 32.3695 5.5975C32.8294 6.05517 33.0876 6.67633 33.0876 7.32391V28.0758C33.0876 28.7234 32.8294 29.3446 32.3695 29.8022C31.9101 30.2599 31.2865 30.5175 30.6364 30.5175H24.3686C23.8052 25.5678 21.5733 20.9553 18.0375 17.4331C14.5016 13.9109 9.87108 11.6876 4.90222 11.1266L4.90172 7.32391Z" fill="white"/>
</svg>
