<svg width="46" height="46" viewBox="0 0 46 46" fill="none" xmlns="http://www.w3.org/2000/svg">
<g filter="url(#filter0_d_131_235)">
<path d="M20.3153 11.5257C20.3153 10.1867 19.7834 8.90255 18.8366 7.95575C17.8898 7.00896 16.6056 6.47705 15.2667 6.47705C13.9277 6.47705 12.6436 7.00896 11.6968 7.95575C10.75 8.90255 10.2181 10.1867 10.2181 11.5257C10.2181 12.8646 10.75 14.1488 11.6968 15.0956C12.6436 16.0424 13.9277 16.5743 15.2667 16.5743C16.6056 16.5743 17.8898 16.0424 18.8366 15.0956C19.7834 14.1488 20.3153 12.8646 20.3153 11.5257ZM12.0539 11.5257C12.0539 11.1038 12.137 10.686 12.2985 10.2962C12.4599 9.90641 12.6966 9.55223 12.9949 9.2539C13.2932 8.95557 13.6474 8.71892 14.0372 8.55747C14.427 8.39601 14.8448 8.31291 15.2667 8.31291C15.6886 8.31291 16.1063 8.39601 16.4961 8.55747C16.8859 8.71892 17.2401 8.95557 17.5384 9.2539C17.8368 9.55223 18.0734 9.90641 18.2349 10.2962C18.3963 10.686 18.4794 11.1038 18.4794 11.5257C18.4794 12.3777 18.1409 13.1949 17.5384 13.7974C16.9359 14.3999 16.1187 14.7384 15.2667 14.7384C14.4146 14.7384 13.5974 14.3999 12.9949 13.7974C12.3924 13.1949 12.0539 12.3777 12.0539 11.5257ZM8.84116 18.4101H16.5206C16.2195 18.9792 15.9955 19.5961 15.8633 20.246H8.84116C8.59771 20.246 8.36423 20.3427 8.19209 20.5148C8.01994 20.687 7.92323 20.9205 7.92323 21.1639V22.0819C7.92323 24.395 9.94084 26.8808 13.607 27.4609C13.0159 27.8648 12.5239 28.4027 12.1732 29.0287C8.29958 27.9805 6.08737 24.9954 6.08737 22.0819V21.1639C6.08737 20.4336 6.3775 19.7331 6.89394 19.2167C7.41037 18.7003 8.11081 18.4101 8.84116 18.4101ZM18.7162 18.4101C19.6415 17.2903 21.0423 16.5743 22.6101 16.5743C23.7095 16.5724 24.7794 16.9302 25.6565 17.5931C26.5336 18.2561 27.1697 19.1877 27.4678 20.246C27.7335 21.1905 27.7185 22.192 27.4247 23.1282C27.1309 24.0644 26.5709 24.8948 25.8131 25.5181C25.0553 26.1414 24.1324 26.5306 23.1571 26.6383C22.1818 26.7459 21.1963 26.5674 20.3208 26.1244C19.6467 25.7813 19.0583 25.2912 18.5991 24.6901C18.1399 24.0891 17.8216 23.3926 17.6677 22.652C17.5138 21.9114 17.5284 21.1457 17.7102 20.4115C17.892 19.6773 18.2364 18.9933 18.7181 18.4101H18.7162ZM19.7076 20.246C19.5268 20.6274 19.4229 21.0407 19.4018 21.4622C19.3807 21.8838 19.4428 22.3054 19.5847 22.7029C19.7265 23.1005 19.9452 23.4662 20.2284 23.7792C20.5116 24.0922 20.8536 24.3464 21.235 24.5272C21.6164 24.708 22.0297 24.812 22.4513 24.8331C22.8729 24.8541 23.2944 24.792 23.692 24.6502C24.0895 24.5083 24.4553 24.2896 24.7683 24.0064C25.0813 23.7232 25.3354 23.3812 25.5163 22.9998C25.8814 22.2293 25.9256 21.3452 25.639 20.5422C25.3523 19.7391 24.7584 19.0828 23.9879 18.7176C23.2174 18.3525 22.3334 18.3083 21.5303 18.595C20.7273 18.8816 20.0709 19.4755 19.7058 20.246H19.7076ZM33.047 29.0287C32.6973 28.4024 32.2063 27.8662 31.6132 27.4628C35.2775 26.8808 37.297 24.3932 37.297 22.0819V21.1639C37.297 20.9205 37.2003 20.687 37.0281 20.5148C36.856 20.3427 36.6225 20.246 36.379 20.246H29.3569C29.2272 19.6059 29.0065 18.9877 28.7015 18.4101H36.379C37.1094 18.4101 37.8098 18.7003 38.3263 19.2167C38.8427 19.7331 39.1328 20.4336 39.1328 21.1639V22.0819C39.1328 24.9954 36.9188 27.9786 33.047 29.0287ZM30.8476 29.1885C30.3465 28.7486 29.7023 28.5065 29.0356 28.5074H16.1846C15.8227 28.5064 15.4642 28.577 15.1296 28.715C14.7951 28.8531 14.4911 29.0559 14.2352 29.3118C13.9793 29.5677 13.7765 29.8716 13.6385 30.2062C13.5004 30.5407 13.4298 30.8992 13.4308 31.2611V32.1791C13.4308 35.7976 16.8455 39.5225 22.6101 39.5225C28.3747 39.5225 31.7894 35.7976 31.7894 32.1791V31.2611C31.7894 30.435 31.4259 29.6933 30.8476 29.1866V29.1885ZM15.2667 31.2611C15.2667 31.0177 15.3634 30.7842 15.5355 30.6121C15.7077 30.4399 15.9411 30.3432 16.1846 30.3432H29.0356C29.2791 30.3432 29.5125 30.4399 29.6847 30.6121C29.8568 30.7842 29.9535 31.0177 29.9535 31.2611V32.1791C29.9535 34.819 27.3246 37.6867 22.6101 37.6867C17.8956 37.6867 15.2667 34.819 15.2667 32.1791V31.2611ZM29.9535 6.47705C31.2925 6.47705 32.5766 7.00896 33.5234 7.95575C34.4702 8.90255 35.0021 10.1867 35.0021 11.5257C35.0021 12.8646 34.4702 14.1488 33.5234 15.0956C32.5766 16.0424 31.2925 16.5743 29.9535 16.5743C28.6146 16.5743 27.3304 16.0424 26.3836 15.0956C25.4368 14.1488 24.9049 12.8646 24.9049 11.5257C24.9049 10.1867 25.4368 8.90255 26.3836 7.95575C27.3304 7.00896 28.6146 6.47705 29.9535 6.47705ZM29.9535 8.31291C29.1015 8.31291 28.2843 8.6514 27.6818 9.2539C27.0793 9.85641 26.7408 10.6736 26.7408 11.5257C26.7408 12.3777 27.0793 13.1949 27.6818 13.7974C28.2843 14.3999 29.1015 14.7384 29.9535 14.7384C30.8056 14.7384 31.6228 14.3999 32.2253 13.7974C32.8278 13.1949 33.1663 12.3777 33.1663 11.5257C33.1663 10.6736 32.8278 9.85641 32.2253 9.2539C31.6228 8.6514 30.8056 8.31291 29.9535 8.31291Z" fill="url(#paint0_linear_131_235)"/>
</g>
<defs>
<filter id="filter0_d_131_235" x="1.97252" y="2.36219" width="41.2752" height="41.2751" filterUnits="userSpaceOnUse" color-interpolation-filters="sRGB">
<feFlood flood-opacity="0" result="BackgroundImageFix"/>
<feColorMatrix in="SourceAlpha" type="matrix" values="0 0 0 0 0 0 0 0 0 0 0 0 0 0 0 0 0 0 127 0" result="hardAlpha"/>
<feOffset/>
<feGaussianBlur stdDeviation="2.05743"/>
<feComposite in2="hardAlpha" operator="out"/>
<feColorMatrix type="matrix" values="0 0 0 0 0 0 0 0 0 0.670588 0 0 0 0 0.890196 0 0 0 0.55 0"/>
<feBlend mode="normal" in2="BackgroundImageFix" result="effect1_dropShadow_131_235"/>
<feBlend mode="normal" in="SourceGraphic" in2="effect1_dropShadow_131_235" result="shape"/>
</filter>
<linearGradient id="paint0_linear_131_235" x1="22.6101" y1="6.47705" x2="22.6101" y2="39.5225" gradientUnits="userSpaceOnUse">
<stop stop-color="#00EAF2"/>
<stop offset="1" stop-color="#DB09D9"/>
</linearGradient>
</defs>
</svg>
