<svg width="40" height="40" viewBox="0 0 40 40" fill="none" xmlns="http://www.w3.org/2000/svg">
<path d="M0 30V2.1C0 1.63333 0.216667 1.16667 0.65 0.7C1.08333 0.233333 1.53333 0 2 0H27.95C28.45 0 28.9167 0.225 29.35 0.675C29.7833 1.125 30 1.6 30 2.1V19.9C30 20.3667 29.7833 20.8333 29.35 21.3C28.9167 21.7667 28.45 22 27.95 22H8L0 30ZM10.05 32C9.58333 32 9.125 31.7667 8.675 31.3C8.225 30.8333 8 30.3667 8 29.9V25H33V8H38C38.4667 8 38.9167 8.23333 39.35 8.7C39.7833 9.16667 40 9.65 40 10.15V39.95L32.05 32H10.05Z" fill="white"/>
</svg>
