<svg width="38" height="38" viewBox="0 0 38 38" fill="none" xmlns="http://www.w3.org/2000/svg">
<path d="M24.2441 9.9681L27.0724 13.4001C30.7196 17.8258 31.0313 23.7748 29.6056 27.7741C28.463 30.9812 25.2647 34.3524 20.7786 35.1578L16.5751 35.9124L19.7904 33.1016C20.5869 32.4053 21.4633 31.1984 21.4633 29.1286C21.4633 27.6155 21.0441 26.7862 20.536 26.0863C20.3489 25.8285 20.1732 25.6171 19.9753 25.3789C19.8551 25.2343 19.7268 25.0798 19.5828 24.8991C19.2341 24.4619 18.8632 23.9492 18.5756 23.3101L24.2441 9.9681ZM24.2441 9.9681L24.9922 14.352C25.0784 14.8576 25.1316 15.3242 25.1586 15.7535M24.2441 9.9681L25.1586 15.7535M25.1586 15.7535C24.5279 14.4846 23.63 13.3679 22.5118 11.9773L22.4815 11.9397L22.4814 11.9395C20.0894 8.96581 19.6064 6.90272 20.3515 5.29383L21.6385 2.51523L18.8173 3.70589C14.4777 5.53736 13.5787 9.41149 13.5787 11.8755C13.5787 13.0656 13.4503 14.015 13.27 14.7621C12.8065 13.8791 12.0691 12.9616 10.9154 12.1592L7.99974 10.1316L9.11592 13.503C9.57242 14.8818 9.21584 15.9949 8.61504 17.8704C8.57188 18.0051 8.52746 18.1437 8.482 18.2867C7.81774 20.3754 7.11079 23.0068 7.74294 26.8634L25.1586 15.7535ZM15.1523 29.1959C15.2318 29.2527 15.3147 29.3076 15.401 29.3603L17.6008 30.7032L17.186 28.1596C16.6995 25.1769 17.4196 23.2791 18.1875 22.1386C18.273 22.5182 18.3974 22.9143 18.5755 23.31L15.1523 29.1959ZM15.1523 29.1959C15.1746 29.3418 15.2022 29.4934 15.2361 29.6506L15.2364 29.652C15.606 31.3815 16.4671 32.4035 17.2644 33.0186L16.3283 35.1201C11.9934 34.3264 8.47895 31.3603 7.74299 26.8637L15.1523 29.1959Z" stroke="url(#paint0_linear_131_203)" stroke-width="2.36727"/>
<defs>
<linearGradient id="paint0_linear_131_203" x1="18.9463" y1="4.79639" x2="18.9463" y2="33.9928" gradientUnits="userSpaceOnUse">
<stop stop-color="#03C4CB"/>
<stop offset="1" stop-color="#DA09D9"/>
</linearGradient>
</defs>
</svg>
