<svg width="46" height="33" viewBox="0 0 46 33" fill="none" xmlns="http://www.w3.org/2000/svg">
<path d="M0.572266 32.207V27.3952C0.572266 26.2007 0.879406 25.1172 1.49369 24.1446C2.10797 23.172 2.96114 22.4468 4.05319 21.969C6.54445 20.8769 8.78828 20.092 10.7847 19.6143C12.7811 19.1365 14.8372 18.8976 16.9531 18.8976C19.069 18.8976 21.1166 19.1365 23.0959 19.6143C25.0753 20.092 27.3106 20.8769 29.8018 21.969C30.8939 22.4468 31.7556 23.172 32.3869 24.1446C33.0183 25.1172 33.3339 26.2007 33.3339 27.3952V32.207H0.572266ZM36.4053 32.207V27.3952C36.4053 25.2452 35.8593 23.4791 34.7673 22.097C33.6752 20.7148 32.2419 19.5972 30.4673 18.744C32.822 19.017 35.0403 19.418 37.122 19.947C39.2037 20.476 40.893 21.0817 42.1898 21.7642C43.316 22.4127 44.2033 23.2146 44.8517 24.1702C45.5001 25.1257 45.8243 26.2007 45.8243 27.3952V32.207H36.4053ZM16.9531 15.775C14.7007 15.775 12.8579 15.0583 11.4246 13.625C9.99125 12.1917 9.27458 10.3489 9.27458 8.09649C9.27458 5.84412 9.99125 4.00128 11.4246 2.56795C12.8579 1.13463 14.7007 0.417969 16.9531 0.417969C19.2055 0.417969 21.0483 1.13463 22.4816 2.56795C23.915 4.00128 24.6316 5.84412 24.6316 8.09649C24.6316 10.3489 23.915 12.1917 22.4816 13.625C21.0483 15.0583 19.2055 15.775 16.9531 15.775ZM35.3815 8.09649C35.3815 10.3489 34.6649 12.1917 33.2316 13.625C31.7982 15.0583 29.9554 15.775 27.703 15.775C27.3276 15.775 26.9096 15.7494 26.4489 15.6982C25.9882 15.647 25.5701 15.5532 25.1947 15.4167C26.0138 14.5635 26.6366 13.5141 27.0631 12.2685C27.4897 11.0229 27.703 9.63219 27.703 8.09649C27.703 6.56078 27.4897 5.20424 27.0631 4.02687C26.6366 2.8495 26.0138 1.76598 25.1947 0.7763C25.5701 0.67392 25.9882 0.588603 26.4489 0.520349C26.9096 0.452096 27.3276 0.417969 27.703 0.417969C29.9554 0.417969 31.7982 1.13463 33.2316 2.56795C34.6649 4.00128 35.3815 5.84412 35.3815 8.09649ZM3.64367 29.1356H30.2625V27.3952C30.2625 26.8491 30.1004 26.3202 29.7762 25.8083C29.452 25.2964 29.051 24.938 28.5733 24.7333C26.1161 23.6412 24.0515 22.9075 22.3793 22.5321C20.707 22.1567 18.8983 21.969 16.9531 21.969C15.0079 21.969 13.1906 22.1567 11.5014 22.5321C9.81208 22.9075 7.73888 23.6412 5.28176 24.7333C4.80398 24.938 4.41152 25.2964 4.10438 25.8083C3.79724 26.3202 3.64367 26.8491 3.64367 27.3952V29.1356ZM16.9531 12.7036C18.284 12.7036 19.3846 12.2685 20.2549 11.3982C21.1251 10.528 21.5602 9.42743 21.5602 8.09649C21.5602 6.76554 21.1251 5.66496 20.2549 4.79472C19.3846 3.92449 18.284 3.48938 16.9531 3.48938C15.6222 3.48938 14.5216 3.92449 13.6513 4.79472C12.7811 5.66496 12.346 6.76554 12.346 8.09649C12.346 9.42743 12.7811 10.528 13.6513 11.3982C14.5216 12.2685 15.6222 12.7036 16.9531 12.7036Z" fill="white"/>
</svg>
